<?xml version='1.0' encoding='utf-8'?>
<svg xmlns="http://www.w3.org/2000/svg" version="1.1" width="306.34" height="663.36" viewBox="225.01 1558.37 306.34 663.36"><path id="path38" d="m 3509.17,5732.5 c -112.66,283.7 -106.69,516.3 -94.52,817 10.64,263 -59.66,472.9 -152.09,705.8 13.05,-143.2 -21.92,-468.4 -86.64,-583.5 -19.45,267.6 -30.19,527.7 -97.87,785.6 -62.2,237 -205.57,407.7 -300.03,629.8 121.82,-284.2 -205.73,-732.3 -290.56,-1008.5 -107.62,-350.5 -46.39,-711.8 -40.41,-1068.5 -33.92,122.4 -154.88,249.2 -217.05,340.7 162.23,-424.2 -230.97,-859.8 -294.81,-1253.9 -46.23,-285.4 -27.98,-587.2 115.2,-820.9 106.08,-310.3 297.84,-626.3 637.97,-695.9 383.02,-78.5 722.1,103.2 903.66,428.1 308.75,552.5 138.61,1166.4 -82.85,1724.2" style="fill:#ff673e;fill-opacity:1;fill-rule:nonzero;stroke:none" transform="matrix(0.13333333,0,0,-0.13333333,0,2666.6667)" />
      <path id="path39" d="m 3399.52,4839.7 c -24.36,476.2 -262.05,918.4 -227.35,1408.6 -20.7,-118.8 -122.46,-279.9 -139.16,-408.7 -53.92,166.3 -34.87,363 -98.78,543.5 -56.73,160.2 -113.6,349.2 -111.58,524.4 -15.18,-130.3 -108.82,-267.5 -122.52,-403.4 -15.41,-152.8 -1.94,-312.8 -11.77,-469 -10.08,-160.4 -97.67,-269.7 -155.02,-420.3 -46.34,-121.7 -21.78,-271.7 -72.37,-391.1 -38.09,113.6 -27.86,224.7 -136.47,306.8 21.51,-169.4 -73.07,-316.9 -90.41,-478.9 -16.73,-156.3 -10.96,-348.9 18.85,-499.3 41.77,-211 132.81,-575 438.44,-677.9 215.16,-72.5 521.9,98.3 617.35,254.2 121.86,198.9 102.79,476.5 90.79,711.1" style="fill:#ff9b50;fill-opacity:1;fill-rule:nonzero;stroke:none" transform="matrix(0.13333333,0,0,-0.13333333,0,2666.6667)" />
      <path id="path40" d="m 2824.54,6953.5 c -1.13,-15.2 -1.71,-30.5 -1.89,-46 1.79,15.4 2.56,30.8 1.89,46" style="fill:#ff9b50;fill-opacity:1;fill-rule:nonzero;stroke:none" transform="matrix(0.13333333,0,0,-0.13333333,0,2666.6667)" />
      <path id="path41" d="m 3172.17,6248.3 c 2.62,15 4.01,29.3 3.7,42.9 -1.49,-14.4 -2.69,-28.7 -3.7,-42.9" style="fill:#ff9b50;fill-opacity:1;fill-rule:nonzero;stroke:none" transform="matrix(0.13333333,0,0,-0.13333333,0,2666.6667)" />
      <path id="path42" d="m 3188.12,4551.9 c -40.59,153.9 -93.04,466 -209.25,573.8 -10.06,-90.6 -52.37,-181.8 -94.58,-266.2 2.69,273.2 -77.63,502.6 -105.09,762.5 2.91,-109.7 -57.12,-207.8 -72.33,-313.2 -13.93,-96.4 24.43,-225.6 -30.67,-301.5 -13.29,48.6 -36.67,70.4 -64.22,114.6 29.41,-200.7 -174.57,-434.8 -195.92,-645.3 -7.9,-77.9 34.4,-462.5 135.35,-563.6 149.6,-149.7 459.44,-139.5 594.63,30.3 115.56,145.1 87.25,437.3 42.08,608.6" style="fill:#ffcc4d;fill-opacity:1;fill-rule:nonzero;stroke:none" transform="matrix(0.13333333,0,0,-0.13333333,0,2666.6667)" />
      </svg>