<?xml version='1.0' encoding='utf-8'?>
<svg xmlns="http://www.w3.org/2000/svg" version="1.1" width="329.21" height="675.42" viewBox="871.87 1508.65 329.21 675.42"><path id="path83" d="m 8576.46,5441.6 c -20.61,57.5 -72.73,104.7 -13.25,165.4 -86.87,-32.4 -40.81,-216.8 -69.9,-291.8 -42.35,-109.3 -145.35,-210.2 -247.86,-260.7 61.31,135.1 143.09,248.6 151.58,406.2 11.67,216.6 -67.55,423.6 -204.1,589.8 -114.47,139.4 -248.77,244 -224.94,446 11.03,93.5 94.03,222.3 190.19,274.1 -266.04,-101.8 -492.43,-363.1 -516.3,-646.2 -14.52,-172.3 59.39,-314.8 103.24,-475.4 22.08,-80.9 18.66,-255.6 -91.72,-278.2 -9.85,127.6 -48.7,276.3 -204.67,283.1 135.78,-129.7 53.13,-287.2 -68.76,-387.5 -190.07,-156.3 -415.31,-254.8 -538.27,-481.9 -93.71,-173.1 -116.55,-515 10.1,-662.6 45.18,-52.7 248.2,-340.6 691.12,-264.8 263.54,45.1 508.23,203.4 540.47,376 41.32,221.3 -85.09,328.7 -36.28,478.7 61,187.5 246.2,103.2 380.29,204.7 96.36,73 149.7,194.7 164.12,312.6 8.52,69.7 8.89,145.7 -15.06,212.5" style="fill:#ff673e;fill-opacity:1;fill-rule:nonzero;stroke:none" transform="matrix(0.13333333,0,0,-0.13333333,0,2666.6667)" />
      <path id="path84" d="m 8692.75,7069.2 c -48,-218.1 -224.42,-256.5 -387.93,-380 -69.87,-52.8 -184.3,-211.2 -99.68,-437 22.01,-58.8 121.1,-269.6 181.07,-295.4 -6.78,92.3 -47.1,187.4 -49.99,283.3 -3.78,124.8 37.66,234.6 113.14,335.8 59.17,79.2 159.01,123 211.55,205.1 68.01,106.3 16.62,184.2 31.84,288.2" style="fill:#ff673e;fill-opacity:1;fill-rule:nonzero;stroke:none" transform="matrix(0.13333333,0,0,-0.13333333,0,2666.6667)" />
      <path id="path85" d="m 8175.86,7316.4 c -14.37,111.4 16.75,221.4 76.68,315.1 54.34,84.9 179.95,166.3 182.04,273 -133.46,-197.9 -399.15,-238.2 -460.82,-503.4 -34.03,-146.4 0.34,-265.6 115.49,-364 92.02,-78.6 201.79,-135.6 166.37,-279.4 -3.95,-16.1 -12.51,-30.4 -12.2,-30 l -8.89,-6.7 c 231.35,140.3 -35.91,419 -58.67,595.4" style="fill:#ff673e;fill-opacity:1;fill-rule:nonzero;stroke:none" transform="matrix(0.13333333,0,0,-0.13333333,0,2666.6667)" />
      <path id="path86" d="m 8679.85,8460.1 c -147.8,-208.8 5.14,-407.4 -133.26,-618.5 -117.93,-179.9 -358.67,-301.1 -287.42,-522.7 l 40.31,-143.2 c 42.53,117 42.68,192.2 153.55,290 103.16,90.9 195.65,166.4 266.81,279.7 161.93,258 -37.87,455.8 -39.99,714.7" style="fill:#ff673e;fill-opacity:1;fill-rule:nonzero;stroke:none" transform="matrix(0.13333333,0,0,-0.13333333,0,2666.6667)" />
      <path id="path87" d="m 7507.45,5258.4 c 1.76,-4.9 3.47,-9.6 5.17,-14.3 -0.88,5.2 -2.5,10 -5.17,14.3" style="fill:#ff9b50;fill-opacity:1;fill-rule:nonzero;stroke:none" transform="matrix(0.13333333,0,0,-0.13333333,0,2666.6667)" />
      <path id="path88" d="m 7842.79,4896.9 c -6.97,-14.2 -11.61,-31.7 -13.29,-53 -2.36,17.1 2.75,34.6 13.29,53 z m 15.22,22.5 c 93.55,122.2 379.57,286.4 354.99,607.4 -27.91,364.4 -179.98,297.9 -311.71,740.2 -96.23,-157.7 9.67,-364.8 38.48,-418.8 60.75,-113.9 65.69,-275.5 2,-419.9 -79.51,-180.1 -274.91,-321 -385.77,-496.7 6.15,15.4 11.9,30.9 16.6,46.6 30.44,101.3 10.84,154.9 -23.02,248.6 22.05,-130.4 -381.63,-220.6 -618.96,-564.6 -72.46,-105 -25.54,-349.2 32.81,-464.7 122.86,-243.2 452.02,-264.1 624.06,-211.6 125.43,38.2 241.74,126.9 296.98,245.2 62.89,134.6 34.32,285.3 22.87,429.6 -5.26,66.3 -11.84,132.3 33.47,183.5 52.95,59.7 139.82,47.3 192.96,105.9 -79.16,-7.7 -216.08,34.7 -275.76,-30.7" style="fill:#ff9b50;fill-opacity:1;fill-rule:nonzero;stroke:none" transform="matrix(0.13333333,0,0,-0.13333333,0,2666.6667)" />
      <path id="path89" d="m 7570.82,4590.6 c 30.1,104.4 51.68,216.3 120.44,301.7 89.68,111.3 228.89,216.4 253.72,351 -85.64,-136.2 -250.17,-252.8 -356.5,-325.9 -71.84,-49.4 -257.42,-159.9 -246.75,-268.9 -10.69,92.2 -17.93,152.3 60.04,272 -329.65,-114.2 -539.45,-634.8 -221.65,-821.3 234.17,-137.4 508.28,34.4 538,213.1 30.36,182.5 5.25,413.9 136.25,522.9 -132.5,-52.2 -210.05,-123.9 -283.55,-244.6" style="fill:#ffcc4d;fill-opacity:1;fill-rule:nonzero;stroke:none" transform="matrix(0.13333333,0,0,-0.13333333,0,2666.6667)" />
      </svg>