<?xml version='1.0' encoding='utf-8'?>
<svg xmlns="http://www.w3.org/2000/svg" version="1.1" width="382.95" height="666.00" viewBox="2612.95 830.87 382.95 666.00"><path id="path90" d="m 20456.2,11521.2 c -0.5,2.5 -1.1,4.9 -1.9,7.3 0.7,-2.4 1.3,-4.9 1.9,-7.3" style="fill:#ff673e;fill-opacity:1;fill-rule:nonzero;stroke:none" transform="matrix(0.13333333,0,0,-0.13333333,0,2666.6667)" />
      <path id="path91" d="m 22230.7,9818.7 c -18.9,94.7 -69.2,184.2 -57.9,287.1 -13.4,-111 -121.5,-175.9 -139.9,-264.1 -37.5,217.5 50.2,383.4 70,587.2 19.7,203.7 -12.4,402.3 -87.8,587.2 9.8,-149.7 -62.5,-317.1 -160.8,-425.8 133.5,253.9 63.2,649.3 -28.8,909 -86.6,244.7 -597,623.3 -389.7,909 -103.3,-88.6 -130.4,-247.4 -123.2,-388.8 7.9,-156.5 -21,-262.8 -90.2,-381.4 65.2,206.9 -100.7,518.6 -242.1,669.2 -100.6,107.1 -242,162 -347.6,262.6 -96.2,91.6 -81.2,161.4 -52.1,276.4 -29.5,-42.1 -74.4,-111 -88.8,-156.1 -59.7,-186.3 39,-316.2 128.1,-462.9 81.9,-135.1 124.3,-297.1 110.3,-457.9 -31,-355.2 -360.1,-624.3 -235.2,-998 -232.9,236.8 22.2,506 -38.8,749.8 22.8,-110.8 -209.1,-317 -264.5,-409.6 -95.2,-158.9 -148.8,-349.2 -137.3,-533.1 8.9,-141.9 65.9,-232.5 105.9,-361.8 16,-52 19.5,-115.5 -0.3,-167.7 -20.6,-54.3 -83.2,-85.3 -46.8,-146.2 -116.9,136 32.8,322.7 -147.1,447.1 54.8,-87 -25.3,-208.8 -64,-291.1 -50.1,-106.5 -80,-183.6 -80,-300.1 0,-440.1 267.9,-641.6 400.1,-760.2 h 1670.6 c 230.1,130 314.8,349.1 340.4,520.1 14.1,94.8 16.2,205.7 -2.5,300.1" style="fill:#ff673e;fill-opacity:1;fill-rule:nonzero;stroke:none" transform="matrix(0.13333333,0,0,-0.13333333,0,2666.6667)" />
      <path id="path92" d="m 20756.8,13345.4 c -70.8,55.9 -171.3,100.8 -194.9,198.1 -8.5,-90.4 45.3,-139.3 91.3,-206.3 48.2,-70 54.5,-126.7 54.8,-212.7 0.3,-100.4 -27.2,-161.8 -67.3,-251.2 -30.1,-67 -70.8,-163.1 2.4,-218.8 l 32,-36.6 c -49.6,73.9 18.7,142.8 81.5,198.7 86.6,77.1 144.8,141.8 145.9,259.3 1.1,122.3 -51.5,195 -145.7,269.5" style="fill:#ff673e;fill-opacity:1;fill-rule:nonzero;stroke:none" transform="matrix(0.13333333,0,0,-0.13333333,0,2666.6667)" />
      <path id="path93" d="m 20699.9,12589.7 -24.8,28.2 c 6.3,-9.3 14.5,-18.8 24.8,-28.2" style="fill:#ff673e;fill-opacity:1;fill-rule:nonzero;stroke:none" transform="matrix(0.13333333,0,0,-0.13333333,0,2666.6667)" />
      <path id="path94" d="m 20446.4,11968.9 c 50.1,123.4 -33.6,205.5 -54.6,267.1 -1.3,-85.7 -71.7,-111.2 -112,-176 -46.8,-75.2 -59.7,-167.3 -49.8,-250.6 19.6,-165.1 127.3,-250.5 72.3,-420.1 h 10 c 21.9,63.7 69.9,115.7 102.2,177.8 71.9,138.4 -69.2,152.3 31.9,401.8" style="fill:#ff673e;fill-opacity:1;fill-rule:nonzero;stroke:none" transform="matrix(0.13333333,0,0,-0.13333333,0,2666.6667)" />
      <path id="path95" d="m 21246.6,13031 c 164,-214.1 -304.2,-549.9 -14,-731.4 l 40,-20 c -80.4,73 106.3,316.9 129.7,399.8 44.7,158.3 -24.8,256.6 -155.7,351.6" style="fill:#ff673e;fill-opacity:1;fill-rule:nonzero;stroke:none" transform="matrix(0.13333333,0,0,-0.13333333,0,2666.6667)" />
      <path id="path96" d="m 20379.1,13098 c 0.2,-0.2 0.4,-0.4 0.6,-0.6 -0.1,0.3 -0.2,0.6 -0.4,0.9 -3.6,3.8 -3.7,3.7 -0.2,-0.3" style="fill:#ff673e;fill-opacity:1;fill-rule:nonzero;stroke:none" transform="matrix(0.13333333,0,0,-0.13333333,0,2666.6667)" />
      <path id="path97" d="m 20379.7,13097.4 c 63.6,-146.3 -143.7,-313.7 -37.4,-457.7 v -40 c 13.9,-49.8 27.4,-98 50.5,-147.1 -63.2,216.4 177.7,479.5 -13.1,644.8" style="fill:#ff673e;fill-opacity:1;fill-rule:nonzero;stroke:none" transform="matrix(0.13333333,0,0,-0.13333333,0,2666.6667)" />
      <path id="path98" d="m 21844.5,9599.9 c 42.7,226.4 15.8,460.2 17.4,686.7 -11.8,-82.6 -68.1,-190.2 -107.2,-244.5 -4.2,101.2 37.8,181.2 -14.5,284.6 -49.6,98.2 -100.1,125 -170.2,190.7 -121.4,114.1 54.5,376.8 -123.3,469 50,-128.9 -13.4,-172.2 -61.6,-247.6 -49.8,-78 0.5,-123.1 17.5,-209.8 43.7,-222.7 -184.5,-257.6 -220,-40 -33.9,207.3 56.3,373.7 187.8,520.6 96.9,108.4 137.1,169.8 111.6,282 -32,-106.4 -276,-205.8 -329.2,-240 -82.9,-53.1 -135.1,-132.9 -150.3,-232.5 -12.8,-84.1 13.7,-153.3 -40.3,-226.6 -16.4,65 -14.5,130.2 -30,196.6 -12.5,53.2 -52.2,95.7 -71.2,144.1 39.4,-186.3 -121.6,-358.6 -190.5,-514.3 -44.9,-101.3 -70.3,-209.9 -64.6,-316.8 -27.5,63.4 -60.8,124.2 -93.3,176.8 -67.9,109.7 -233.1,186.1 -222.3,327.1 -99.9,-181.9 91.8,-355.1 29.5,-546.9 -65.8,-202.2 -270,-247.2 -206.6,-486.9 -22.9,60.5 -83.1,77.3 -111.8,133.3 65.4,-148.7 22.1,-300.8 118.3,-447.2 74.4,-113.2 199.3,-220 279.1,-259.8 h 1293.6 c 96.5,89.8 282.7,417.8 288.3,669.2 -49.3,-11.3 -91,-51 -136.2,-67.8" style="fill:#ff9b50;fill-opacity:1;fill-rule:nonzero;stroke:none" transform="matrix(0.13333333,0,0,-0.13333333,0,2666.6667)" />
      <path id="path99" d="m 21862.8,10335.9 c -0.5,-16.4 -0.7,-32.8 -0.9,-49.3 2.6,17.8 3.1,34.6 0.9,49.3" style="fill:#ff9b50;fill-opacity:1;fill-rule:nonzero;stroke:none" transform="matrix(0.13333333,0,0,-0.13333333,0,2666.6667)" />
      <path id="path100" d="m 20825.7,12088.7 c 149.8,-206.6 31.9,-360.2 -30.8,-579.4 -24.5,-85.5 -44.4,-214.2 -10.2,-297.8 29,-71 110.7,-136.1 170.7,-155 v 0 c -142.5,176.8 -26.4,376.1 44.6,543.3 82.7,195 8.7,378.1 -174.3,488.9" style="fill:#ff9b50;fill-opacity:1;fill-rule:nonzero;stroke:none" transform="matrix(0.13333333,0,0,-0.13333333,0,2666.6667)" />
      <path id="path101" d="m 21451.1,11796.7 c -1.9,10 -4.8,19.9 -9,29.7 2.8,-10.5 5.8,-20.3 9,-29.7" style="fill:#ff9b50;fill-opacity:1;fill-rule:nonzero;stroke:none" transform="matrix(0.13333333,0,0,-0.13333333,0,2666.6667)" />
      <path id="path102" d="m 21451.1,11796.7 c 27.8,-152.7 -200.2,-331.4 -57.3,-469.4 9.2,77.2 58.1,146.2 88.8,232 38.8,108.2 -2.9,152.8 -31.5,237.4" style="fill:#ff9b50;fill-opacity:1;fill-rule:nonzero;stroke:none" transform="matrix(0.13333333,0,0,-0.13333333,0,2666.6667)" />
      <path id="path103" d="m 21636.4,11370.2 c 86.2,-108 41.5,-252 -11.2,-363.6 -69.5,-147 -20.1,-208.1 -2.5,-357.6 l 16.8,-56 c -40.6,237.1 326.8,612 -3.1,777.2" style="fill:#ff9b50;fill-opacity:1;fill-rule:nonzero;stroke:none" transform="matrix(0.13333333,0,0,-0.13333333,0,2666.6667)" />
      <path id="path104" d="m 20202.2,10669 c -80.5,147.4 31.6,313.2 80.5,387.1 -28.6,-86.3 29.6,-156.5 12.3,-229.8 -19.1,-80.7 -81.6,-107.1 -72.8,-207.3 l -20,50" style="fill:#ff9b50;fill-opacity:1;fill-rule:nonzero;stroke:none" transform="matrix(0.13333333,0,0,-0.13333333,0,2666.6667)" />
      <path id="path105" d="m 21486.3,10352.8 c -0.3,-16.3 1.5,-31.3 4.2,-45.7 4.4,14.5 4.1,29.7 -4.2,45.7" style="fill:#ffcc4d;fill-opacity:1;fill-rule:nonzero;stroke:none" transform="matrix(0.13333333,0,0,-0.13333333,0,2666.6667)" />
      <path id="path106" d="m 21553.4,9400.7 c -24.9,53.6 22.8,146.6 12,213.6 -20.4,-22.1 -34.3,-57.4 -57.4,-78.6 3.1,69.7 33.1,131.7 32,206 -1.1,74.9 -31.2,143.6 -47,213.4 -17.7,77.7 -5.8,129.8 12,201.5 14.9,59.9 -5.3,101.5 -14.5,150.5 -12.3,-40.7 -61.4,-76.5 -75.5,-113.4 -37.7,-98.8 48.1,-254.1 -95,-291.9 -123.4,-32.6 -198.4,83 -233.4,186.7 -39.8,117.7 -10.3,184.7 19.8,300 26.1,99.9 -20.9,207.5 -27.8,312.8 -48.9,-42.3 -7.6,-221.7 -40.3,-292.8 -21.3,-46 -52.4,-80.3 -52.1,-133.3 0.3,-51.6 25.9,-104.1 33.7,-153.4 8.5,-53.3 33.9,-282 -53.5,-273.5 -98.3,9.5 -36.7,237.9 -39.8,300.2 -5,97.8 -118.7,229.1 -79.4,317.4 -110.4,-110.6 -4.4,-249.4 -59,-372.4 -28.5,-64.1 -99.3,-109.6 -136.7,-170.3 -45.1,-73.1 -11.5,-125 -26.5,-201 -29,76.3 -57.3,191.7 -135.9,240.2 37.4,-114.9 6.1,-183.5 -31.2,-294 -39.8,-118.2 26.5,-210.2 15.5,-324.4 -15.3,14 -31.5,43.9 -33.6,51.9 -0.2,-130.2 6.2,-300.9 154.8,-397.4 h 891.3 c 57.1,81.7 77.5,162.1 106,256.4 26.5,87.8 11.1,195.2 40.1,279.4 -33.4,-34.5 -47.6,-95.6 -78.6,-133.6" style="fill:#ffcc4d;fill-opacity:1;fill-rule:nonzero;stroke:none" transform="matrix(0.13333333,0,0,-0.13333333,0,2666.6667)" />
      </svg>