<?xml version='1.0' encoding='utf-8'?>
<svg xmlns="http://www.w3.org/2000/svg" version="1.1" width="723.05" height="652.35" viewBox="1124.75 844.52 723.05 652.35"><path id="path60" d="m 11042.7,12966.5 c 4.5,6.2 8.9,12.4 13.1,18.7 -4.5,-6.3 -8.9,-12.5 -13.1,-18.7" style="fill:#ff673e;fill-opacity:1;fill-rule:nonzero;stroke:none" transform="matrix(0.13333333,0,0,-0.13333333,0,2666.6667)" />
      <path id="path61" d="m 9501.5,11533.5 c 4.54,10.1 9.22,20.3 14.16,30.8 -5.86,-10.6 -10.5,-20.9 -14.16,-30.8" style="fill:#ff673e;fill-opacity:1;fill-rule:nonzero;stroke:none" transform="matrix(0.13333333,0,0,-0.13333333,0,2666.6667)" />
      <path id="path62" d="m 13603.6,9712.2 c -64.3,257.9 -495.6,662 -212.1,911.8 -187,-93.4 -264.2,-331.7 -355.9,-485.3 -26.3,287.2 -157.4,456.6 -288.8,700.9 -71.1,132.1 -158.7,319.1 -71.7,453.9 -48.2,-43.3 -99.5,-85.1 -138.9,-141.7 -119,-170.8 -2.6,-357.2 -131.1,-523.7 -207.9,-269.2 -146.2,358.3 -97.8,475.6 91.8,222.2 230.2,375.5 148.3,631 -43.6,135.7 -115.9,300.7 -63.6,447 -77.4,-86.2 -224.9,-159.3 -275.6,-257 -57,-109.6 -71.9,-235 -130,-345 63,125.7 38.9,329.9 25.8,464 -17.7,181.7 -113.4,323.8 -145.6,499.6 -33.2,180.6 99.9,305.3 196.5,439.9 99,138 104.3,290.6 104,454 3.7,13.2 -5,-10.9 -9.2,-16.4 -50.9,-67 -40.5,-169.3 -112.4,-246.4 -81.7,-87.7 -182.1,-152.5 -282.8,-217.4 -202.8,-130.8 -357.1,-247.6 -431.2,-487.7 -87.5,-283.6 -98.6,-462.7 -330.1,-666.2 -140.2,-123.2 -266.8,-373.9 -261.7,-564.7 -89.3,327.9 174.3,555.3 228.7,852.9 56.7,310.7 -116.1,593.3 74.3,875.2 -114.8,-158.1 -323.9,-291.1 -350.6,-494.6 -30.4,-232.5 -27.5,-410.4 -214.5,-582.8 -204.2,-188.4 -473.7,-305.8 -591.72,-573.9 -88.98,-202.2 -29.13,-464.4 -76.67,-674.2 -23.05,156.3 18.88,331.6 -65.46,498.6 -69.53,137.7 -303.44,226.6 -242.25,393.9 -88.39,-196.3 -102,-318.2 -43.9,-534 68.68,-255.1 -137.19,-479.2 -311.89,-656.8 -197.42,-200.8 -429.36,-351.1 -475.48,-642.1 -36.23,-228.5 30.3,-540.5 201.89,-702.1 h 4353.78 c 66.6,30.1 284.5,90.1 364.7,304.5 56.8,151.6 53.1,248.2 13,409.2" style="fill:#ff673e;fill-opacity:1;fill-rule:nonzero;stroke:none" transform="matrix(0.13333333,0,0,-0.13333333,0,2666.6667)" />
      <path id="path63" d="m 13237.7,9739.2 c -10.5,68.9 -39.4,148.6 -37.3,222.3 -32.8,-73.2 -116.2,-121.7 -188.7,-148.2 -129.9,-47.7 -145.1,-55.7 -190.9,-188.8 2.8,71.2 -25.4,117.4 -10.9,186.1 11.5,54.7 48.2,97 59.6,150.5 -66.8,-101.2 -176.2,-55.7 -259.8,-117.5 -85,-62.7 -113.6,-210.9 -123.7,-305.4 -180.6,128.9 -57.1,382.5 58.9,513 147.6,166 192.9,266.5 112.4,481.4 65.3,-192.9 -156,-316.5 -299.8,-374.1 -184.6,-73.9 -226.5,-205.6 -321.8,-367.5 6.8,74.2 63.7,132.7 71.9,209.9 10,93.1 -25.3,185 -74.5,262 -70.6,110.4 -274.9,162.5 -318.5,272.7 -74.3,187.7 211.3,347.1 310.5,449.7 120.4,124.7 120,277.8 95.1,439.5 -77.2,-292.5 -262.1,-266.7 -512.1,-332.2 -248.3,-65.1 -268.1,-360.3 -204.9,-537.6 -51.1,135.8 -192.8,206.9 -187.7,361.9 6.2,188.4 168.5,291.5 259,442.7 160,267.3 -109.3,470.5 104.5,815.7 -10.1,-14.4 -21.5,-28.4 -33.3,-42.1 -85,-98.6 -104.3,-117.5 -104.2,-252.8 0.1,-94.2 -7.6,-216.8 -39.8,-305.2 -81.2,-222.6 -340.5,-284.5 -510,-417.2 -191.4,-149.8 -155.8,-351.3 -33.1,-526.9 120.4,-172.3 159.6,-391.8 23.5,-570.7 -43.9,-57.7 -166.2,-172.1 -235.2,-80.9 -52.5,69.5 47.3,215.6 57.7,283.1 43.9,284.3 -198,318 -343.2,490.3 -306.5,363.8 317.8,687.3 271.3,1028.7 1.7,-326.5 -535.3,-467.7 -583.5,-805.3 -25,-174.9 -4.2,-362.2 -23.3,-535.3 -18.2,-166.3 -59.03,-334.8 -121.56,-486.1 -290.31,245.4 59.39,405.2 0.04,518.3 -66.95,-146.7 -168.84,-166.4 -280.47,-261.1 -124.28,-105.5 -95.89,-211.2 -99.91,-350.1 -126.06,146.2 -28.43,331.3 47.61,472.3 88.43,164 70.8,277.9 26.18,448.1 21.54,-352.6 -425.08,-556.4 -574.28,-838.3 -154.07,-291.1 -145.99,-723.3 138.3,-945.6 0,0 3690.59,6 3799.89,3 136,98.2 272.5,250.8 327.6,408.6 34.7,99.3 -35.4,222.8 -51.6,329.1" style="fill:#ff9b50;fill-opacity:1;fill-rule:nonzero;stroke:none" transform="matrix(0.13333333,0,0,-0.13333333,0,2666.6667)" />
      <path id="path64" d="m 12908.3,9545.2 c -119.1,-35.9 -97.1,-72 -171.7,-159.6 -93.6,49.8 -100.5,181.1 -39.6,265.1 -86.3,-76.1 -97.1,-228.9 -208,-304.6 -97.3,-66.4 -296.6,-100.9 -381.4,4.6 -95.8,119.3 30,233.5 102.6,321.2 93.7,113.2 29.8,251.1 150.3,346.5 -95.2,-68.9 -110.1,-84.7 -159,-186.2 -34.2,-71.1 -92.5,-123 -167.5,-151.6 -139.6,-53.4 -364.5,-88.9 -284.6,-311.6 -63,109.2 -46.3,267.6 -0.8,380.9 64.1,159.9 84.8,216.2 10.8,384.1 -55.1,125.1 -190.1,236.1 -225.4,365.3 -23,84.2 20.5,311.9 99.9,330.1 -148.7,-39.4 -183.6,-182.6 -184.4,-277.3 -1.1,-131.9 -26,-235.5 -92.2,-346.5 66.1,111.6 -70.5,290.7 -133.1,385.1 -52.6,79.4 -221.1,231.7 -163.9,326.5 -96.7,-72.3 -8.2,-256.1 26.1,-337.6 48.4,-115.2 90.7,-237.3 73.3,-365.8 -35.9,-264.4 -355.1,-294.4 -418.2,-534 -21.9,142.7 -335,164.9 -270,372.1 -9.9,-5.1 -25,-16.3 -32.1,-27.2 -92.8,-142.1 119.9,-296.6 -47.3,-417.7 -162.7,-117.8 -152.9,182.8 -131.2,276.8 35,151.8 125.4,198.5 102.1,355 -10.2,68.9 -81.8,144.9 -122.9,206.2 -29.6,44.2 -88.8,126.8 -51.9,184.6 -83.9,-74.2 -10.2,-231.8 7.8,-317.4 25.8,-122.8 48,-243.9 -33.2,-357.3 -103.2,-144 -568.1,-287.9 -353.75,-535.9 -92.01,76.5 -163.45,124.9 -138.66,250.6 19.3,98 59.41,160.8 -5.41,251.1 47.67,-142.3 -170.56,-229.2 -233.97,-324.4 -50.3,-75.5 -55.75,-212.8 7.24,-288.8 -83.68,64 -156.56,99.4 -151.96,237.3 3.53,106 59.47,227.5 -37.55,299.6 62.92,-80.2 -115.75,-354.1 -131.95,-424.5 -32.78,-142.6 11.48,-349.8 159.65,-416.5 l 3447.36,-4.9 c 46.6,63.1 66.8,58.5 84.3,135.9 18.4,81 -0.3,136.5 53.4,207.6 45.6,60.5 116.2,81.4 160.5,140.6 44.3,59 27.9,115.9 38.1,170.4 -26.4,-64.4 -86.6,-88.1 -151.8,-107.8" style="fill:#ffcc4d;fill-opacity:1;fill-rule:nonzero;stroke:none" transform="matrix(0.13333333,0,0,-0.13333333,0,2666.6667)" />
      <path id="path65" d="m 13060.1,9653 c 3.9,9.5 7.1,19.8 9.4,31.1 -4.5,-10.3 -7.4,-20.7 -9.4,-31.1" style="fill:#ffcc4d;fill-opacity:1;fill-rule:nonzero;stroke:none" transform="matrix(0.13333333,0,0,-0.13333333,0,2666.6667)" />
      </svg>