<?xml version='1.0' encoding='utf-8'?>
<svg xmlns="http://www.w3.org/2000/svg" version="1.1" width="1082.17" height="717.52" viewBox="285.38 129.04 1082.17 717.52"><path id="path3" d="m 9961.64,14916.4 c -79.88,175.7 -165.56,339.8 -275.05,499.4 -73.98,107.9 -211.09,231.1 -220,363 -35.63,-161 -149.33,-269.4 -281.5,-416.9 -152.13,446.8 -96.43,944.9 -418.5,1332.9 -181.02,218.1 -481.1,387.2 -605.48,641 -82.68,168.8 -100.33,378.5 -169.54,554 -134.85,-419.4 -190.53,-744.6 -484.98,-1094 -283.68,-336.6 -249.72,-847.7 -564.52,-1160 -346.42,-343.7 -155.3,660.5 -155.48,804.4 -0.26,199.8 -8.98,273 -63.42,453.1 -39.45,130.5 -20,460 120,740 -123.54,-62.8 -494.03,-612.9 -616.51,-720.4 -104.93,131 -91.16,344.3 -119.57,507.8 -34.65,199.5 -109.15,403.4 -184.95,591.2 -81.31,201.5 -235.66,446.1 -236.29,668.2 -25.92,-577.7 -755.43,-992.3 -1084.17,-1389.3 -198.9,-240.2 -357.04,-534.9 -420,-840.4 -37.24,-180.7 -33.67,-452.2 -151.1,-593 -44.49,205.3 -11.19,419.9 -98.51,618.4 -72.14,164 -239.56,256.9 -266.51,434 83.27,-548.3 -798.55,-1020.2 -1053.42,-1414.4 -203.5,-314.8 -380.73,-1294 -105.55,-1619.6 h 7380 c 81.46,361.6 235.21,688.2 75.05,1040.6" style="fill:#ff9b50;fill-opacity:1;fill-rule:nonzero;stroke:none" transform="matrix(0.13333333,0,0,-0.13333333,0,2666.6667)" />
      <path id="path4" d="m 5762.43,18777.6 c 0.45,9.8 0.71,19.7 0.74,29.6 -0.6,-9.8 -0.77,-19.7 -0.74,-29.6" style="fill:#ff9b50;fill-opacity:1;fill-rule:nonzero;stroke:none" transform="matrix(0.13333333,0,0,-0.13333333,0,2666.6667)" />
      <path id="path5" d="m 9961.64,14916.4 c -79.89,175.7 -165.56,339.8 -275.05,499.4 -73.98,107.9 -211.09,231.1 -220,363 -35.63,-161 -149.33,-269.4 -281.5,-416.9 -152.13,446.8 -96.43,944.9 -418.5,1332.9 -181.02,218.1 -481.1,387.2 -605.49,641 -82.67,168.8 -100.32,378.5 -169.53,554 -134.85,-419.4 -190.53,-744.6 -484.98,-1094 -283.68,-336.6 -249.72,-847.7 -564.52,-1160 -346.42,-343.7 -155.3,660.5 -155.48,804.4 -0.26,199.8 -8.98,273 -63.42,453.1 -39.45,130.5 -20,460 120,740 -123.54,-62.8 -494.03,-612.9 -616.51,-720.4 -104.93,131 -91.16,344.3 -119.57,507.8 -34.66,199.5 -109.15,403.4 -184.95,591.2 -81.31,201.5 -235.66,446.1 -236.29,668.2 -25.92,-577.7 -755.43,-992.3 -1084.18,-1389.3 -198.89,-240.2 -357.02,-534.9 -420,-840.4 -37.23,-180.7 -33.66,-452.2 -151.09,-593 -44.49,205.3 -11.19,419.9 -98.51,618.4 -72.14,164 -239.56,256.9 -266.51,434 83.27,-548.3 -798.55,-1020.2 -1053.42,-1414.4 -203.5,-314.8 -380.73,-1294 -105.55,-1619.6 h 406.18 c -7.7,216.6 52.84,449.7 110.98,637.5 110.06,355.7 431.55,620.9 520.45,973.9 7.2,-133.3 116.82,-249.7 164.53,-372.9 58.48,-151.1 35.66,-307.1 73.34,-454 111.57,235.5 189.68,379.4 396.58,557.4 182.48,157 326.37,349.2 410.08,575.6 95.43,258.1 147.21,507.5 294.44,740 147.7,233.3 348,393.4 518.43,587.3 11.65,28.6 30.65,52.5 59.05,70.2 -19.15,-24 -38.94,-47.3 -59.05,-70.2 -75.93,-186.1 162.31,-571.2 182.6,-727.3 19.3,-148.4 12.25,-342.7 -19.2,-516.4 163.87,266.7 527.39,320 750.42,537.7 20.1,51.5 53.68,97.6 104.73,135.6 -29.04,-52 -64.62,-96.4 -104.73,-135.6 -98.37,-251.8 127.72,-632.7 222.77,-836.9 131.6,-282.6 260.75,-833.3 82.92,-1116.3 225.59,373.9 604.66,571 897.62,896.4 283.05,314.4 276.41,862.6 616.47,1132.9 -239.02,-358.3 327.56,-716.3 453.46,-1017.4 120.31,-287.7 229.32,-825.2 73.59,-1113.1 94.23,196.7 521.37,315.3 609.39,462.8 3.33,17 8.41,33.3 15.84,48.8 -0.77,-16.7 -6.37,-32.9 -15.84,-48.8 -20.91,-106.2 29.04,-237.4 31.53,-349.7 3.53,-159.2 -33.93,-294 -61.03,-439 -10.22,-54.7 -23.39,-107.3 -38.58,-158.5 h 683.03 c 81.46,361.6 235.21,688.2 75.05,1040.6" style="fill:#ff673e;fill-opacity:1;fill-rule:nonzero;stroke:none" transform="matrix(0.13333333,0,0,-0.13333333,0,2666.6667)" />
      <path id="path6" d="m 8406.7,14281.4 c -87.77,8.2 -143.85,30.9 -160.04,19.7 -23.19,168.6 -36.72,321.6 -27.93,497.4 7.81,156.5 4.44,414.8 84.44,601.4 -114.42,-79.3 -154.79,-236.9 -193.33,-326.6 -42.76,-99.6 -75.05,-98.5 -147.06,-174.3 -117.11,-123.3 -198.67,-525.8 -416.58,-457.5 216.97,258.4 370.3,911.8 276.97,778.4 -81.28,-116.1 -453.55,-444.4 -535.08,-506.9 -116.55,-89.3 -333.59,-295.2 -464.45,-334.9 -136.12,-41.4 -203.78,70.8 -304.91,76.4 -123.29,6.9 -170.49,-57.1 -273,-93.4 105.59,433.8 -546.22,873.7 -305.58,1250.4 -71.07,-88 -179.32,-141.3 -252.45,-233 -67.83,-85 -81.13,-191.2 -139.04,-280 -69.34,-106.3 -168.56,-169.2 -230.44,-280 -50.24,-89.9 -67.33,-200.4 -110.52,-293.9 4.78,151.4 55.59,359.6 -4.06,513.9 -75.31,194.9 -190.42,213.4 -179.43,454 -136.25,-320.5 -270.96,-616.3 -621.04,-733.4 -175.43,-58.7 -313.89,-94.6 -444.91,-236.1 -93.09,-100.6 -175.53,-303.7 -332.13,-301.4 -17.45,109.2 -74.98,204.7 -63.02,319.8 -94.97,-205.5 -139.31,-407.1 -61.82,-665.6 H 8456.5 c 196.47,131.6 205.49,220.2 283.15,440.2 -146.6,-145.6 -176.48,-36.1 -332.95,-34.6" style="fill:#ffcc4d;fill-opacity:1;fill-rule:nonzero;stroke:none" transform="matrix(0.13333333,0,0,-0.13333333,0,2666.6667)" />
      </svg>