<?xml version='1.0' encoding='utf-8'?>
<svg xmlns="http://www.w3.org/2000/svg" version="1.1" width="2336.17" height="838.71" viewBox="1902.45 7.85 2336.17 838.71"><path id="path7" d="m 21558.4,18100.1 c 19.8,32.1 38,66.8 54.2,104.7 -22.7,-34.9 -40.6,-69.8 -54.2,-104.7" style="fill:#ff673e;fill-opacity:1;fill-rule:nonzero;stroke:none" transform="matrix(0.13333333,0,0,-0.13333333,0,2666.6667)" />
      <path id="path8" d="m 31529.7,15127.8 c -47.2,154.4 -470.3,637.2 -381.4,736.1 -204.3,-215.3 -476,-93.5 -722.5,-142.1 -262.8,-51.9 -362.7,-390.5 -607.5,-459.2 63.6,135.6 69.9,319.6 14.3,459.3 -67.4,169.2 -191.9,230.4 -184.5,426.6 -121.1,-106.1 -241.6,-211.1 -360,-322.1 44.4,397.7 4.1,764.7 -212.5,1115.1 -161.1,260.6 -406.2,464.8 -283.4,787.9 -236.2,-168.2 -518.5,-243.7 -772.8,-392.9 -275.1,-161.5 -379.8,-603.7 -706,-657 19.4,63 10,131.4 33,189 -367.9,-370.8 -508.2,-827.4 -1055.6,-1011.2 -209.9,-70.5 -385.6,-119.5 -550.3,-240.1 -89.5,173.3 -196.6,323.5 -344.4,463 -125.3,118.2 -467.1,279.6 -281.8,483.1 -146.5,-57.9 -223.3,-213.9 -335.3,-317.5 -146.6,-135.6 -283.8,-124.9 -433.7,-244.3 -205.4,-163.7 -226.6,-131.8 -266.5,115.7 -11.6,72.2 -8.2,177.2 -28.9,247.2 -18.4,62.4 -86.5,151 -98.4,183.6 -123.5,-353.4 -477.3,-427.7 -774.4,-529.6 -313.2,-107.5 -385.7,-517.3 -689.9,-591 -25,157.1 108.7,232.3 141.6,364 27.5,109.8 4.3,309.6 -11.8,424.7 -27.7,197.5 -247.9,609.4 -72.5,776.3 -191.5,-160 -262.3,-430.7 -455.6,-582.6 -177.8,-139.7 -369.4,-176.3 -511.5,-369.2 49.5,170.7 186.1,335 232.2,504.2 41.9,153.7 -17.3,429.2 -53.9,577.5 -79.2,321.1 -325.2,650.2 -197.3,977.8 -148.3,-241.3 -388.4,-336.6 -622.9,-503.2 -162.7,-115.7 -269.9,-205.8 -341.4,-392.2 -51.3,-134 -77.8,-252.1 -199,-344.3 -6.3,115.4 -140.2,246.3 -84,355.8 -171.6,-285.7 -359.8,-480.6 -673.3,-621.2 -284.7,-127.7 -667.8,-248.7 -815.3,-543.7 -140.8,-281.7 -118.8,-915.1 -586.6,-854.2 11.8,93 17.4,192.4 10.7,292.7 -184.6,-210.3 -600.1,-240.2 -672.6,-537.4 11.6,267.7 78.6,444.6 -61.4,707.2 -113.9,213.5 -224.4,341.7 -234.4,584.5 -82.1,-426 -656.5,-470.2 -984.8,-600.6 -197.8,-78.5 -317.3,-197.5 -427.9,-383 -82,-137.4 -75,-316.7 -249.3,-360.8 31.1,157.1 -13.2,276.9 -65.5,425.4 82.9,-254.9 -584.3,-570.5 -764.8,-707.2 -258.9,-195.9 -292.5,-472.8 -292.5,-741.4 h 16476.1 c 659,230.7 630.3,1022.2 560.2,1251.3" style="fill:#ff673e;fill-opacity:1;fill-rule:nonzero;stroke:none" transform="matrix(0.13333333,0,0,-0.13333333,0,2666.6667)" />
      <path id="path9" d="m 22088.9,17501.2 -6.2,6.2 c 0.1,-5.3 2,-7.8 6.2,-6.2" style="fill:#ff673e;fill-opacity:1;fill-rule:nonzero;stroke:none" transform="matrix(0.13333333,0,0,-0.13333333,0,2666.6667)" />
      <path id="path10" d="m 22500.8,18715.5 c -20.1,-434.8 -762.5,-618.1 -477.8,-1148.4 l 59.7,-59.7 c -0.6,17.2 17.2,64.2 43.3,105.5 29.1,46.1 68.7,84.6 107.1,123.1 69.9,70 165.6,121.7 222.3,205.6 150.7,223 45.2,522.9 45.4,773.9" style="fill:#ff673e;fill-opacity:1;fill-rule:nonzero;stroke:none" transform="matrix(0.13333333,0,0,-0.13333333,0,2666.6667)" />
      <path id="path11" d="m 23143.3,17204.7 c 4.6,113.2 52.8,277.2 36.6,361.2 -44,-378.7 -658.1,-563.8 -464.9,-987.3 l 16.4,-395.5 c 21.9,242.6 287.5,377.6 383.6,608.8 52.7,127.1 22.8,276.5 28.3,412.8" style="fill:#ff673e;fill-opacity:1;fill-rule:nonzero;stroke:none" transform="matrix(0.13333333,0,0,-0.13333333,0,2666.6667)" />
      <path id="path12" d="m 20556.5,18475.7 c -35.4,-90.6 -132.4,-228.1 -202.2,-331 -70.9,-104.6 -108.9,-294 -206.8,-362.1 4.4,45.5 -11.3,100 -6.1,145.3 -50,-66.2 -53.6,-148.8 -124.1,-216.5 -68.6,-66 -187.6,-102.4 -268.1,-157.1 -149.7,-101.6 -349.5,-285.5 -249.3,-482.6 128.5,224 587,336.1 759.3,450.2 350.2,231.8 307.3,585.9 297.3,953.8" style="fill:#ff673e;fill-opacity:1;fill-rule:nonzero;stroke:none" transform="matrix(0.13333333,0,0,-0.13333333,0,2666.6667)" />
      <path id="path13" d="m 29734.6,18681.7 c -105.8,-218.9 -143.9,-364.5 -347.7,-541.9 -139.9,-121.9 -462.6,-410.7 -347.3,-634.5 40.5,-78.7 125.5,-331.1 125.5,-331.1 48.5,297.1 283.7,459.6 469.8,685.9 184.7,224.7 95.1,546 99.7,821.6" style="fill:#ff673e;fill-opacity:1;fill-rule:nonzero;stroke:none" transform="matrix(0.13333333,0,0,-0.13333333,0,2666.6667)" />
      <path id="path14" d="m 28787.3,18708.7 c 10.8,37.2 18,76.3 20.7,117.7 -14.8,-35.3 -19.9,-75.4 -20.7,-117.7" style="fill:#ff673e;fill-opacity:1;fill-rule:nonzero;stroke:none" transform="matrix(0.13333333,0,0,-0.13333333,0,2666.6667)" />
      <path id="path15" d="m 28787.3,18708.7 c -52.3,-180.4 -191.3,-315.6 -338.9,-437 -138.9,-114.4 -288.2,-253.6 -283.5,-441.8 l -37.1,-321.3 c -1,-15.1 0.1,-30.5 -0.6,-45.7 121,258.8 308.2,398.4 498.3,610.7 91.8,102.6 147.7,229.4 166.8,361.8 12,82.8 -6.6,182.9 -5,273.3" style="fill:#ff673e;fill-opacity:1;fill-rule:nonzero;stroke:none" transform="matrix(0.13333333,0,0,-0.13333333,0,2666.6667)" />
      <path id="path16" d="m 29165.7,18826.4 c -21.5,-109.3 61.8,-403.4 61.8,-403.4 75.8,123.9 147.2,193 185.7,333.6 30.6,111.6 64.4,221.3 120.2,324.4 57.7,106.6 93.1,184.1 111.5,305.8 10.5,69.7 14,151.2 29.7,225.3 -127.4,-246.1 -434.7,-410.6 -508.9,-785.7" style="fill:#ff673e;fill-opacity:1;fill-rule:nonzero;stroke:none" transform="matrix(0.13333333,0,0,-0.13333333,0,2666.6667)" />
      <path id="path17" d="m 29674.6,19612.1 c 17.9,34.7 30.5,69.3 35.4,104 -16.6,-31.1 -27.5,-66.6 -35.4,-104" style="fill:#ff673e;fill-opacity:1;fill-rule:nonzero;stroke:none" transform="matrix(0.13333333,0,0,-0.13333333,0,2666.6667)" />
      <path id="path18" d="m 17748.3,16924.1 c -32.4,-219.9 -184.6,-321.2 -299.6,-489.9 -93.4,-137.1 -140.7,-353.3 15.5,-445.4 l 160.6,-321.3 c 22.6,-22.2 61.8,223.4 61.8,287.2 0,121.5 -66.5,216.3 -74.5,330.6 -14.8,213.1 136.6,413.1 136.2,638.8" style="fill:#ff673e;fill-opacity:1;fill-rule:nonzero;stroke:none" transform="matrix(0.13333333,0,0,-0.13333333,0,2666.6667)" />
      <path id="path19" d="m 24581.7,17220.7 c -51,-194.8 -243.3,-252 -367.8,-394.1 -147.4,-168.1 -20.3,-319.8 -40.2,-504.2 v -234.8 c -1.6,-14.8 0,-30.8 0.1,-45.7 37.4,231.3 273.2,325.6 361.7,524.9 48.6,109.6 3.3,223.1 -3.4,336.4 -6.5,111.4 24.6,211.6 49.6,317.5" style="fill:#ff673e;fill-opacity:1;fill-rule:nonzero;stroke:none" transform="matrix(0.13333333,0,0,-0.13333333,0,2666.6667)" />
      <path id="path20" d="m 21889.3,15823.2 c -4.1,-3.9 -7.9,-7.8 -11.6,-11.8 4,3.9 7.8,7.8 11.6,11.8" style="fill:#ff9b50;fill-opacity:1;fill-rule:nonzero;stroke:none" transform="matrix(0.13333333,0,0,-0.13333333,0,2666.6667)" />
      <path id="path21" d="m 23540.4,15583.7 c 1.2,6 2.2,12.1 3.1,18.3 -1.2,-6.2 -2.2,-12.3 -3.1,-18.3" style="fill:#ff9b50;fill-opacity:1;fill-rule:nonzero;stroke:none" transform="matrix(0.13333333,0,0,-0.13333333,0,2666.6667)" />
      <path id="path22" d="m 24187.8,15369.9 c 7.2,7.9 14.3,15.9 20.8,24.2 -8.1,-7.4 -15,-15.5 -20.8,-24.2" style="fill:#ff9b50;fill-opacity:1;fill-rule:nonzero;stroke:none" transform="matrix(0.13333333,0,0,-0.13333333,0,2666.6667)" />
      <path id="path23" d="m 30724.4,14852 c 0,0 -387.7,-362.7 -593,-331.8 1.2,91.8 46.1,159.5 35.5,257.9 -10.9,101.7 -108.7,192.4 -26.9,282.3 -199.6,-170.3 -380.6,-277.1 -641.3,-341.6 -237.7,-58.8 -337.4,-118.9 -481.8,-319.6 5.7,188.3 158,362.3 161.2,564 3.1,191.2 -137.1,332.2 -150.7,505.3 -87.8,-69.1 -177.7,-136.2 -279.5,-182.5 6.6,68.2 27.6,140.4 45,204.2 -83,-128.4 -226.1,-107.4 -346.6,-153.6 -207.1,-79.5 -264.6,-300.4 -415.8,-443.7 18.7,111.1 124.1,234.6 180.4,335.6 70.1,126 129.7,264 173.6,401.6 51.8,162.2 77.2,322.6 76.9,491.8 -0.2,144 -13.7,244.8 -76.9,373.5 -26.6,54.2 -68.7,131.8 -65.1,198.9 -136,-205.2 -486.2,-327.8 -685.9,-406.2 -247.7,-97.3 -358.7,-165.4 -490.8,-384.8 -22,64.1 -50.4,166.9 -65.2,210.9 -58.6,-505.3 -683.4,-643 -1086.7,-776.9 -305.5,-101.4 -514.2,-235.3 -714.9,-484.3 -23.4,133.9 -25.7,260.6 -67,394.4 -40.5,131.3 -128.8,238.7 -123.6,379.3 -62.1,-144.5 -197.7,-244.4 -278.3,-379.3 -56.9,-95.3 -94.3,-356 -186.3,-393.8 -2.9,50.8 -2.2,103.1 -1.5,154.6 -80.4,-124.1 -98.5,-256.1 -195.9,-378.6 -59.9,-75.3 -123.5,-137.7 -192.2,-197 -17.9,72.3 -38.3,144.5 -54.6,222 -29.6,140.2 -9.4,265 -3.4,394.4 4.6,99.5 -42.2,236.4 14.7,320.9 -74.1,-79.7 -184,-135.8 -245.7,-233.4 -57.6,-91.2 -83.9,-196.4 -146.2,-283.2 55.9,167.6 68.8,247.2 -67,391.3 -113.4,120.3 -213,173.9 -188.5,339.1 -24.3,-124 -112.6,-178.7 -218.6,-237.5 -142.1,-78.8 -232.2,-202.4 -361.8,-293.1 -111.6,-78.2 -235.2,-75.7 -340.7,-164.1 -96.2,-80.4 -158.9,-203.3 -234.8,-304.8 -8.4,126.4 38.4,235.6 25,354.3 -15.4,136.2 -100.7,266.2 -185.3,371.3 -99.6,123.7 -522.7,311.7 -346.5,501.6 -229.7,-225.2 -658.2,-162.1 -749.4,-528.4 -33.7,183.8 -138,328.1 -118.1,533.4 14.7,151.6 102.3,284.7 133.2,431.9 58.2,278 -58.4,576.2 -108.2,836.5 -32.3,-180.3 -29,-296.1 -160.6,-441.1 -135.2,-148.9 -289.7,-246 -457.2,-355.6 -126.4,-82.7 -291.1,-200.6 -342.9,-348.8 -54,-154.3 14.7,-319.8 -87.2,-465.8 -11.6,131.4 29.7,237 -27.2,379.4 -46.8,117 -158.5,199 -110.3,328.9 -103.2,-157.7 -312.6,-217.6 -396.3,-377.7 -99.6,-190.7 -60.3,-419.6 -200.4,-593.5 -167.6,-207.9 -433.7,-233.5 -615.7,-407.8 -167.8,-160.6 -145.5,-352.5 -222.4,-552.6 13.7,167.9 -218.9,369.7 -345.3,450.4 -141.9,90.5 -304.9,93.5 -196.5,294.6 -126.2,-150.2 -277.1,-215.6 -421.1,-340.3 -145.2,-125.6 -246.7,-335.1 -418.5,-419.8 -6.8,125.8 -64.3,237.8 -66.2,356.1 -84.7,-52.7 -174.9,-138.4 -220.8,-229.8 30.5,311.5 -240,590.8 -161.6,882.3 -196.4,-290.5 -464,-524.8 -797.9,-651.5 -232.9,-88.4 -502.5,-46.7 -656.1,-267.5 14.5,119.3 69.4,238.8 72.2,362.9 -48.7,-193.7 -337.7,-281 -455,-429.4 -56.3,-71.2 -3.3,-370.3 121.1,-381.7 h 15556.8 c 0,0 679.6,221.7 298.3,975.5" style="fill:#ff9b50;fill-opacity:1;fill-rule:nonzero;stroke:none" transform="matrix(0.13333333,0,0,-0.13333333,0,2666.6667)" />
      <path id="path24" d="m 28319.4,16694.3 c 17.6,26.6 31.7,54.6 41.3,84 -28,-23.4 -39.6,-52.5 -41.3,-84" style="fill:#ff9b50;fill-opacity:1;fill-rule:nonzero;stroke:none" transform="matrix(0.13333333,0,0,-0.13333333,0,2666.6667)" />
      <path id="path25" d="m 23235.3,14833.3 c 4.5,2.3 9,4.6 13.5,6.9 -4.9,-1.6 -9.4,-3.9 -13.5,-6.9" style="fill:#ffcc4d;fill-opacity:1;fill-rule:nonzero;stroke:none" transform="matrix(0.13333333,0,0,-0.13333333,0,2666.6667)" />
      <path id="path26" d="m 19691.8,15196.5 c 3.3,7.1 6.6,14.2 9.8,21.5 -3.7,-6.9 -6.9,-14.1 -9.8,-21.5" style="fill:#ffcc4d;fill-opacity:1;fill-rule:nonzero;stroke:none" transform="matrix(0.13333333,0,0,-0.13333333,0,2666.6667)" />
      <path id="path27" d="m 27738.5,15707.4 c 13.1,3.5 26.3,6.8 39.6,9.8 -14.7,-2.2 -27.8,-5.5 -39.6,-9.8" style="fill:#ffcc4d;fill-opacity:1;fill-rule:nonzero;stroke:none" transform="matrix(0.13333333,0,0,-0.13333333,0,2666.6667)" />
      <path id="path28" d="m 26152.7,14987.3 c 18.6,0.4 37.3,0.6 56.1,0.6 -22.7,3.8 -41.4,3.1 -56.1,-0.6" style="fill:#ffcc4d;fill-opacity:1;fill-rule:nonzero;stroke:none" transform="matrix(0.13333333,0,0,-0.13333333,0,2666.6667)" />
      <path id="path29" d="m 30303.4,14308.5 c -83.4,-85.7 -213.8,-170 -332.6,-183.7 37.8,79.7 108.8,147.3 -51.5,147 -101.9,-0.2 -206.1,-48.4 -316.7,-50.9 55.1,111.2 65.2,232.3 164.3,322.8 -305.6,10.6 -544,-262.8 -835.9,-309.9 -53.6,-8.6 -106.1,-15.8 -157.9,-23.1 -5.1,4.1 -10.1,8.5 -14.8,13.6 -128.7,137.9 37.2,397.2 34.6,549.8 -43.3,-66.3 -116.1,-96 -173.8,-149.4 -75.5,-69.9 -123.5,-164.1 -204,-228.8 -63.3,-51 -137.3,-91.3 -216.9,-122.5 25.7,79.8 59.8,159.5 68.6,205.1 24.2,126.7 -2.4,320.7 103.8,409 -251.5,-190.5 -610.8,-182.6 -897.7,-307.4 -94,-40.9 -170,-95.2 -230.7,-159.4 -12.5,95.2 28,211.6 118.2,334.2 145.5,198 250.3,386.4 273.8,628.4 11.2,115.7 -24.4,277.9 104.3,324.1 -169.5,-45.2 -320.4,-133.1 -480.2,-215.6 -269.3,-139 -568.7,-263.6 -783.5,-482.6 -83.2,-84.8 -160.4,-167.5 -299.9,-120.2 -74.9,25.4 -78.4,84.2 -22.2,98.3 -152,-3.1 -296.3,-21.3 -434.8,-94.9 -140.2,-74.5 -206.4,-230.4 -348,-309.5 -115.7,-64.5 -243.9,-78.6 -309.6,-198.6 -75,41.6 -33.7,124.2 -49.1,195.8 -17.5,81.2 -70.5,163.8 -95.8,242.8 -111.2,-97.2 -138.8,-264.9 -238.5,-377.2 -76.9,9.7 -63.5,86.4 -48.2,145.6 -145.9,-61.9 -161.9,-242.6 -266.2,-342 -91,-86.7 -303.3,-146.4 -423.3,-101.9 -188,69.5 -181.4,436.3 -100.3,579.1 -51.9,-7.3 -74.4,-45.1 -112.8,-83.7 -99.8,-100.1 -197.9,-200.4 -325.2,-273.6 -145.5,-83.8 -249.7,-152.3 -411.4,-182.9 12.9,120.1 152,239.2 186.4,366.4 20.3,75 3.1,240 59.4,280.6 -185.6,-93.4 -354,-235.6 -528.6,-342.7 -181.9,-111.5 -372.7,-83 -497.6,-288.5 -60.4,91.9 -227.7,197 -247.4,281 34.3,-115.9 15.3,-185.3 -27.2,-296.8 -214.3,138.5 -156,339.9 -145.6,554.5 9.6,198.6 -48.9,347.4 -136.5,514.6 21.5,-236.8 -126,-488.4 -344.1,-574.5 11.9,29.8 9.6,63.8 21.6,95.7 -124.8,-71.4 -184.5,-73.4 -331.1,-94.9 -191.6,-28.1 -280,-130.6 -384.3,-283.2 2.2,138.6 32.6,248.8 50,379.3 21.1,158.6 -28.8,333.2 -77.2,481.9 -56,172.2 -145.1,528.5 -14.3,690.5 -230.6,-178.5 -189.2,-555.4 -365.7,-789 -169.7,-224.3 -469.8,-346 -459.7,-678.9 -129.1,115.8 -105.1,224.2 -81.2,382 15.2,100.5 -12.5,235.3 25.4,332.2 -121.9,-258.1 -333.7,-318.1 -590.5,-452.7 -262.7,-137.7 -441,-227.6 -559.1,-497.3 -41.6,-95.1 -39.3,-123.4 -138.9,-148.3 -65.3,-16.2 -159.8,-15.5 -222.5,-24.7 -118.7,-17.3 -426.6,-76.3 -360.9,122.4 -52.4,-25 -102.7,-76.5 -130.6,-121.5 -77,134.8 -26.9,308.2 54.8,432.1 -211.1,-35 -331.9,-238.6 -514.4,-331.4 -143.8,-73.1 -333.5,-56.1 -480,-112.4 2.4,61.8 14.9,196 45.6,237.5 -131.8,-105.1 -456.6,-119.6 -530.3,-259.4 6.8,38.1 74.6,173.1 26.2,203.8 -46.8,29.8 -154.9,-88.6 -184.4,-108.3 -14.3,84.1 26.4,157.6 23.5,241.8 -44.7,-40.3 -81.1,-79.1 -134.7,-102.2 9.9,79.2 56.6,189.9 83.1,246.7 -167.3,-103.8 -263.3,-200.7 -468,-239 -196.1,-36.7 -271.3,-113.7 -405.6,-233.8 6.6,30.9 -0.8,67.5 8.3,97 -113.1,-50.4 -131.3,-208.9 -22.8,-271 l 15013.1,0.7 c 160.6,98.2 311.1,494.3 307,615.6 -92.7,-18.8 -144,-118.5 -207.3,-183.6" style="fill:#ffcc4d;fill-opacity:1;fill-rule:nonzero;stroke:none" transform="matrix(0.13333333,0,0,-0.13333333,0,2666.6667)" />
      <path id="path30" d="m 22562.8,17883.5 c -14.1,-33.8 -20.8,-65.9 -23.8,-97.5 12.6,29.4 21,61.7 23.8,97.5" style="fill:#ff9b50;fill-opacity:1;fill-rule:nonzero;stroke:none" transform="matrix(0.13333333,0,0,-0.13333333,0,2666.6667)" />
      <path id="path31" d="m 22537,17574.3 c 7,75.7 -4.6,142.4 2,211.7 -78.3,-182.6 -321.2,-255.9 -440.1,-374.2 -97.9,-97.4 -143.4,-357.3 -115.1,-561.8 l 25.3,-222.9 c 45.3,274.1 219.2,426.1 379.3,612.2 82.6,96 136,199.3 148.6,335" style="fill:#ff9b50;fill-opacity:1;fill-rule:nonzero;stroke:none" transform="matrix(0.13333333,0,0,-0.13333333,0,2666.6667)" />
      <path id="path32" d="m 19239.5,17553.9 c -101.3,-102.3 -118.6,-157 -164,-234.5 -61.9,-105.5 -52,-191.2 -58.4,-309.2 -10.1,-184.3 -14.2,-445.5 -131.6,-592.2 203.3,210.1 387.4,270.4 403.4,592.2 13.2,264.8 12.3,531.4 197.7,741.4 l -247.1,-197.7" style="fill:#ff9b50;fill-opacity:1;fill-rule:nonzero;stroke:none" transform="matrix(0.13333333,0,0,-0.13333333,0,2666.6667)" />
      <path id="path33" d="m 26619.8,16989.9 c -82.8,-162.8 -245.9,-393.5 -407.3,-516.4 -136.5,-104 -282.1,-271 -259.4,-460 l 12.3,-148.3 c -4.7,-8 -21.7,-11 -9.5,-16.9 105.8,176.7 275.1,299 426.6,437.1 92.9,84.7 160.1,182.8 176.7,308.8 10.8,82.7 39.2,318.5 60.6,395.7" style="fill:#ff9b50;fill-opacity:1;fill-rule:nonzero;stroke:none" transform="matrix(0.13333333,0,0,-0.13333333,0,2666.6667)" />
      </svg>