G04*
G04 #@! TF.GenerationSoftware,Altium Limited,Altium Designer,24.1.2 (44)*
G04*
G04 Layer_Color=16711935*
%FSLAX44Y44*%
%MOMM*%
G71*
G04*
G04 #@! TF.SameCoordinates,9E7515C4-2DE0-4278-810B-9AA0961F89FC*
G04*
G04*
G04 #@! TF.FilePolarity,Negative*
G04*
G01*
G75*
%ADD51C,1.8000*%
G04:AMPARAMS|DCode=52|XSize=2.0032mm|YSize=1.8032mm|CornerRadius=0.5016mm|HoleSize=0mm|Usage=FLASHONLY|Rotation=180.000|XOffset=0mm|YOffset=0mm|HoleType=Round|Shape=RoundedRectangle|*
%AMROUNDEDRECTD52*
21,1,2.0032,0.8000,0,0,180.0*
21,1,1.0000,1.8032,0,0,180.0*
1,1,1.0032,-0.5000,0.4000*
1,1,1.0032,0.5000,0.4000*
1,1,1.0032,0.5000,-0.4000*
1,1,1.0032,-0.5000,-0.4000*
%
%ADD52ROUNDEDRECTD52*%
%ADD53O,2.0032X1.8032*%
%ADD54O,2.3876X1.7272*%
%ADD55O,1.7272X2.3876*%
G04:AMPARAMS|DCode=56|XSize=2.0032mm|YSize=1.8032mm|CornerRadius=0.5016mm|HoleSize=0mm|Usage=FLASHONLY|Rotation=270.000|XOffset=0mm|YOffset=0mm|HoleType=Round|Shape=RoundedRectangle|*
%AMROUNDEDRECTD56*
21,1,2.0032,0.8000,0,0,270.0*
21,1,1.0000,1.8032,0,0,270.0*
1,1,1.0032,-0.4000,-0.5000*
1,1,1.0032,-0.4000,0.5000*
1,1,1.0032,0.4000,0.5000*
1,1,1.0032,0.4000,-0.5000*
%
%ADD56ROUNDEDRECTD56*%
%ADD57O,1.8032X2.0032*%
%ADD58C,0.8032*%
%ADD59C,1.0032*%
%ADD60C,1.3032*%
D51*
X486410Y595630D02*
D03*
X397210D02*
D03*
X511810D02*
D03*
X371810D02*
D03*
X1123950Y842010D02*
D03*
Y867410D02*
D03*
Y892810D02*
D03*
Y918210D02*
D03*
Y791210D02*
D03*
Y816610D02*
D03*
X566420Y603250D02*
D03*
X591820D02*
D03*
X346710Y805180D02*
D03*
Y779780D02*
D03*
Y712470D02*
D03*
Y687070D02*
D03*
X1051560Y845820D02*
D03*
Y871220D02*
D03*
Y896620D02*
D03*
Y922020D02*
D03*
Y795020D02*
D03*
Y820420D02*
D03*
X873760D02*
D03*
Y845820D02*
D03*
Y871220D02*
D03*
Y896620D02*
D03*
X1123950Y984250D02*
D03*
Y1009650D02*
D03*
Y1035050D02*
D03*
Y1060450D02*
D03*
Y1085850D02*
D03*
Y1111250D02*
D03*
Y1136650D02*
D03*
Y1162050D02*
D03*
Y1187450D02*
D03*
X511810Y1214120D02*
D03*
X537210D02*
D03*
X562610D02*
D03*
X346710Y1007110D02*
D03*
Y981710D02*
D03*
Y914400D02*
D03*
Y889000D02*
D03*
Y1102360D02*
D03*
Y1076960D02*
D03*
X378460Y1214120D02*
D03*
X403860D02*
D03*
X429260D02*
D03*
D52*
X1121410Y647700D02*
D03*
D53*
Y673100D02*
D03*
Y698500D02*
D03*
Y723900D02*
D03*
D54*
X778510Y972820D02*
D03*
Y947420D02*
D03*
Y922274D02*
D03*
X803910Y972820D02*
D03*
Y922020D02*
D03*
Y947420D02*
D03*
D55*
X839470Y619760D02*
D03*
X814070D02*
D03*
X737870D02*
D03*
X839343Y593979D02*
D03*
X813943D02*
D03*
X687070Y619760D02*
D03*
X915670Y594360D02*
D03*
X941070D02*
D03*
X788543Y593979D02*
D03*
X661670Y619760D02*
D03*
X712470D02*
D03*
X864870Y594360D02*
D03*
X737743Y593979D02*
D03*
X712089Y594487D02*
D03*
X686943D02*
D03*
X661543D02*
D03*
X763143Y593979D02*
D03*
X890270Y594360D02*
D03*
X763270Y619760D02*
D03*
X788670D02*
D03*
X864870D02*
D03*
X890270D02*
D03*
X915670D02*
D03*
X941070D02*
D03*
D56*
X1035050Y1220470D02*
D03*
X999490Y603250D02*
D03*
D57*
X1009650Y1220470D02*
D03*
X984250D02*
D03*
X1024890Y603250D02*
D03*
X1050290D02*
D03*
D58*
X796290Y654050D02*
D03*
X751840Y911860D02*
D03*
X800100Y881380D02*
D03*
X828040Y829310D02*
D03*
X770890Y791210D02*
D03*
X701040Y783590D02*
D03*
X728980Y745490D02*
D03*
D59*
X698500Y962660D02*
D03*
X676910Y1203960D02*
D03*
X629920Y1154430D02*
D03*
X577850Y974090D02*
D03*
X674370Y1062990D02*
D03*
X673100Y1088390D02*
D03*
X674370Y1125220D02*
D03*
Y1141730D02*
D03*
X422910Y1055370D02*
D03*
X448310Y890270D02*
D03*
X422910Y957580D02*
D03*
X988060Y1042670D02*
D03*
X980440Y1140460D02*
D03*
X1010920Y1031240D02*
D03*
X897890Y1164590D02*
D03*
X900430Y1203960D02*
D03*
X903210Y1216420D02*
D03*
X939800Y1112520D02*
D03*
X795020Y1103630D02*
D03*
X820420Y1089660D02*
D03*
D60*
X734060Y1206500D02*
D03*
X632460Y1024890D02*
D03*
M02*
