G04*
G04 #@! TF.GenerationSoftware,Altium Limited,Altium Designer,24.1.2 (44)*
G04*
G04 Layer_Physical_Order=1*
G04 Layer_Color=255*
%FSLAX44Y44*%
%MOMM*%
G71*
G04*
G04 #@! TF.SameCoordinates,9E7515C4-2DE0-4278-810B-9AA0961F89FC*
G04*
G04*
G04 #@! TF.FilePolarity,Positive*
G04*
G01*
G75*
%ADD10C,0.2000*%
%ADD11C,0.3000*%
%ADD16C,0.2540*%
%ADD23R,1.4700X1.1600*%
%ADD24R,1.4000X1.2000*%
%ADD25R,1.2000X1.4000*%
%ADD26R,1.2000X1.3000*%
%ADD27R,1.1600X1.4700*%
%ADD28R,1.9000X1.1000*%
%ADD29R,2.5400X1.7780*%
G04:AMPARAMS|DCode=30|XSize=0.6mm|YSize=1.35mm|CornerRadius=0.045mm|HoleSize=0mm|Usage=FLASHONLY|Rotation=270.000|XOffset=0mm|YOffset=0mm|HoleType=Round|Shape=RoundedRectangle|*
%AMROUNDEDRECTD30*
21,1,0.6000,1.2600,0,0,270.0*
21,1,0.5100,1.3500,0,0,270.0*
1,1,0.0900,-0.6300,-0.2550*
1,1,0.0900,-0.6300,0.2550*
1,1,0.0900,0.6300,0.2550*
1,1,0.0900,0.6300,-0.2550*
%
%ADD30ROUNDEDRECTD30*%
%ADD31R,0.8000X1.2000*%
%ADD32O,0.2500X1.5500*%
%ADD33O,1.5500X0.2500*%
%ADD34R,1.5000X0.9000*%
%ADD35R,0.9000X1.5000*%
%ADD36R,0.9000X0.9000*%
%ADD61C,0.5000*%
%ADD62C,1.0000*%
%ADD63C,1.6000*%
G04:AMPARAMS|DCode=64|XSize=1.8mm|YSize=1.6mm|CornerRadius=0.4mm|HoleSize=0mm|Usage=FLASHONLY|Rotation=180.000|XOffset=0mm|YOffset=0mm|HoleType=Round|Shape=RoundedRectangle|*
%AMROUNDEDRECTD64*
21,1,1.8000,0.8000,0,0,180.0*
21,1,1.0000,1.6000,0,0,180.0*
1,1,0.8000,-0.5000,0.4000*
1,1,0.8000,0.5000,0.4000*
1,1,0.8000,0.5000,-0.4000*
1,1,0.8000,-0.5000,-0.4000*
%
%ADD64ROUNDEDRECTD64*%
%ADD65O,1.8000X1.6000*%
%ADD66O,2.1844X1.5240*%
%ADD67O,1.5240X2.1844*%
G04:AMPARAMS|DCode=68|XSize=1.8mm|YSize=1.6mm|CornerRadius=0.4mm|HoleSize=0mm|Usage=FLASHONLY|Rotation=270.000|XOffset=0mm|YOffset=0mm|HoleType=Round|Shape=RoundedRectangle|*
%AMROUNDEDRECTD68*
21,1,1.8000,0.8000,0,0,270.0*
21,1,1.0000,1.6000,0,0,270.0*
1,1,0.8000,-0.4000,-0.5000*
1,1,0.8000,-0.4000,0.5000*
1,1,0.8000,0.4000,0.5000*
1,1,0.8000,0.4000,-0.5000*
%
%ADD68ROUNDEDRECTD68*%
%ADD69O,1.6000X1.8000*%
%ADD70C,0.3500*%
%ADD71C,0.6000*%
%ADD72C,0.8000*%
%ADD73C,1.1000*%
D10*
X509131Y598309D02*
X511810Y595630D01*
X509131Y598309D02*
Y603389D01*
X473710Y638810D02*
X509131Y603389D01*
X803398Y684017D02*
Y695062D01*
X765770Y684570D02*
X796290Y654050D01*
X765770Y684570D02*
Y771280D01*
X472440Y709930D02*
X472538D01*
X472440D02*
X473710Y711200D01*
X472538Y709930D02*
X473710Y708758D01*
X461860Y709930D02*
X472440D01*
X473710Y638810D02*
Y708758D01*
X560260Y900230D02*
X598160Y862330D01*
X662940Y869950D02*
X703860Y829030D01*
X600710Y871122D02*
Y878840D01*
Y871122D02*
X601882Y869950D01*
X662940D01*
X660400Y862330D02*
X698500Y824230D01*
X598160Y862330D02*
X660400D01*
X698500Y796290D02*
X706240Y804030D01*
X723020D01*
X641565Y753280D02*
X697315Y809030D01*
X657198Y812234D02*
X688893D01*
X690689Y814030D02*
X723020D01*
X688893Y812234D02*
X690689Y814030D01*
X697315Y809030D02*
X723020D01*
X679450Y830580D02*
X691000Y819030D01*
X657852Y830580D02*
X679450D01*
X691000Y819030D02*
X723020D01*
X657198Y831234D02*
X657852Y830580D01*
X744882Y918818D02*
X751840Y911860D01*
X744882Y918818D02*
Y928986D01*
X696006Y905510D02*
X704850D01*
X745770Y851780D02*
Y864590D01*
X704850Y905510D02*
X745770Y864590D01*
X790770Y851780D02*
Y872050D01*
X800100Y881380D01*
X781880Y839030D02*
X803520D01*
X741880Y799030D02*
X781880Y839030D01*
X723020Y799030D02*
X741880D01*
X715182Y878868D02*
X735770Y858280D01*
X694690Y900430D02*
X715182Y879938D01*
X735770Y851780D02*
Y858280D01*
X715182Y878868D02*
Y879938D01*
X626110Y900430D02*
X694690D01*
X621360Y905180D02*
X626110Y900430D01*
X616360Y916940D02*
X621360Y911940D01*
Y905180D02*
Y911940D01*
X770770Y791090D02*
X770890Y791210D01*
X770770Y771280D02*
Y791090D01*
X755770Y867530D02*
X784860Y896620D01*
X755770Y851780D02*
Y867530D01*
X701384Y783934D02*
X722924D01*
X723020Y784030D01*
X701040Y783590D02*
X701384Y783934D01*
X728980Y745490D02*
X735770Y752280D01*
Y771280D01*
X836538Y911370D02*
Y929344D01*
X837538Y930344D01*
X821788Y896620D02*
X836538Y911370D01*
X784860Y896620D02*
X821788D01*
X723087Y803963D02*
X733770D01*
X733823Y803910D01*
X723020Y804030D02*
X723087Y803963D01*
X733823Y803910D02*
X737870D01*
X740770Y806810D02*
Y851780D01*
X737870Y803910D02*
X740770Y806810D01*
X785688Y803481D02*
X785770Y803399D01*
X785688Y828868D02*
X790850Y834030D01*
X785770Y771280D02*
Y803399D01*
X785688Y803481D02*
Y828868D01*
X790850Y834030D02*
X803520D01*
Y839030D02*
X816170D01*
X873760Y896620D01*
X1119570Y671260D02*
X1121410Y673100D01*
X830620Y814030D02*
X1024890Y619760D01*
X819110Y809030D02*
X999490Y628650D01*
Y603250D02*
Y628650D01*
X1024890Y603250D02*
Y619760D01*
X803520Y829030D02*
X825780D01*
X803520Y814030D02*
X830620D01*
X803520Y809030D02*
X819110D01*
X802640Y579120D02*
X806450Y575310D01*
X925322D01*
X941070Y591058D01*
X890270Y617220D02*
Y619760D01*
X789940Y732790D02*
X790770Y733620D01*
Y771280D01*
X796290Y676910D02*
X803398Y684017D01*
X783590Y676910D02*
X796290D01*
X773430Y687070D02*
X783590Y676910D01*
X773430Y687070D02*
Y726440D01*
X785770Y738780D01*
Y771280D01*
X755770Y630581D02*
Y771280D01*
X737870Y619760D02*
Y623062D01*
X760770Y678140D02*
Y771280D01*
X750770Y694890D02*
Y771280D01*
X737870Y619760D02*
X739140Y621030D01*
X745770Y712750D02*
Y771280D01*
X739140Y683260D02*
X750770Y694890D01*
X713740Y621030D02*
Y680720D01*
X745770Y712750D01*
X699770Y681990D02*
X740770Y722990D01*
Y771280D01*
X712470Y619760D02*
X713740Y621030D01*
X739140D02*
Y683260D01*
X755770Y630581D02*
X763270Y623081D01*
X760770Y678140D02*
X801370Y637540D01*
Y580292D02*
Y637540D01*
X941070Y591058D02*
Y594360D01*
X801370Y580292D02*
X802542Y579120D01*
X802640D01*
X699770Y585470D02*
X709930Y575310D01*
X699770Y585470D02*
Y681990D01*
X775970Y607060D02*
X788670Y619760D01*
X772258Y575310D02*
X775970Y579022D01*
Y607060D01*
X709930Y575310D02*
X772258D01*
X763270Y619760D02*
Y623081D01*
X691184Y910332D02*
X696006Y905510D01*
X685184Y915332D02*
Y916332D01*
Y915332D02*
X690184Y910332D01*
X691184D01*
X685184Y856596D02*
X707750Y834030D01*
X723020D01*
X685184Y856596D02*
Y885852D01*
X703860Y829030D02*
X723020D01*
X593480Y886070D02*
Y892810D01*
Y886070D02*
X600710Y878840D01*
X556260Y926030D02*
X560260D01*
X593480Y892810D01*
X556260Y900230D02*
X560260D01*
X698500Y824230D02*
X722821D01*
X641565Y751280D02*
Y753280D01*
X473710Y805180D02*
Y825500D01*
X421542Y891680D02*
X422248Y890974D01*
X461860Y803910D02*
X472440D01*
X473710Y805180D01*
Y711200D02*
Y800100D01*
X471610Y802200D02*
X473710Y800100D01*
X461860Y803910D02*
X463570Y802200D01*
X471610D01*
D11*
X842010Y692290D02*
X844410Y694690D01*
X697543Y961703D02*
X698500Y962660D01*
X689684Y952312D02*
X697543Y960171D01*
X689684Y951312D02*
Y952312D01*
X697543Y960171D02*
Y961703D01*
X685184Y946812D02*
X689684Y951312D01*
X565812Y1031438D02*
X568550Y1028700D01*
X593090Y1107300D02*
X605670D01*
X629920Y1131550D01*
Y1133550D01*
X592384Y1108006D02*
X593090Y1107300D01*
X565812Y1108006D02*
X592384D01*
X697390Y1214120D02*
X699690Y1216420D01*
X698180Y1154430D02*
X699690Y1152920D01*
X662940Y1154430D02*
X698180D01*
X645160Y1172210D02*
X662940Y1154430D01*
X445770Y1172210D02*
X645160D01*
X403860Y1214120D02*
X445770Y1172210D01*
X659130Y1184910D02*
X678420Y1165620D01*
X699690D01*
X566420Y1184910D02*
X659130D01*
X537210Y1214120D02*
X566420Y1184910D01*
X699450Y1203960D02*
X699690Y1203720D01*
X676910Y1203960D02*
X699450D01*
X629920Y1133550D02*
Y1154430D01*
X569820Y982120D02*
X577850Y974090D01*
X569820Y982120D02*
Y994410D01*
X673100Y1088390D02*
X674130Y1089420D01*
X699690D01*
X675400Y1064020D02*
X699690D01*
X674370Y1062990D02*
X675400Y1064020D01*
X677940Y1127520D02*
X699690D01*
X676910Y1126490D02*
X677940Y1127520D01*
X674370Y1141730D02*
X675880Y1140220D01*
X699690D01*
X447606Y890974D02*
X448310Y890270D01*
X422248Y890974D02*
X447606D01*
X423518Y958188D02*
Y981144D01*
X422910Y957580D02*
X423518Y958188D01*
X422910Y1055370D02*
X423518Y1055978D01*
Y1080204D01*
X422812Y1080910D02*
X423518Y1080204D01*
X398780Y1080910D02*
X422812D01*
X346710Y1076960D02*
X394830D01*
X398780Y1080910D01*
X346710Y981710D02*
X398640D01*
X398780Y981850D01*
X422812D02*
X423518Y981144D01*
X398780Y981850D02*
X422812D01*
X500996Y993748D02*
Y1028038D01*
X519996D02*
X520658Y1028700D01*
X549050D01*
X519996Y993748D02*
X520658Y994410D01*
X550320D01*
X616360Y962650D02*
Y980390D01*
Y946150D02*
Y962650D01*
X568550Y1028200D02*
X616360Y980390D01*
X568550Y1028200D02*
Y1028700D01*
X616360Y962650D02*
X654050Y1000340D01*
Y1001890D01*
X616360Y916940D02*
Y946150D01*
X803910Y947420D02*
X835614D01*
X837538Y949344D01*
X745448Y947420D02*
X778510D01*
X744882Y947986D02*
X745448Y947420D01*
X956450Y1139900D02*
X979880D01*
X947420D02*
X956450D01*
X979880D02*
X980440Y1140460D01*
X927100Y1042670D02*
X988060D01*
X905510Y1064260D02*
X927100Y1042670D01*
X892810Y1064260D02*
X905510D01*
X892570Y1064020D02*
X892810Y1064260D01*
X874690Y1064020D02*
X892570D01*
X985520Y1094880D02*
X987070Y1093330D01*
X993420Y1076960D02*
X1094740D01*
X987070Y1083310D02*
X993420Y1076960D01*
X987070Y1083310D02*
Y1093330D01*
X1141730Y1027430D02*
Y1068853D01*
X1137676Y1072906D02*
X1141730Y1068853D01*
X1098794Y1072906D02*
X1137676D01*
X1094740Y1076960D02*
X1098794Y1072906D01*
X1011582Y1094086D02*
X1059796D01*
X1089025Y1123315D01*
X1133475D02*
X1137920Y1127760D01*
X1089025Y1123315D02*
X1133475D01*
X1137920Y1127760D02*
Y1148080D01*
X1123950Y1162050D02*
X1137920Y1148080D01*
X864620Y1031240D02*
X1010920D01*
X844340Y1051520D02*
X864620Y1031240D01*
X1021861Y1056310D02*
X1026001Y1060450D01*
X907020Y1076720D02*
X927430Y1056310D01*
X1026001Y1060450D02*
X1123950D01*
X927430Y1056310D02*
X1021861D01*
X874690Y1076720D02*
X907020D01*
X874690Y1165620D02*
X896860D01*
X897890Y1164590D01*
X874930Y1203960D02*
X900430D01*
X874690Y1203720D02*
X874930Y1203960D01*
X874690Y1216420D02*
X903210D01*
X904240Y1215390D01*
X874690Y1114820D02*
X876990Y1112520D01*
X939800D01*
X947420Y1069900D02*
X958990D01*
X983970Y1094880D02*
X985520D01*
X958990Y1069900D02*
X983970Y1094880D01*
X1101090Y1159510D02*
X1123950Y1136650D01*
X917041Y1132220D02*
X944331Y1159510D01*
X1101090D01*
X910350Y1140220D02*
X938530Y1168400D01*
X1024890D02*
X1043940Y1187450D01*
X938530Y1168400D02*
X1024890D01*
X993900Y1178320D02*
X1035050Y1219470D01*
X874690Y1178320D02*
X993900D01*
X983970Y1112380D02*
X985520D01*
X956450Y1139900D02*
X983970Y1112380D01*
X1010876D02*
X1011582Y1113086D01*
X985520Y1112380D02*
X1010876D01*
X874690Y1140220D02*
X910350D01*
X882390Y1132220D02*
X917041D01*
X877690Y1127520D02*
X882390Y1132220D01*
X874690Y1127520D02*
X877690D01*
X1043940Y1187450D02*
X1123950D01*
X1035050Y1219470D02*
Y1220470D01*
X981200Y1191020D02*
X1009650Y1219470D01*
Y1220470D01*
X874690Y1191020D02*
X981200D01*
X873180Y1103630D02*
X874690Y1102120D01*
X795020Y1103630D02*
X873180D01*
X820420Y1089660D02*
X874450D01*
X874690Y1089420D01*
X1122045Y894715D02*
X1123950Y892810D01*
X1051560Y896620D02*
X1053465Y894715D01*
X1122045D01*
X1053465Y869315D02*
X1122045D01*
X1123950Y867410D01*
X1051560Y871220D02*
X1053465Y869315D01*
X844410Y693140D02*
X864870Y672680D01*
Y619760D02*
Y672680D01*
X844410Y693140D02*
Y694690D01*
X820280Y678180D02*
X836930D01*
X842010Y683260D02*
Y692290D01*
X836930Y678180D02*
X842010Y683260D01*
X803770Y693140D02*
Y694690D01*
Y693140D02*
X808070Y688840D01*
X809620D01*
X820280Y678180D01*
X844410Y694690D02*
Y717550D01*
X803398Y695062D02*
X803770Y694690D01*
X803398Y695062D02*
Y717550D01*
X826910Y694690D02*
Y717550D01*
X826770Y717690D02*
X826910Y717550D01*
X826770Y717690D02*
Y730250D01*
X789940Y732790D02*
X824230D01*
X826770Y730250D01*
X785898Y728747D02*
X789940Y732790D01*
X785898Y717550D02*
Y728747D01*
Y695062D02*
X786270Y694690D01*
X785898Y695062D02*
Y717550D01*
X665576Y916940D02*
X666184Y916332D01*
X635860Y916940D02*
X665576D01*
X616360Y885190D02*
Y916940D01*
X635860Y885190D02*
X636522Y885852D01*
X666184D01*
X573403Y798830D02*
Y844550D01*
X590903D02*
X623345D01*
X593443Y801370D02*
X623345D01*
X590903Y798830D02*
X593443Y801370D01*
X656198Y812234D02*
X657198D01*
X645334Y801370D02*
X656198Y812234D01*
X623345Y801370D02*
X645334D01*
X627155Y844550D02*
X640471Y831234D01*
X657198D01*
X623345Y844550D02*
X627155D01*
X604380Y730530D02*
X608680Y734830D01*
X610230D01*
X626680Y751280D01*
X604380Y728980D02*
Y730530D01*
X626680Y751280D02*
X641565D01*
X525640Y925830D02*
X556060D01*
X556260Y926030D01*
X556060Y900430D02*
X556260Y900230D01*
X525640Y900430D02*
X556060D01*
X396100Y889000D02*
X398780Y891680D01*
X346710Y889000D02*
X396100D01*
X398780Y891680D02*
X421542D01*
D16*
X1296408Y1303592D02*
X1300000Y1300000D01*
X1298512Y300000D02*
X1300000Y301488D01*
X300000D02*
X301488Y300000D01*
D23*
X593090Y1089800D02*
D03*
Y1107300D02*
D03*
X398780Y999350D02*
D03*
Y981850D02*
D03*
X985520Y1094880D02*
D03*
Y1112380D02*
D03*
X1070610Y675780D02*
D03*
Y693280D02*
D03*
X398780Y909180D02*
D03*
Y891680D02*
D03*
Y1098410D02*
D03*
Y1080910D02*
D03*
D24*
X565812Y1089006D02*
D03*
Y1108006D02*
D03*
X423518Y1099204D02*
D03*
Y1080204D02*
D03*
Y1000144D02*
D03*
Y981144D02*
D03*
X422248Y909974D02*
D03*
Y890974D02*
D03*
X657198Y831234D02*
D03*
Y812234D02*
D03*
X1011582Y1094086D02*
D03*
Y1113086D02*
D03*
X744882Y928986D02*
D03*
Y947986D02*
D03*
X837538Y949344D02*
D03*
Y930344D02*
D03*
D25*
X500996Y993748D02*
D03*
X519996D02*
D03*
X685184Y946812D02*
D03*
X666184D02*
D03*
X685184Y916332D02*
D03*
X666184D02*
D03*
X685184Y885852D02*
D03*
X666184D02*
D03*
X428644Y790602D02*
D03*
X409644D02*
D03*
X586086Y705458D02*
D03*
X605086D02*
D03*
X428644Y695352D02*
D03*
X409644D02*
D03*
X500996Y1028038D02*
D03*
X519996D02*
D03*
D26*
X569820Y994410D02*
D03*
X550320D02*
D03*
X616360Y946150D02*
D03*
X635860D02*
D03*
X616360Y916940D02*
D03*
X635860D02*
D03*
X616360Y885190D02*
D03*
X635860D02*
D03*
X568550Y1028700D02*
D03*
X549050D02*
D03*
D27*
X525640Y925830D02*
D03*
X508140D02*
D03*
X525640Y900430D02*
D03*
X508140D02*
D03*
X590903Y798830D02*
D03*
X573403D02*
D03*
X590903Y844550D02*
D03*
X573403D02*
D03*
X538340Y814070D02*
D03*
X520840D02*
D03*
X538340Y789940D02*
D03*
X520840D02*
D03*
X427850Y815340D02*
D03*
X410350D02*
D03*
X844410Y717550D02*
D03*
X826910D02*
D03*
X803398D02*
D03*
X785898D02*
D03*
X844410Y694690D02*
D03*
X826910D02*
D03*
X803770D02*
D03*
X786270D02*
D03*
X586880Y728980D02*
D03*
X604380D02*
D03*
X583920Y659130D02*
D03*
X566420D02*
D03*
X537070Y720090D02*
D03*
X519570D02*
D03*
X537070Y695960D02*
D03*
X519570D02*
D03*
X427850Y720090D02*
D03*
X410350D02*
D03*
X671690Y1024890D02*
D03*
X654190D02*
D03*
X671690Y1002030D02*
D03*
X654190D02*
D03*
D28*
X556260Y900230D02*
D03*
Y926030D02*
D03*
D29*
X623345Y844550D02*
D03*
Y801370D02*
D03*
D30*
X485560Y813410D02*
D03*
Y794410D02*
D03*
X461860D02*
D03*
Y803910D02*
D03*
Y813410D02*
D03*
X485560Y719430D02*
D03*
Y700430D02*
D03*
X461860D02*
D03*
Y709930D02*
D03*
Y719430D02*
D03*
D31*
X947420Y1139900D02*
D03*
Y1069900D02*
D03*
X641565Y751280D02*
D03*
Y681280D02*
D03*
X629920Y1133550D02*
D03*
Y1063550D02*
D03*
D32*
X735770Y851780D02*
D03*
X740770D02*
D03*
X745770Y851780D02*
D03*
X750770Y851780D02*
D03*
X755770D02*
D03*
X760770Y851780D02*
D03*
X765770D02*
D03*
X770770Y851780D02*
D03*
X775770D02*
D03*
X780770Y851780D02*
D03*
X785770Y851780D02*
D03*
X790770D02*
D03*
Y771280D02*
D03*
X785770D02*
D03*
X780770Y771280D02*
D03*
X775770Y771280D02*
D03*
X770770D02*
D03*
X765770Y771280D02*
D03*
X760770Y771280D02*
D03*
X755770D02*
D03*
X750770D02*
D03*
X745770Y771280D02*
D03*
X740770Y771280D02*
D03*
X735770D02*
D03*
D33*
X803520Y839030D02*
D03*
Y834030D02*
D03*
X803520Y829030D02*
D03*
X803520Y824030D02*
D03*
Y819030D02*
D03*
X803520Y814030D02*
D03*
Y809030D02*
D03*
X803520Y804030D02*
D03*
Y799030D02*
D03*
X803520Y794030D02*
D03*
X803520Y789030D02*
D03*
Y784030D02*
D03*
X723020D02*
D03*
Y789030D02*
D03*
X723020Y794030D02*
D03*
X723020Y799030D02*
D03*
Y804030D02*
D03*
Y809030D02*
D03*
X723020Y814030D02*
D03*
X723020Y819030D02*
D03*
Y824030D02*
D03*
X723020Y829030D02*
D03*
X723020Y834030D02*
D03*
Y839030D02*
D03*
D34*
X699690Y1064020D02*
D03*
Y1076720D02*
D03*
Y1089420D02*
D03*
Y1102120D02*
D03*
Y1114820D02*
D03*
Y1127520D02*
D03*
Y1140220D02*
D03*
Y1152920D02*
D03*
Y1165620D02*
D03*
Y1178320D02*
D03*
Y1191020D02*
D03*
Y1203720D02*
D03*
Y1216420D02*
D03*
Y1229120D02*
D03*
X874690Y1064020D02*
D03*
Y1076720D02*
D03*
Y1089420D02*
D03*
Y1102120D02*
D03*
Y1114820D02*
D03*
Y1127520D02*
D03*
Y1140220D02*
D03*
Y1152920D02*
D03*
Y1165620D02*
D03*
Y1178320D02*
D03*
Y1191020D02*
D03*
Y1203720D02*
D03*
Y1216420D02*
D03*
Y1229120D02*
D03*
D35*
X793540Y1051520D02*
D03*
X806240D02*
D03*
X818940D02*
D03*
X831640D02*
D03*
X844340D02*
D03*
X780840D02*
D03*
X768140D02*
D03*
X755440D02*
D03*
X742740D02*
D03*
X730040D02*
D03*
D36*
X772190Y1151920D02*
D03*
X758190D02*
D03*
X786190D02*
D03*
X772190Y1165920D02*
D03*
X758190D02*
D03*
X786190D02*
D03*
X772190Y1137920D02*
D03*
X758190D02*
D03*
X786190D02*
D03*
D61*
X984250Y1221470D02*
X1004840Y1242060D01*
X1097280D02*
X1159510Y1179830D01*
X1004840Y1242060D02*
X1097280D01*
X1159510Y1045210D02*
Y1179830D01*
X532130Y595630D02*
X549910Y577850D01*
X511810Y595630D02*
X532130D01*
X542290Y565150D02*
X1029970D01*
X511810Y595630D02*
X542290Y565150D01*
X537070Y695960D02*
Y720090D01*
Y694690D02*
Y695960D01*
Y693140D02*
X538620Y694690D01*
X370840Y655548D02*
X409644Y694352D01*
X370840Y595102D02*
Y655548D01*
X423248Y909974D02*
X459424Y946150D01*
X422248Y909974D02*
X423248D01*
X459424Y946150D02*
X616360D01*
X519570Y668020D02*
Y694690D01*
X409997Y736211D02*
Y790249D01*
Y720443D02*
Y736211D01*
X386915Y1212015D02*
X500996Y1097934D01*
Y1028038D02*
Y1097934D01*
X378460Y1214120D02*
X380565Y1212015D01*
X386915D01*
X675640Y773430D02*
X698500Y796290D01*
X675640Y666750D02*
Y773430D01*
X628650Y619760D02*
X675640Y666750D01*
X628650Y586740D02*
Y619760D01*
X619760Y577850D02*
X628650Y586740D01*
X549910Y577850D02*
X619760D01*
X1123950Y816610D02*
X1150620Y843280D01*
Y957580D01*
X1123950Y984250D02*
X1150620Y957580D01*
X636270Y1024890D02*
X654190D01*
X724140Y1216420D02*
X734060Y1206500D01*
X699690Y1216420D02*
X724140D01*
X565812Y1031438D02*
Y1089006D01*
X671690Y1026440D02*
Y1042810D01*
X650950Y1063550D02*
X671690Y1042810D01*
X629920Y1063550D02*
X650950D01*
X608640Y1074250D02*
Y1075800D01*
Y1074250D02*
X619340Y1063550D01*
X593090Y1089800D02*
X594640D01*
X608640Y1075800D01*
X619340Y1063550D02*
X629920D01*
X728040Y1047750D02*
X730040Y1049750D01*
X671690Y1026440D02*
X693000Y1047750D01*
X728040D01*
X730040Y1049750D02*
Y1051520D01*
X671690Y1024890D02*
Y1026440D01*
X424518Y1000144D02*
X438766D01*
X424518D02*
X428018Y1003644D01*
Y1004644D01*
X453390Y1030016D02*
Y1085850D01*
X423518Y1000144D02*
X424518D01*
X428018Y1004644D02*
X453390Y1030016D01*
X423518Y1099204D02*
X440036D01*
X453390Y1085850D01*
X346710Y1102360D02*
X393280D01*
X397230Y1098410D01*
X398780D01*
X346710Y1182370D02*
X378460Y1214120D01*
X346710Y1102360D02*
Y1182370D01*
X448310Y936036D02*
Y990600D01*
X438766Y1000144D02*
X448310Y990600D01*
X346710Y1007110D02*
X349687D01*
X357447Y999350D01*
X398780D01*
X654050Y991870D02*
Y1000340D01*
Y991870D02*
X662940Y982980D01*
X699770D01*
X712470Y970280D01*
Y923290D02*
Y970280D01*
Y923290D02*
X740410Y895350D01*
X763270D01*
X775074Y918838D02*
X778510Y922274D01*
X775074Y907154D02*
Y918838D01*
X763270Y895350D02*
X775074Y907154D01*
X654050Y1001890D02*
X654190Y1002030D01*
Y1024890D01*
X671690Y1002030D02*
Y1024890D01*
X745998Y1002030D02*
X775208Y972820D01*
X778510D01*
X671690Y1002030D02*
X745998D01*
X778637Y922147D02*
X803783D01*
X778510Y922274D02*
X778637Y922147D01*
X803783D02*
X803910Y922020D01*
X778510Y972820D02*
X803910D01*
X1141730Y1027430D02*
X1159510Y1045210D01*
X1123950Y1009650D02*
X1141730Y1027430D01*
X984250Y1220470D02*
Y1221470D01*
X378460Y1231900D02*
X392430Y1245870D01*
X378460Y1214120D02*
Y1231900D01*
X392430Y1245870D02*
X480060D01*
X511810Y1214120D01*
Y1230630D01*
X525780Y1244600D02*
X651510D01*
X511810Y1230630D02*
X525780Y1244600D01*
X651510D02*
X666990Y1229120D01*
X699690D01*
X874690D01*
X982273Y1220470D02*
X984250D01*
X874690Y1229120D02*
X973623D01*
X982273Y1220470D01*
X1051560Y820420D02*
X1117163D01*
X1120973Y816610D01*
X1123950D01*
X1126055Y814505D01*
X1138755D01*
X1148080Y805180D01*
Y673370D02*
Y805180D01*
X1121410Y647700D02*
X1122410D01*
X1148080Y673370D01*
X1117163Y845820D02*
X1120973Y842010D01*
X1123950D01*
X1051560Y845820D02*
X1117163D01*
X1070610Y675780D02*
X1072160D01*
X1100240Y647700D01*
X1121410D01*
X1070610Y693280D02*
X1072160D01*
X1102780Y723900D02*
X1121410D01*
X1072160Y693280D02*
X1102780Y723900D01*
X1029970Y565150D02*
X1050290Y585470D01*
Y603250D01*
X868680Y739140D02*
X890270Y717550D01*
Y619760D02*
Y717550D01*
X826770Y717690D02*
X830190Y721110D01*
Y732400D01*
X836930Y739140D01*
X868680D01*
X508000Y842010D02*
X532130D01*
X490220D02*
X508000D01*
X508140Y842150D02*
Y900430D01*
X508000Y842010D02*
X508140Y842150D01*
X532130Y842010D02*
X538340Y835800D01*
X473710Y825500D02*
X490220Y842010D01*
X538340Y814070D02*
Y835800D01*
X508140Y900430D02*
Y925830D01*
X349687Y914400D02*
X354907Y909180D01*
X346710Y914400D02*
X349687D01*
X354907Y909180D02*
X398780D01*
X591820Y602485D02*
Y603250D01*
X659130Y670560D01*
Y698500D01*
X641350Y703580D02*
X654050D01*
X659130Y698500D01*
X621030Y683260D02*
X641350Y703580D01*
X594829Y682791D02*
X598971D01*
X599440Y683260D02*
X621030D01*
X586086Y691534D02*
X594829Y682791D01*
X598971D02*
X599440Y683260D01*
X586086Y691534D02*
Y705458D01*
X538620Y694690D02*
X562610D01*
X583320Y673980D01*
Y659730D02*
X583920Y659130D01*
X583320Y659730D02*
Y673980D01*
X619415Y659130D02*
X638064Y677780D01*
X641565Y679280D02*
Y681280D01*
X640064Y677780D02*
X641565Y679280D01*
X638064Y677780D02*
X640064D01*
X583920Y659130D02*
X619415D01*
X566420Y628650D02*
Y659130D01*
Y628650D02*
X591820Y603250D01*
X563120Y663980D02*
X566420Y660680D01*
X561570Y663980D02*
X563120D01*
X566420Y659130D02*
Y660680D01*
X537705Y722275D02*
Y789305D01*
Y722275D02*
X544410Y728980D01*
X537070Y721640D02*
X537705Y722275D01*
X537070Y720090D02*
Y721640D01*
X544410Y728980D02*
X586880D01*
X604733Y705811D02*
X605086Y705458D01*
X604733Y705811D02*
Y728627D01*
X604380Y728980D02*
X604733Y728627D01*
X585003Y704375D02*
X586086Y705458D01*
X537705Y789305D02*
X538340Y789940D01*
Y814070D01*
X485560Y813410D02*
X489310D01*
X489970Y814070D02*
X520840D01*
X489310Y813410D02*
X489970Y814070D01*
X520840Y789940D02*
Y814070D01*
X519570Y694690D02*
Y719760D01*
Y720090D02*
X520205Y720725D01*
X519240Y719760D02*
X519570Y720090D01*
X520205Y720725D02*
Y789305D01*
X520840Y789940D01*
X519570Y650100D02*
Y668020D01*
Y650100D02*
X566420Y603250D01*
X485890Y719760D02*
X519240D01*
X485560Y719430D02*
X485890Y719760D01*
X433320Y838200D02*
X458110Y813410D01*
X461860D01*
X415290Y838200D02*
X433320D01*
X410350Y833260D02*
X415290Y838200D01*
X410350Y815340D02*
Y833260D01*
X441150Y811070D02*
X448310Y803910D01*
X461860D01*
X427850Y814370D02*
X431150Y811070D01*
X441150D01*
X427850Y814370D02*
Y815340D01*
X454302Y790602D02*
X458110Y794410D01*
X461860D01*
X428644Y790602D02*
X454302D01*
X409997Y814987D02*
X410350Y815340D01*
X409997Y790955D02*
Y814987D01*
X409644Y790602D02*
X409997Y790955D01*
Y720443D02*
X410350Y720090D01*
X409644Y790602D02*
X409997Y790249D01*
X458110Y719430D02*
X461860D01*
X413279Y739140D02*
X438400D01*
X410350Y720090D02*
Y736211D01*
X438400Y739140D02*
X458110Y719430D01*
X410350Y736211D02*
X413279Y739140D01*
X447040Y709930D02*
X461860D01*
X427850Y719120D02*
Y720090D01*
Y719120D02*
X431150Y715820D01*
X441150D01*
X447040Y709930D01*
X428644Y695352D02*
X453032D01*
X458110Y700430D01*
X461860D01*
X409997Y695705D02*
Y719737D01*
X410350Y720090D01*
X409644Y695352D02*
X409997Y695705D01*
X409644Y694352D02*
Y695352D01*
D62*
X369570Y731520D02*
Y787400D01*
X352938Y804032D02*
X369570Y787400D01*
X359959Y721909D02*
X369570Y731520D01*
X346710Y805180D02*
X347858Y804032D01*
X352938D01*
X357772Y721909D02*
X359959D01*
X346710Y712470D02*
X348334D01*
X357772Y721909D01*
X328576Y703580D02*
X345086Y687070D01*
X322580Y709438D02*
X328438Y703580D01*
X328576D01*
X322580Y709438D02*
Y755650D01*
X345086Y687070D02*
X346710D01*
X322580Y755650D02*
X346710Y779780D01*
D63*
X486410Y595630D02*
D03*
X397210D02*
D03*
X511810D02*
D03*
X371810D02*
D03*
X1123950Y842010D02*
D03*
Y867410D02*
D03*
Y892810D02*
D03*
Y918210D02*
D03*
Y791210D02*
D03*
Y816610D02*
D03*
X566420Y603250D02*
D03*
X591820D02*
D03*
X346710Y805180D02*
D03*
Y779780D02*
D03*
Y712470D02*
D03*
Y687070D02*
D03*
X1051560Y845820D02*
D03*
Y871220D02*
D03*
Y896620D02*
D03*
Y922020D02*
D03*
Y795020D02*
D03*
Y820420D02*
D03*
X873760D02*
D03*
Y845820D02*
D03*
Y871220D02*
D03*
Y896620D02*
D03*
X1123950Y984250D02*
D03*
Y1009650D02*
D03*
Y1035050D02*
D03*
Y1060450D02*
D03*
Y1085850D02*
D03*
Y1111250D02*
D03*
Y1136650D02*
D03*
Y1162050D02*
D03*
Y1187450D02*
D03*
X511810Y1214120D02*
D03*
X537210D02*
D03*
X562610D02*
D03*
X346710Y1007110D02*
D03*
Y981710D02*
D03*
Y914400D02*
D03*
Y889000D02*
D03*
Y1102360D02*
D03*
Y1076960D02*
D03*
X378460Y1214120D02*
D03*
X403860D02*
D03*
X429260D02*
D03*
D64*
X1121410Y647700D02*
D03*
D65*
Y673100D02*
D03*
Y698500D02*
D03*
Y723900D02*
D03*
D66*
X778510Y972820D02*
D03*
Y947420D02*
D03*
Y922274D02*
D03*
X803910Y972820D02*
D03*
Y922020D02*
D03*
Y947420D02*
D03*
D67*
X839470Y619760D02*
D03*
X814070D02*
D03*
X737870D02*
D03*
X839343Y593979D02*
D03*
X813943D02*
D03*
X687070Y619760D02*
D03*
X915670Y594360D02*
D03*
X941070D02*
D03*
X788543Y593979D02*
D03*
X661670Y619760D02*
D03*
X712470D02*
D03*
X864870Y594360D02*
D03*
X737743Y593979D02*
D03*
X712089Y594487D02*
D03*
X686943D02*
D03*
X661543D02*
D03*
X763143Y593979D02*
D03*
X890270Y594360D02*
D03*
X763270Y619760D02*
D03*
X788670D02*
D03*
X864870D02*
D03*
X890270D02*
D03*
X915670D02*
D03*
X941070D02*
D03*
D68*
X1035050Y1220470D02*
D03*
X999490Y603250D02*
D03*
D69*
X1009650Y1220470D02*
D03*
X984250D02*
D03*
X1024890Y603250D02*
D03*
X1050290D02*
D03*
D70*
X772190Y1144920D02*
D03*
Y1158920D02*
D03*
X765190Y1151920D02*
D03*
X779190D02*
D03*
X758190Y1158920D02*
D03*
X786190D02*
D03*
X758190Y1144920D02*
D03*
X786190D02*
D03*
X765190Y1165920D02*
D03*
X779190D02*
D03*
X765190Y1137920D02*
D03*
X779190D02*
D03*
D71*
X796290Y654050D02*
D03*
X751840Y911860D02*
D03*
X800100Y881380D02*
D03*
X828040Y829310D02*
D03*
X770890Y791210D02*
D03*
X701040Y783590D02*
D03*
X728980Y745490D02*
D03*
D72*
X698500Y962660D02*
D03*
X676910Y1203960D02*
D03*
X629920Y1154430D02*
D03*
X577850Y974090D02*
D03*
X674370Y1062990D02*
D03*
X673100Y1088390D02*
D03*
X674370Y1125220D02*
D03*
Y1141730D02*
D03*
X422910Y1055370D02*
D03*
X448310Y890270D02*
D03*
X422910Y957580D02*
D03*
X988060Y1042670D02*
D03*
X980440Y1140460D02*
D03*
X1010920Y1031240D02*
D03*
X897890Y1164590D02*
D03*
X900430Y1203960D02*
D03*
X903210Y1216420D02*
D03*
X939800Y1112520D02*
D03*
X795020Y1103630D02*
D03*
X820420Y1089660D02*
D03*
D73*
X734060Y1206500D02*
D03*
X632460Y1024890D02*
D03*
M02*
