G04*
G04 #@! TF.GenerationSoftware,Altium Limited,Altium Designer,24.1.2 (44)*
G04*
G04 Layer_Color=8421504*
%FSLAX44Y44*%
%MOMM*%
G71*
G04*
G04 #@! TF.SameCoordinates,9E7515C4-2DE0-4278-810B-9AA0961F89FC*
G04*
G04*
G04 #@! TF.FilePolarity,Positive*
G04*
G01*
G75*
%ADD23R,1.4700X1.1600*%
%ADD24R,1.4000X1.2000*%
%ADD25R,1.2000X1.4000*%
%ADD26R,1.2000X1.3000*%
%ADD27R,1.1600X1.4700*%
%ADD28R,1.9000X1.1000*%
%ADD29R,2.5400X1.7780*%
G04:AMPARAMS|DCode=30|XSize=0.6mm|YSize=1.35mm|CornerRadius=0.045mm|HoleSize=0mm|Usage=FLASHONLY|Rotation=270.000|XOffset=0mm|YOffset=0mm|HoleType=Round|Shape=RoundedRectangle|*
%AMROUNDEDRECTD30*
21,1,0.6000,1.2600,0,0,270.0*
21,1,0.5100,1.3500,0,0,270.0*
1,1,0.0900,-0.6300,-0.2550*
1,1,0.0900,-0.6300,0.2550*
1,1,0.0900,0.6300,0.2550*
1,1,0.0900,0.6300,-0.2550*
%
%ADD30ROUNDEDRECTD30*%
%ADD31R,0.8000X1.2000*%
%ADD32O,0.2500X1.5500*%
%ADD33O,1.5500X0.2500*%
%ADD34R,1.5000X0.9000*%
%ADD35R,0.9000X1.5000*%
%ADD36R,0.9000X0.9000*%
D23*
X593090Y1089800D02*
D03*
Y1107300D02*
D03*
X398780Y999350D02*
D03*
Y981850D02*
D03*
X985520Y1094880D02*
D03*
Y1112380D02*
D03*
X1070610Y675780D02*
D03*
Y693280D02*
D03*
X398780Y909180D02*
D03*
Y891680D02*
D03*
Y1098410D02*
D03*
Y1080910D02*
D03*
D24*
X565812Y1089006D02*
D03*
Y1108006D02*
D03*
X423518Y1099204D02*
D03*
Y1080204D02*
D03*
Y1000144D02*
D03*
Y981144D02*
D03*
X422248Y909974D02*
D03*
Y890974D02*
D03*
X657198Y831234D02*
D03*
Y812234D02*
D03*
X1011582Y1094086D02*
D03*
Y1113086D02*
D03*
X744882Y928986D02*
D03*
Y947986D02*
D03*
X837538Y949344D02*
D03*
Y930344D02*
D03*
D25*
X500996Y993748D02*
D03*
X519996D02*
D03*
X685184Y946812D02*
D03*
X666184D02*
D03*
X685184Y916332D02*
D03*
X666184D02*
D03*
X685184Y885852D02*
D03*
X666184D02*
D03*
X428644Y790602D02*
D03*
X409644D02*
D03*
X586086Y705458D02*
D03*
X605086D02*
D03*
X428644Y695352D02*
D03*
X409644D02*
D03*
X500996Y1028038D02*
D03*
X519996D02*
D03*
D26*
X569820Y994410D02*
D03*
X550320D02*
D03*
X616360Y946150D02*
D03*
X635860D02*
D03*
X616360Y916940D02*
D03*
X635860D02*
D03*
X616360Y885190D02*
D03*
X635860D02*
D03*
X568550Y1028700D02*
D03*
X549050D02*
D03*
D27*
X525640Y925830D02*
D03*
X508140D02*
D03*
X525640Y900430D02*
D03*
X508140D02*
D03*
X590903Y798830D02*
D03*
X573403D02*
D03*
X590903Y844550D02*
D03*
X573403D02*
D03*
X538340Y814070D02*
D03*
X520840D02*
D03*
X538340Y789940D02*
D03*
X520840D02*
D03*
X427850Y815340D02*
D03*
X410350D02*
D03*
X844410Y717550D02*
D03*
X826910D02*
D03*
X803398D02*
D03*
X785898D02*
D03*
X844410Y694690D02*
D03*
X826910D02*
D03*
X803770D02*
D03*
X786270D02*
D03*
X586880Y728980D02*
D03*
X604380D02*
D03*
X583920Y659130D02*
D03*
X566420D02*
D03*
X537070Y720090D02*
D03*
X519570D02*
D03*
X537070Y695960D02*
D03*
X519570D02*
D03*
X427850Y720090D02*
D03*
X410350D02*
D03*
X671690Y1024890D02*
D03*
X654190D02*
D03*
X671690Y1002030D02*
D03*
X654190D02*
D03*
D28*
X556260Y900230D02*
D03*
Y926030D02*
D03*
D29*
X623345Y844550D02*
D03*
Y801370D02*
D03*
D30*
X485560Y813410D02*
D03*
Y794410D02*
D03*
X461860D02*
D03*
Y803910D02*
D03*
Y813410D02*
D03*
X485560Y719430D02*
D03*
Y700430D02*
D03*
X461860D02*
D03*
Y709930D02*
D03*
Y719430D02*
D03*
D31*
X947420Y1139900D02*
D03*
Y1069900D02*
D03*
X641565Y751280D02*
D03*
Y681280D02*
D03*
X629920Y1133550D02*
D03*
Y1063550D02*
D03*
D32*
X735770Y851780D02*
D03*
X740770D02*
D03*
X745770Y851780D02*
D03*
X750770Y851780D02*
D03*
X755770D02*
D03*
X760770Y851780D02*
D03*
X765770D02*
D03*
X770770Y851780D02*
D03*
X775770D02*
D03*
X780770Y851780D02*
D03*
X785770Y851780D02*
D03*
X790770D02*
D03*
Y771280D02*
D03*
X785770D02*
D03*
X780770Y771280D02*
D03*
X775770Y771280D02*
D03*
X770770D02*
D03*
X765770Y771280D02*
D03*
X760770Y771280D02*
D03*
X755770D02*
D03*
X750770D02*
D03*
X745770Y771280D02*
D03*
X740770Y771280D02*
D03*
X735770D02*
D03*
D33*
X803520Y839030D02*
D03*
Y834030D02*
D03*
X803520Y829030D02*
D03*
X803520Y824030D02*
D03*
Y819030D02*
D03*
X803520Y814030D02*
D03*
Y809030D02*
D03*
X803520Y804030D02*
D03*
Y799030D02*
D03*
X803520Y794030D02*
D03*
X803520Y789030D02*
D03*
Y784030D02*
D03*
X723020D02*
D03*
Y789030D02*
D03*
X723020Y794030D02*
D03*
X723020Y799030D02*
D03*
Y804030D02*
D03*
Y809030D02*
D03*
X723020Y814030D02*
D03*
X723020Y819030D02*
D03*
Y824030D02*
D03*
X723020Y829030D02*
D03*
X723020Y834030D02*
D03*
Y839030D02*
D03*
D34*
X699690Y1064020D02*
D03*
Y1076720D02*
D03*
Y1089420D02*
D03*
Y1102120D02*
D03*
Y1114820D02*
D03*
Y1127520D02*
D03*
Y1140220D02*
D03*
Y1152920D02*
D03*
Y1165620D02*
D03*
Y1178320D02*
D03*
Y1191020D02*
D03*
Y1203720D02*
D03*
Y1216420D02*
D03*
Y1229120D02*
D03*
X874690Y1064020D02*
D03*
Y1076720D02*
D03*
Y1089420D02*
D03*
Y1102120D02*
D03*
Y1114820D02*
D03*
Y1127520D02*
D03*
Y1140220D02*
D03*
Y1152920D02*
D03*
Y1165620D02*
D03*
Y1178320D02*
D03*
Y1191020D02*
D03*
Y1203720D02*
D03*
Y1216420D02*
D03*
Y1229120D02*
D03*
D35*
X793540Y1051520D02*
D03*
X806240D02*
D03*
X818940D02*
D03*
X831640D02*
D03*
X844340D02*
D03*
X780840D02*
D03*
X768140D02*
D03*
X755440D02*
D03*
X742740D02*
D03*
X730040D02*
D03*
D36*
X772190Y1151920D02*
D03*
X758190D02*
D03*
X786190D02*
D03*
X772190Y1165920D02*
D03*
X758190D02*
D03*
X786190D02*
D03*
X772190Y1137920D02*
D03*
X758190D02*
D03*
X786190D02*
D03*
M02*
