M48
;Layer_Color=9474304
;FILE_FORMAT=4:4
METRIC,LZ
;TYPE=PLATED
T01F00S00C0.3000
T02F00S00C0.4000
T03F00S00C0.5500
T04F00S00C0.9144
T05F00S00C1.0000
T06F00S00C1.0200
%
T01
X0079629Y0065405
X0072898Y0074549
X0070104Y0078359
X0077089Y0079121
X0075184Y0091186
X0076519Y0113792
X0075819Y0114492
X0077219
Y0115892
X0077919Y0115192
X0076519
X0075819Y0115892
X0076519Y0116592
X0077919
X0078619Y0115892
Y0114492
X0077919Y0113792
X008001Y0088138
X0082804Y0082931
T02
X0044831Y0089027
X0042291Y0095758
Y0105537
X0057785Y0097409
X006985Y0096266
X0067437Y0106299
X006731Y0108839
X0067437Y0112522
Y0114173
X0062992Y0115443
X0079502Y0110363
X0082042Y0108966
X009398Y0111252
X0098044Y0114046
X0098806Y0104267
X0101092Y0103124
X0089789Y0116459
X0090043Y0120396
X0090321Y0121642
X0067691Y0120396
T03
X0063246Y0102489
X0073406Y012065
T04
X00813943Y00593979
X00839343
X0083947Y0061976
X0081407
X0086487
Y0059436
X0089027
X0091567
X0094107
Y0061976
X0091567
X0089027
X0078867
X0076327
X0073787
X0071247
X0068707
X0066167
X00661543Y00594487
X00686943
X00712089
X00737743Y00593979
X00763143
X00788543
X0077851Y00922274
Y0094742
Y0097282
X0080391
Y0094742
Y0092202
T05
X0099949Y0060325
X0102489
X0105029
X0112141Y006477
Y006731
Y006985
Y007239
X0103505Y0122047
X0100965
X0098425
T06
X0112395Y0079121
X0059182Y0060325
X0056642
X0051181Y0059563
X0048641
X0039721
X0037181
X0034671Y0068707
Y0071247
Y0077978
Y0080518
Y00889
Y009144
Y0098171
Y0100711
Y0107696
Y0110236
X0087376Y0089662
Y0087122
Y0084582
Y0082042
X0105156
Y0084582
Y0087122
Y0089662
Y0092202
X0112395Y0091821
Y0089281
Y0086741
Y0084201
Y0081661
X0105156Y0079502
X0112395Y0098425
Y0100965
Y0103505
Y0106045
Y0108585
Y0111125
Y0113665
Y0116205
Y0118745
X0056261Y0121412
X0053721
X0051181
X0042926
X0040386
X0037846
M30
