G04*
G04 #@! TF.GenerationSoftware,Altium Limited,Altium Designer,24.1.2 (44)*
G04*
G04 Layer_Physical_Order=1*
G04 Layer_Color=255*
%FSLAX44Y44*%
%MOMM*%
G71*
G04*
G04 #@! TF.SameCoordinates,F76812B4-4960-4A8F-8B2A-70901E51660E*
G04*
G04*
G04 #@! TF.FilePolarity,Positive*
G04*
G01*
G75*
%ADD10C,0.2000*%
%ADD17C,0.3000*%
%ADD23R,0.8000X1.2000*%
%ADD24R,1.2000X1.4000*%
%ADD25R,1.1600X1.4700*%
%ADD26R,1.9000X1.1000*%
%ADD27R,1.2000X1.3000*%
%ADD28R,1.5494X0.6096*%
%ADD29R,1.4700X1.1600*%
G04:AMPARAMS|DCode=30|XSize=0.6mm|YSize=1.35mm|CornerRadius=0.045mm|HoleSize=0mm|Usage=FLASHONLY|Rotation=180.000|XOffset=0mm|YOffset=0mm|HoleType=Round|Shape=RoundedRectangle|*
%AMROUNDEDRECTD30*
21,1,0.6000,1.2600,0,0,180.0*
21,1,0.5100,1.3500,0,0,180.0*
1,1,0.0900,-0.2550,0.6300*
1,1,0.0900,0.2550,0.6300*
1,1,0.0900,0.2550,-0.6300*
1,1,0.0900,-0.2550,-0.6300*
%
%ADD30ROUNDEDRECTD30*%
%ADD31R,7.4600X6.4700*%
G04:AMPARAMS|DCode=32|XSize=0.25mm|YSize=1.55mm|CornerRadius=0mm|HoleSize=0mm|Usage=FLASHONLY|Rotation=315.000|XOffset=0mm|YOffset=0mm|HoleType=Round|Shape=Round|*
%AMOVALD32*
21,1,1.3000,0.2500,0.0000,0.0000,45.0*
1,1,0.2500,-0.4596,-0.4596*
1,1,0.2500,0.4596,0.4596*
%
%ADD32OVALD32*%

G04:AMPARAMS|DCode=33|XSize=0.25mm|YSize=1.55mm|CornerRadius=0mm|HoleSize=0mm|Usage=FLASHONLY|Rotation=45.000|XOffset=0mm|YOffset=0mm|HoleType=Round|Shape=Round|*
%AMOVALD33*
21,1,1.3000,0.2500,0.0000,0.0000,135.0*
1,1,0.2500,0.4596,-0.4596*
1,1,0.2500,-0.4596,0.4596*
%
%ADD33OVALD33*%

%ADD34R,2.5400X1.7780*%
%ADD58C,0.5000*%
%ADD59C,1.0000*%
%ADD60O,2.1844X1.5240*%
%ADD61C,1.6000*%
%ADD62R,4.0640X2.5400*%
%ADD63R,2.5400X4.0640*%
%ADD64O,1.6000X1.8000*%
G04:AMPARAMS|DCode=65|XSize=1.8mm|YSize=1.6mm|CornerRadius=0.4mm|HoleSize=0mm|Usage=FLASHONLY|Rotation=90.000|XOffset=0mm|YOffset=0mm|HoleType=Round|Shape=RoundedRectangle|*
%AMROUNDEDRECTD65*
21,1,1.8000,0.8000,0,0,90.0*
21,1,1.0000,1.6000,0,0,90.0*
1,1,0.8000,0.4000,0.5000*
1,1,0.8000,0.4000,-0.5000*
1,1,0.8000,-0.4000,-0.5000*
1,1,0.8000,-0.4000,0.5000*
%
%ADD65ROUNDEDRECTD65*%
%ADD66O,1.5240X2.1844*%
%ADD67C,2.3900*%
%ADD68C,3.4500*%
%ADD69C,3.2000*%
%ADD70C,0.6000*%
%ADD71C,1.0000*%
G36*
X187071Y73754D02*
X202565D01*
Y106266D01*
X187071D01*
Y73754D01*
D02*
G37*
D10*
X454923Y123072D02*
G03*
X461046Y109024I20869J738D01*
G01*
X534671Y289403D02*
G03*
X534672Y289406I-3326J902D01*
G01*
X531345Y286860D02*
G03*
X534671Y289403I0J3446D01*
G01*
X394465Y220879D02*
X398981D01*
X399691Y220170D02*
X436535D01*
X398981Y220879D02*
X399691Y220170D01*
X393700Y221645D02*
X394465Y220879D01*
X436535Y220170D02*
X444751Y211953D01*
X454837Y126226D02*
X465965Y137354D01*
X454837Y125360D02*
Y126226D01*
Y125360D02*
X454923Y123072D01*
X461046Y109024D02*
X495427Y74643D01*
X398780Y112595D02*
X444751Y158567D01*
X398780Y105250D02*
Y112595D01*
X407480Y79329D02*
X408320Y80169D01*
X407480Y39605D02*
Y79329D01*
X408320Y115065D02*
X448286Y155031D01*
X408320Y80169D02*
Y115065D01*
X642059Y162705D02*
X646174Y158590D01*
X637035Y162705D02*
X642059D01*
X633340Y166400D02*
X637035Y162705D01*
X455860Y197960D02*
X487531Y229631D01*
X451673Y197960D02*
X455860D01*
X534672Y289406D02*
X536590Y296776D01*
X534671Y289403D02*
X534672Y289406D01*
X512619Y286860D02*
X531345D01*
X448310Y97630D02*
Y124252D01*
Y126417D01*
X441216Y208418D02*
X451673Y197960D01*
X360680Y200500D02*
X361950D01*
X332740D02*
X360680D01*
X568556Y82800D02*
Y116433D01*
X515816Y169173D02*
X527994Y156994D01*
X527994Y156994D02*
X568556Y116433D01*
X650240Y112870D02*
X690880D01*
X707296Y129286D01*
Y180274D01*
X692150Y195420D02*
X707296Y180274D01*
X576180Y174230D02*
X629920D01*
X571500Y178910D02*
X576180Y174230D01*
X638420Y124690D02*
X650240Y112870D01*
X638420Y124690D02*
Y143930D01*
X717280Y106520D02*
X772160Y51640D01*
X601980Y111600D02*
X607060Y106520D01*
X717280D01*
X693420Y156050D02*
Y164940D01*
X688340Y170020D02*
X693420Y164940D01*
X677900Y170020D02*
X688340D01*
X624840Y175300D02*
X628840D01*
X633340Y170800D01*
Y166400D02*
Y170800D01*
X568960Y162400D02*
X582930Y148430D01*
X535461Y163670D02*
X540370D01*
X522887Y176245D02*
X535461Y163670D01*
X538550Y153510D02*
X539750D01*
X519351Y172709D02*
X538550Y153510D01*
X522886Y176245D02*
X522887D01*
X447210Y124252D02*
X448310D01*
X438247Y132009D02*
Y137920D01*
X438162Y131924D02*
X438247Y132009D01*
X378460Y217010D02*
X388435D01*
X390801Y214645D01*
X410080D01*
X411587Y216152D01*
X433482D01*
X384810Y208120D02*
X385892D01*
X388432Y210660D01*
X433482Y216152D02*
X441216Y208418D01*
X361950Y200500D02*
X378460Y217010D01*
X431549Y210660D02*
X437327Y204882D01*
X437680D01*
X388432Y210660D02*
X431549D01*
X386080Y303370D02*
X386324Y303126D01*
X480403D01*
X483996Y233166D02*
Y233167D01*
X494403Y243574D01*
X432568Y240355D02*
X437209D01*
X430530Y250030D02*
X431295Y249265D01*
X435724D01*
X431803Y241120D02*
X432568Y240355D01*
X633920Y148430D02*
X638420Y143930D01*
X629920Y148430D02*
X633920D01*
X677900Y195420D02*
X692150D01*
X437209Y240355D02*
X455004Y222560D01*
X455358D01*
X435724Y249265D02*
X458893Y226096D01*
X332740Y265270D02*
X426436D01*
X462076Y229631D01*
X582930Y148430D02*
X629920D01*
X558800Y138270D02*
Y203237D01*
X533373Y204408D02*
X557628D01*
X558800Y203237D01*
Y138270D02*
X647700Y49370D01*
X495427Y71341D02*
Y74643D01*
X544830Y210660D02*
X568960D01*
X579141Y200479D01*
X438247Y137920D02*
X451822Y151496D01*
X598216Y234790D02*
X617220D01*
X596284Y236722D02*
X598216Y234790D01*
X523240Y232250D02*
X544830Y210660D01*
X498138Y219024D02*
X511363Y232250D01*
Y232250D01*
X523240D01*
X535106Y303126D02*
X536590Y296776D01*
X497903Y301576D02*
X512619Y286860D01*
X497903Y240004D02*
Y301576D01*
Y303126D01*
X318820Y219550D02*
X323820Y214550D01*
Y209420D02*
Y214550D01*
Y209420D02*
X332740Y200500D01*
X395280Y207160D02*
X414189D01*
X427074Y194275D01*
X353060Y164940D02*
X395280Y207160D01*
X320090Y277920D02*
Y286860D01*
Y277920D02*
X332740Y265270D01*
X462076Y229631D02*
X462429D01*
X487531D02*
Y229632D01*
X497903Y240004D01*
X480403Y282707D02*
X494403Y268707D01*
Y243574D02*
Y268707D01*
X480403Y282707D02*
Y303126D01*
X408914Y158085D02*
X427074Y176245D01*
X403860Y157320D02*
X404625Y158085D01*
X427074Y176245D02*
X427074D01*
X404625Y158085D02*
X408914D01*
X383438Y125892D02*
X430255Y172709D01*
X352443Y125892D02*
X383438D01*
X353060Y143350D02*
Y164940D01*
X622300Y98900D02*
X695311D01*
X761351Y32860D01*
X780780D01*
X797560Y49640D01*
Y50640D01*
X772160D02*
Y51640D01*
X525717Y196753D02*
X533373Y204408D01*
X661100Y36370D02*
X673100Y48370D01*
Y49370D01*
X614986Y36370D02*
X661100D01*
X568556Y82800D02*
X614986Y36370D01*
X470027Y71341D02*
Y75913D01*
X448310Y97630D02*
X470027Y75913D01*
X448310Y126417D02*
X462429Y140535D01*
Y140889D01*
X394513Y26638D02*
X407480Y39605D01*
X546227Y42639D02*
Y45941D01*
X312941Y30638D02*
X373113D01*
X305626Y37953D02*
X312941Y30638D01*
X292100Y42766D02*
Y46068D01*
Y42766D02*
X308228Y26638D01*
X394513D01*
X305626Y37953D02*
Y79075D01*
X368427Y71341D02*
Y88961D01*
X441216Y161749D02*
Y162102D01*
X368427Y88961D02*
X441216Y161749D01*
X349218Y77176D02*
X437680Y165638D01*
X348862Y77176D02*
X349218D01*
X343027Y71341D02*
X348862Y77176D01*
X317627Y74643D02*
X363779Y120795D01*
X317627Y71341D02*
Y74643D01*
X385766Y120795D02*
X434144Y169173D01*
X363779Y120795D02*
X385766D01*
X382080Y39605D02*
Y56292D01*
X393827Y68039D02*
Y71341D01*
X382080Y56292D02*
X393827Y68039D01*
X373113Y30638D02*
X382080Y39605D01*
X305626Y79075D02*
X352443Y125892D01*
X430255Y172709D02*
X430609D01*
D17*
X402590Y233520D02*
X408940Y227170D01*
X734764Y205014D02*
Y206146D01*
Y185922D02*
Y205014D01*
X718820Y222090D02*
X734764Y206146D01*
X408940Y227170D02*
X436605D01*
X426257Y236060D02*
X430647Y231670D01*
X415290Y236060D02*
X426257D01*
X430647Y231670D02*
X439177D01*
X436605Y227170D02*
X448286Y215489D01*
X439177Y231670D02*
X451822Y219024D01*
X720744Y253186D02*
X721360Y252570D01*
X680720Y253840D02*
Y260637D01*
X683963Y263880D01*
X697244D01*
X701744Y268380D02*
Y268472D01*
X697244Y263880D02*
X701744Y268380D01*
Y254406D02*
Y268380D01*
X720744Y253186D02*
Y268472D01*
X711200Y244950D02*
X728980D01*
X701744Y254406D02*
X711200Y244950D01*
X728980D02*
X736600Y252570D01*
Y295330D01*
X698596Y271620D02*
X701744Y268472D01*
X713990Y294090D02*
X716140Y291940D01*
X711840D02*
X713990Y294090D01*
X711840Y285626D02*
Y291940D01*
X690976Y280090D02*
X706304D01*
X670330Y300736D02*
X690976Y280090D01*
X670330Y300736D02*
Y307410D01*
X662940Y314800D02*
X670330Y307410D01*
X659130Y314800D02*
X662940D01*
X706304Y280090D02*
X711840Y285626D01*
X697370Y293210D02*
X698640Y291940D01*
X697370Y293210D02*
Y318610D01*
X659130Y271620D02*
X698596D01*
X714870Y317060D02*
X736600Y295330D01*
X714870Y317060D02*
Y318610D01*
X716140Y290390D02*
X720744Y285786D01*
X716140Y290390D02*
Y291940D01*
X720744Y268472D02*
Y285786D01*
X659130Y314800D02*
X666520Y307410D01*
X557530Y257476D02*
X577284Y237722D01*
X557530Y257476D02*
Y276700D01*
X577284Y236722D02*
Y237722D01*
X586558Y282360D02*
X598678Y294480D01*
X563190Y282360D02*
X586558D01*
X557530Y276700D02*
X563190Y282360D01*
X598678Y294480D02*
X601980D01*
X597554Y199892D02*
Y212546D01*
X591820Y218280D02*
X597554Y212546D01*
X553720Y218280D02*
X591820D01*
X539750Y232250D02*
X553720Y218280D01*
X539750Y232250D02*
Y279240D01*
X554990Y294480D01*
X576580D01*
X535106Y303126D02*
Y325828D01*
X618003Y306600D02*
X619760Y304843D01*
X568258Y306600D02*
X618003D01*
X605282Y269080D02*
X619760Y283558D01*
Y304843D01*
X535106Y303126D02*
X564784D01*
X568258Y306600D01*
X497903Y303126D02*
Y325828D01*
X735682Y149348D02*
Y185004D01*
X748740Y218990D02*
X820420D01*
X734764Y205014D02*
X748740Y218990D01*
D23*
X820420Y148990D02*
D03*
Y218990D02*
D03*
D24*
X734764Y185922D02*
D03*
X753764D02*
D03*
X720744Y268472D02*
D03*
X701744D02*
D03*
X578554Y199892D02*
D03*
X597554D02*
D03*
X596284Y236722D02*
D03*
X577284D02*
D03*
X320090Y286860D02*
D03*
X339090D02*
D03*
X318820Y219550D02*
D03*
X337820D02*
D03*
X257194Y312922D02*
D03*
X238194D02*
D03*
D25*
X736600Y148430D02*
D03*
X754100D02*
D03*
X677900Y144620D02*
D03*
X660400D02*
D03*
X746900Y267810D02*
D03*
X764400D02*
D03*
X697370Y318610D02*
D03*
X714870D02*
D03*
X716140Y291940D02*
D03*
X698640D02*
D03*
X480403Y325828D02*
D03*
X497903D02*
D03*
X480403Y303126D02*
D03*
X497903D02*
D03*
X517606D02*
D03*
X535106D02*
D03*
X677900Y195420D02*
D03*
X660400D02*
D03*
X677900Y170020D02*
D03*
X660400D02*
D03*
X256400Y279240D02*
D03*
X238900D02*
D03*
X243980Y168750D02*
D03*
X261480D02*
D03*
X242710Y195420D02*
D03*
X260210D02*
D03*
X535106Y325828D02*
D03*
X517606D02*
D03*
D26*
X624840Y175300D02*
D03*
Y149500D02*
D03*
D27*
X339090Y313530D02*
D03*
X319590D02*
D03*
X318320Y252570D02*
D03*
X337820D02*
D03*
D28*
X130302Y112997D02*
D03*
Y90010D02*
D03*
Y67023D02*
D03*
D29*
X100330Y105390D02*
D03*
Y122890D02*
D03*
X99060Y74630D02*
D03*
Y57130D02*
D03*
D30*
X259690Y226750D02*
D03*
X240690D02*
D03*
Y250450D02*
D03*
X250190D02*
D03*
X259690D02*
D03*
D31*
X818340Y477360D02*
D03*
X24940D02*
D03*
D32*
X483996Y233166D02*
D03*
X487531Y229631D02*
D03*
X491067Y226096D02*
D03*
X494602Y222560D02*
D03*
X498138Y219024D02*
D03*
X501674Y215489D02*
D03*
X505209Y211954D02*
D03*
X508744Y208418D02*
D03*
X512280Y204882D02*
D03*
X515816Y201347D02*
D03*
X519351Y197811D02*
D03*
X522886Y194275D02*
D03*
X465965Y137354D02*
D03*
X462429Y140889D02*
D03*
X458893Y144424D02*
D03*
X455358Y147960D02*
D03*
X451822Y151496D02*
D03*
X448286Y155031D02*
D03*
X444751Y158567D02*
D03*
X441216Y162102D02*
D03*
X437680Y165638D02*
D03*
X434144Y169173D02*
D03*
X430609Y172709D02*
D03*
X427074Y176245D02*
D03*
D33*
X522886D02*
D03*
X519351Y172709D02*
D03*
X515816Y169173D02*
D03*
X512280Y165638D02*
D03*
X508744Y162102D02*
D03*
X505209Y158566D02*
D03*
X501674Y155031D02*
D03*
X498138Y151496D02*
D03*
X494602Y147960D02*
D03*
X491067Y144424D02*
D03*
X487531Y140889D02*
D03*
X483996Y137354D02*
D03*
X427074Y194275D02*
D03*
X430609Y197811D02*
D03*
X434144Y201347D02*
D03*
X437680Y204882D02*
D03*
X441216Y208418D02*
D03*
X444751Y211953D02*
D03*
X448286Y215489D02*
D03*
X451822Y219024D02*
D03*
X455358Y222560D02*
D03*
X458893Y226096D02*
D03*
X462429Y229631D02*
D03*
X465965Y233166D02*
D03*
D34*
X659130Y314800D02*
D03*
Y271620D02*
D03*
D58*
X253485Y274390D02*
X256400Y279240D01*
X250508Y254700D02*
X253485Y274390D01*
X250190Y252600D02*
X250508Y254700D01*
X250190Y232099D02*
Y250450D01*
X660400Y124300D02*
Y144620D01*
Y170020D01*
X677900Y144620D02*
X681200Y143350D01*
X693420D01*
X643382Y230980D02*
X646430D01*
X601980Y269080D02*
X605282D01*
X643382Y230980D01*
X772822Y185922D02*
X773430Y186530D01*
X753764Y185922D02*
X772822D01*
X753110Y236060D02*
X764400Y247350D01*
X680720Y236060D02*
X753110D01*
X660400Y215740D02*
X680720Y236060D01*
X576580Y269080D02*
X601980D01*
X480403Y327378D02*
X486603Y333578D01*
Y335457D01*
X489825Y338678D01*
X506306D01*
X517606Y325828D02*
Y327378D01*
X506306Y338678D02*
X517606Y327378D01*
X576707Y319753D02*
X601853D01*
X601980Y319626D01*
X576580Y319880D02*
X576707Y319753D01*
X554480Y338678D02*
X573278Y319880D01*
X576580D01*
X517606Y327378D02*
X523806Y333578D01*
Y335457D01*
X527028Y338678D01*
X554480D01*
X601980Y294480D02*
X605282D01*
X339090Y286860D02*
Y313530D01*
X341672Y336390D02*
X469842D01*
X480403Y325828D02*
Y327378D01*
X477103Y330678D02*
X480403Y327378D01*
X475553Y330678D02*
X477103D01*
X469842Y336390D02*
X475553Y330678D01*
X327276Y321995D02*
X341672Y336390D01*
X319590Y313530D02*
Y314030D01*
X327276Y321716D01*
Y321995D01*
X517606Y303126D02*
Y325828D01*
X480403Y303126D02*
Y325828D01*
X318320Y252570D02*
Y253070D01*
Y252070D02*
Y252570D01*
X314820Y256570D02*
X318320Y253070D01*
X307539Y256570D02*
X314820D01*
X299720Y264389D02*
Y293160D01*
Y264389D02*
X307539Y256570D01*
X299720Y293160D02*
X319590Y313030D01*
Y313530D01*
X745490Y269220D02*
Y336390D01*
X292100Y286610D02*
Y346550D01*
X273050Y267560D02*
X292100Y286610D01*
X745490Y269220D02*
X746900Y267810D01*
X337820Y219550D02*
Y252570D01*
Y219550D02*
X337820Y219550D01*
X337820Y252570D02*
X337820Y252570D01*
X259940Y226750D02*
X293000D01*
X259690D02*
X259940D01*
X293000D02*
X318320Y252070D01*
X735682Y149348D02*
X736600Y148430D01*
X734764Y185922D02*
X735682Y185004D01*
X660400Y170020D02*
Y195420D01*
X764400Y266260D02*
Y267810D01*
Y247350D02*
Y266260D01*
X660400Y195420D02*
Y215740D01*
X820420Y148990D02*
Y150990D01*
X853440Y184010D01*
X839470Y242410D02*
X853440Y228440D01*
Y184010D02*
Y228440D01*
X789800Y242410D02*
X839470D01*
X767700Y262960D02*
X769250D01*
X789800Y242410D01*
X764400Y266260D02*
X767700Y262960D01*
X259690Y254200D02*
X273050Y267560D01*
X731520Y350360D02*
X745490Y336390D01*
X295910Y350360D02*
X731520D01*
X292100Y346550D02*
X295910Y350360D01*
X259690Y250450D02*
Y254200D01*
X99060Y57130D02*
X100610D01*
X97510D02*
X99060D01*
X100610D02*
X119800Y37940D01*
X201930D01*
X222250Y58260D01*
Y87470D01*
X278130Y143350D01*
Y177860D01*
X318820Y218550D02*
Y219550D01*
X278130Y177860D02*
X318820Y218550D01*
X249190Y231099D02*
X250190Y232099D01*
X249190Y217986D02*
Y231099D01*
X242710Y211506D02*
X249190Y217986D01*
X242710Y195420D02*
Y211506D01*
Y193870D02*
X243980Y192600D01*
X242710Y193870D02*
Y195420D01*
X242200Y282540D02*
Y288641D01*
X248039Y294480D01*
X238900Y279240D02*
X242200Y282540D01*
X270121Y294480D02*
X273050Y291551D01*
Y267560D02*
Y291551D01*
X248039Y294480D02*
X270121D01*
X238194Y312922D02*
X238547Y312569D01*
Y285943D02*
Y312569D01*
Y285943D02*
X238900Y285590D01*
D59*
X330200Y477360D02*
X818340D01*
X190500Y337660D02*
X330200Y477360D01*
X93180Y128490D02*
X99580Y122090D01*
X120414D01*
X674370Y48370D02*
Y49370D01*
X820140Y148710D02*
X820420Y148990D01*
X754380Y148710D02*
X820140D01*
X754100Y148430D02*
X754380Y148710D01*
X746900Y267810D02*
Y295890D01*
X762000Y310990D01*
X821690D01*
X239190Y250450D02*
Y250870D01*
X225671Y264389D02*
X239190Y250870D01*
X209550Y276208D02*
X221369Y264389D01*
X225671D01*
X209550Y276208D02*
Y323690D01*
X220980Y335120D01*
X251336D01*
X257194Y329262D01*
Y312922D02*
Y329262D01*
X166370Y203040D02*
X190500Y227170D01*
Y337660D01*
X256194Y313922D02*
X257194Y312922D01*
X259940Y226750D02*
X271238Y215452D01*
X260210Y196970D02*
X271238Y207998D01*
Y215452D01*
X260210Y195420D02*
Y196970D01*
Y193870D02*
X261480Y192600D01*
Y168750D02*
Y192600D01*
X260210Y193870D02*
Y195420D01*
X243980Y170300D02*
Y192600D01*
Y168750D02*
Y170300D01*
X236640Y177640D02*
X243980Y170300D01*
X166370Y177640D02*
X236640D01*
X166111Y125024D02*
X224718D01*
X260680Y160986D01*
Y167950D02*
X261480Y168750D01*
X130302Y90010D02*
X131097D01*
X166111Y125024D01*
X260680Y160986D02*
Y167950D01*
X166370Y148270D02*
Y177640D01*
X130302Y112997D02*
X131097D01*
X166370Y148270D01*
X50026Y128490D02*
X93180D01*
X40640Y49370D02*
Y119104D01*
X50026Y128490D01*
X129507Y112997D02*
X130302D01*
X120414Y122090D02*
X129507Y112997D01*
X101880Y105390D02*
X115308Y91962D01*
X128350D01*
X130302Y90010D01*
X100330Y105390D02*
X101880D01*
X99060Y74630D02*
X121900D01*
X129507Y67023D01*
X130302D01*
X66040Y92550D02*
X73740Y84850D01*
X87290D01*
X97510Y74630D01*
X99060D01*
X66040Y92550D02*
Y100170D01*
X40640Y49370D02*
X89750D01*
X97510Y57130D01*
X33020Y49370D02*
X40640D01*
X2540Y92550D02*
Y100170D01*
Y92550D02*
X25320Y69770D01*
Y57070D02*
Y69770D01*
Y57070D02*
X33020Y49370D01*
X24940Y433670D02*
Y477360D01*
Y433670D02*
X166370Y292240D01*
D60*
X576580Y294480D02*
D03*
Y319880D02*
D03*
Y269080D02*
D03*
X601980Y319626D02*
D03*
Y294480D02*
D03*
Y269080D02*
D03*
D61*
X821690Y310990D02*
D03*
Y285590D02*
D03*
X166370Y203040D02*
D03*
Y292240D02*
D03*
Y177640D02*
D03*
Y317640D02*
D03*
D62*
X40640Y49370D02*
D03*
D63*
X2540Y100170D02*
D03*
X66040D02*
D03*
D64*
X698500Y49370D02*
D03*
X673100D02*
D03*
X647700D02*
D03*
X797560Y50640D02*
D03*
X822960D02*
D03*
D65*
X622300Y49370D02*
D03*
X772160Y50640D02*
D03*
D66*
X546227Y71341D02*
D03*
X520827D02*
D03*
X495427D02*
D03*
X470027D02*
D03*
X393827D02*
D03*
X368427D02*
D03*
X495427Y45941D02*
D03*
X368300Y45560D02*
D03*
X266700Y46068D02*
D03*
X292100D02*
D03*
X317246D02*
D03*
X342900Y45560D02*
D03*
X470027Y45941D02*
D03*
X317627Y71341D02*
D03*
X266827D02*
D03*
X393700Y45560D02*
D03*
X546227Y45941D02*
D03*
X520827D02*
D03*
X292227Y71341D02*
D03*
X419100Y45560D02*
D03*
X444500D02*
D03*
X343027Y71341D02*
D03*
X419227D02*
D03*
X444627D02*
D03*
D67*
X63440Y557360D02*
D03*
D68*
X697640D02*
D03*
X145640Y397360D02*
D03*
D69*
X840000Y610000D02*
D03*
X0D02*
D03*
X840000Y0D02*
D03*
X0D02*
D03*
D70*
X402590Y233520D02*
D03*
X455930Y115410D02*
D03*
X398780Y105250D02*
D03*
X646174Y158590D02*
D03*
X360680Y200500D02*
D03*
X542290Y153510D02*
D03*
X693420Y156050D02*
D03*
X718820Y222090D02*
D03*
X568960Y162400D02*
D03*
X540370Y163670D02*
D03*
X447210Y124252D02*
D03*
X438162Y131924D02*
D03*
X384810Y208120D02*
D03*
X393700Y221645D02*
D03*
X386080Y303370D02*
D03*
X415290Y236060D02*
D03*
X430530Y250030D02*
D03*
X431803Y241120D02*
D03*
X680720Y253840D02*
D03*
X721052Y252878D02*
D03*
X571500Y178910D02*
D03*
X619760Y234790D02*
D03*
X403860Y157320D02*
D03*
X353060Y143350D02*
D03*
X622300Y98900D02*
D03*
X601980Y111600D02*
D03*
D71*
X660400Y124300D02*
D03*
X693420Y143350D02*
D03*
X646430Y230980D02*
D03*
X773430Y186530D02*
D03*
M02*
