G04*
G04 #@! TF.GenerationSoftware,Altium Limited,Altium Designer,24.1.2 (44)*
G04*
G04 Layer_Color=8421504*
%FSLAX44Y44*%
%MOMM*%
G71*
G04*
G04 #@! TF.SameCoordinates,F76812B4-4960-4A8F-8B2A-70901E51660E*
G04*
G04*
G04 #@! TF.FilePolarity,Positive*
G04*
G01*
G75*
%ADD23R,0.8000X1.2000*%
%ADD24R,1.2000X1.4000*%
%ADD25R,1.1600X1.4700*%
%ADD26R,1.9000X1.1000*%
%ADD27R,1.2000X1.3000*%
%ADD28R,1.5494X0.6096*%
%ADD29R,1.4700X1.1600*%
G04:AMPARAMS|DCode=30|XSize=0.6mm|YSize=1.35mm|CornerRadius=0.045mm|HoleSize=0mm|Usage=FLASHONLY|Rotation=180.000|XOffset=0mm|YOffset=0mm|HoleType=Round|Shape=RoundedRectangle|*
%AMROUNDEDRECTD30*
21,1,0.6000,1.2600,0,0,180.0*
21,1,0.5100,1.3500,0,0,180.0*
1,1,0.0900,-0.2550,0.6300*
1,1,0.0900,0.2550,0.6300*
1,1,0.0900,0.2550,-0.6300*
1,1,0.0900,-0.2550,-0.6300*
%
%ADD30ROUNDEDRECTD30*%
%ADD31R,7.4600X6.4700*%
G04:AMPARAMS|DCode=32|XSize=0.25mm|YSize=1.55mm|CornerRadius=0mm|HoleSize=0mm|Usage=FLASHONLY|Rotation=315.000|XOffset=0mm|YOffset=0mm|HoleType=Round|Shape=Round|*
%AMOVALD32*
21,1,1.3000,0.2500,0.0000,0.0000,45.0*
1,1,0.2500,-0.4596,-0.4596*
1,1,0.2500,0.4596,0.4596*
%
%ADD32OVALD32*%

G04:AMPARAMS|DCode=33|XSize=0.25mm|YSize=1.55mm|CornerRadius=0mm|HoleSize=0mm|Usage=FLASHONLY|Rotation=45.000|XOffset=0mm|YOffset=0mm|HoleType=Round|Shape=Round|*
%AMOVALD33*
21,1,1.3000,0.2500,0.0000,0.0000,135.0*
1,1,0.2500,0.4596,-0.4596*
1,1,0.2500,-0.4596,0.4596*
%
%ADD33OVALD33*%

%ADD34R,2.5400X1.7780*%
G36*
X187071Y73754D02*
X202565D01*
Y106266D01*
X187071D01*
Y73754D01*
D02*
G37*
D23*
X820420Y148990D02*
D03*
Y218990D02*
D03*
D24*
X734764Y185922D02*
D03*
X753764D02*
D03*
X720744Y268472D02*
D03*
X701744D02*
D03*
X578554Y199892D02*
D03*
X597554D02*
D03*
X596284Y236722D02*
D03*
X577284D02*
D03*
X320090Y286860D02*
D03*
X339090D02*
D03*
X318820Y219550D02*
D03*
X337820D02*
D03*
X257194Y312922D02*
D03*
X238194D02*
D03*
D25*
X736600Y148430D02*
D03*
X754100D02*
D03*
X677900Y144620D02*
D03*
X660400D02*
D03*
X746900Y267810D02*
D03*
X764400D02*
D03*
X697370Y318610D02*
D03*
X714870D02*
D03*
X716140Y291940D02*
D03*
X698640D02*
D03*
X480403Y325828D02*
D03*
X497903D02*
D03*
X480403Y303126D02*
D03*
X497903D02*
D03*
X517606D02*
D03*
X535106D02*
D03*
X677900Y195420D02*
D03*
X660400D02*
D03*
X677900Y170020D02*
D03*
X660400D02*
D03*
X256400Y279240D02*
D03*
X238900D02*
D03*
X243980Y168750D02*
D03*
X261480D02*
D03*
X242710Y195420D02*
D03*
X260210D02*
D03*
X535106Y325828D02*
D03*
X517606D02*
D03*
D26*
X624840Y175300D02*
D03*
Y149500D02*
D03*
D27*
X339090Y313530D02*
D03*
X319590D02*
D03*
X318320Y252570D02*
D03*
X337820D02*
D03*
D28*
X130302Y112997D02*
D03*
Y90010D02*
D03*
Y67023D02*
D03*
D29*
X100330Y105390D02*
D03*
Y122890D02*
D03*
X99060Y74630D02*
D03*
Y57130D02*
D03*
D30*
X259690Y226750D02*
D03*
X240690D02*
D03*
Y250450D02*
D03*
X250190D02*
D03*
X259690D02*
D03*
D31*
X818340Y477360D02*
D03*
X24940D02*
D03*
D32*
X483996Y233166D02*
D03*
X487531Y229631D02*
D03*
X491067Y226096D02*
D03*
X494602Y222560D02*
D03*
X498138Y219024D02*
D03*
X501674Y215489D02*
D03*
X505209Y211954D02*
D03*
X508744Y208418D02*
D03*
X512280Y204882D02*
D03*
X515816Y201347D02*
D03*
X519351Y197811D02*
D03*
X522886Y194275D02*
D03*
X465965Y137354D02*
D03*
X462429Y140889D02*
D03*
X458893Y144424D02*
D03*
X455358Y147960D02*
D03*
X451822Y151496D02*
D03*
X448286Y155031D02*
D03*
X444751Y158567D02*
D03*
X441216Y162102D02*
D03*
X437680Y165638D02*
D03*
X434144Y169173D02*
D03*
X430609Y172709D02*
D03*
X427074Y176245D02*
D03*
D33*
X522886D02*
D03*
X519351Y172709D02*
D03*
X515816Y169173D02*
D03*
X512280Y165638D02*
D03*
X508744Y162102D02*
D03*
X505209Y158566D02*
D03*
X501674Y155031D02*
D03*
X498138Y151496D02*
D03*
X494602Y147960D02*
D03*
X491067Y144424D02*
D03*
X487531Y140889D02*
D03*
X483996Y137354D02*
D03*
X427074Y194275D02*
D03*
X430609Y197811D02*
D03*
X434144Y201347D02*
D03*
X437680Y204882D02*
D03*
X441216Y208418D02*
D03*
X444751Y211953D02*
D03*
X448286Y215489D02*
D03*
X451822Y219024D02*
D03*
X455358Y222560D02*
D03*
X458893Y226096D02*
D03*
X462429Y229631D02*
D03*
X465965Y233166D02*
D03*
D34*
X659130Y314800D02*
D03*
Y271620D02*
D03*
M02*
