G04*
G04 #@! TF.GenerationSoftware,Altium Limited,Altium Designer,24.1.2 (44)*
G04*
G04 Layer_Color=8388736*
%FSLAX44Y44*%
%MOMM*%
G71*
G04*
G04 #@! TF.SameCoordinates,F76812B4-4960-4A8F-8B2A-70901E51660E*
G04*
G04*
G04 #@! TF.FilePolarity,Negative*
G04*
G01*
G75*
%ADD28R,1.5494X0.6096*%
%ADD35R,1.0032X1.4032*%
%ADD36R,1.4032X1.6032*%
%ADD37R,1.3632X1.6732*%
%ADD38R,2.1032X1.3032*%
%ADD39R,1.4032X1.5032*%
%ADD40R,1.6732X1.3632*%
G04:AMPARAMS|DCode=41|XSize=0.8032mm|YSize=1.5532mm|CornerRadius=0.1466mm|HoleSize=0mm|Usage=FLASHONLY|Rotation=180.000|XOffset=0mm|YOffset=0mm|HoleType=Round|Shape=RoundedRectangle|*
%AMROUNDEDRECTD41*
21,1,0.8032,1.2600,0,0,180.0*
21,1,0.5100,1.5532,0,0,180.0*
1,1,0.2932,-0.2550,0.6300*
1,1,0.2932,0.2550,0.6300*
1,1,0.2932,0.2550,-0.6300*
1,1,0.2932,-0.2550,-0.6300*
%
%ADD41ROUNDEDRECTD41*%
%ADD42R,7.6632X6.6732*%
G04:AMPARAMS|DCode=43|XSize=0.4532mm|YSize=1.7532mm|CornerRadius=0mm|HoleSize=0mm|Usage=FLASHONLY|Rotation=315.000|XOffset=0mm|YOffset=0mm|HoleType=Round|Shape=Round|*
%AMOVALD43*
21,1,1.3000,0.4532,0.0000,0.0000,45.0*
1,1,0.4532,-0.4596,-0.4596*
1,1,0.4532,0.4596,0.4596*
%
%ADD43OVALD43*%

G04:AMPARAMS|DCode=44|XSize=0.4532mm|YSize=1.7532mm|CornerRadius=0mm|HoleSize=0mm|Usage=FLASHONLY|Rotation=45.000|XOffset=0mm|YOffset=0mm|HoleType=Round|Shape=Round|*
%AMOVALD44*
21,1,1.3000,0.4532,0.0000,0.0000,135.0*
1,1,0.4532,0.4596,-0.4596*
1,1,0.4532,-0.4596,0.4596*
%
%ADD44OVALD44*%

%ADD45R,2.7432X1.9812*%
%ADD46O,2.3876X1.7272*%
%ADD47C,1.8000*%
%ADD48R,4.2672X2.7432*%
%ADD49R,2.7432X4.2672*%
%ADD50O,1.8032X2.0032*%
G04:AMPARAMS|DCode=51|XSize=2.0032mm|YSize=1.8032mm|CornerRadius=0.5016mm|HoleSize=0mm|Usage=FLASHONLY|Rotation=90.000|XOffset=0mm|YOffset=0mm|HoleType=Round|Shape=RoundedRectangle|*
%AMROUNDEDRECTD51*
21,1,2.0032,0.8000,0,0,90.0*
21,1,1.0000,1.8032,0,0,90.0*
1,1,1.0032,0.4000,0.5000*
1,1,1.0032,0.4000,-0.5000*
1,1,1.0032,-0.4000,-0.5000*
1,1,1.0032,-0.4000,0.5000*
%
%ADD51ROUNDEDRECTD51*%
%ADD52O,1.7272X2.3876*%
%ADD53C,2.5932*%
%ADD54C,3.6532*%
%ADD55C,3.4032*%
%ADD56C,0.8032*%
%ADD57C,1.2032*%
G36*
X183515Y73500D02*
X206121D01*
Y106520D01*
X183515D01*
Y73500D01*
D02*
G37*
D28*
X130302Y112997D02*
D03*
Y90010D02*
D03*
Y67023D02*
D03*
D35*
X820420Y148990D02*
D03*
Y218990D02*
D03*
D36*
X734764Y185922D02*
D03*
X753764D02*
D03*
X720744Y268472D02*
D03*
X701744D02*
D03*
X578554Y199892D02*
D03*
X597554D02*
D03*
X596284Y236722D02*
D03*
X577284D02*
D03*
X320090Y286860D02*
D03*
X339090D02*
D03*
X318820Y219550D02*
D03*
X337820D02*
D03*
X257194Y312922D02*
D03*
X238194D02*
D03*
D37*
X736600Y148430D02*
D03*
X754100D02*
D03*
X677900Y144620D02*
D03*
X660400D02*
D03*
X746900Y267810D02*
D03*
X764400D02*
D03*
X697370Y318610D02*
D03*
X714870D02*
D03*
X716140Y291940D02*
D03*
X698640D02*
D03*
X480403Y325828D02*
D03*
X497903D02*
D03*
X480403Y303126D02*
D03*
X497903D02*
D03*
X517606D02*
D03*
X535106D02*
D03*
X677900Y195420D02*
D03*
X660400D02*
D03*
X677900Y170020D02*
D03*
X660400D02*
D03*
X256400Y279240D02*
D03*
X238900D02*
D03*
X243980Y168750D02*
D03*
X261480D02*
D03*
X242710Y195420D02*
D03*
X260210D02*
D03*
X535106Y325828D02*
D03*
X517606D02*
D03*
D38*
X624840Y175300D02*
D03*
Y149500D02*
D03*
D39*
X339090Y313530D02*
D03*
X319590D02*
D03*
X318320Y252570D02*
D03*
X337820D02*
D03*
D40*
X100330Y105390D02*
D03*
Y122890D02*
D03*
X99060Y74630D02*
D03*
Y57130D02*
D03*
D41*
X259690Y226750D02*
D03*
X240690D02*
D03*
Y250450D02*
D03*
X250190D02*
D03*
X259690D02*
D03*
D42*
X818340Y477360D02*
D03*
X24940D02*
D03*
D43*
X483996Y233166D02*
D03*
X487531Y229631D02*
D03*
X491067Y226096D02*
D03*
X494602Y222560D02*
D03*
X498138Y219024D02*
D03*
X501674Y215489D02*
D03*
X505209Y211954D02*
D03*
X508744Y208418D02*
D03*
X512280Y204882D02*
D03*
X515816Y201347D02*
D03*
X519351Y197811D02*
D03*
X522886Y194275D02*
D03*
X465965Y137354D02*
D03*
X462429Y140889D02*
D03*
X458893Y144424D02*
D03*
X455358Y147960D02*
D03*
X451822Y151496D02*
D03*
X448286Y155031D02*
D03*
X444751Y158567D02*
D03*
X441216Y162102D02*
D03*
X437680Y165638D02*
D03*
X434144Y169173D02*
D03*
X430609Y172709D02*
D03*
X427074Y176245D02*
D03*
D44*
X522886D02*
D03*
X519351Y172709D02*
D03*
X515816Y169173D02*
D03*
X512280Y165638D02*
D03*
X508744Y162102D02*
D03*
X505209Y158566D02*
D03*
X501674Y155031D02*
D03*
X498138Y151496D02*
D03*
X494602Y147960D02*
D03*
X491067Y144424D02*
D03*
X487531Y140889D02*
D03*
X483996Y137354D02*
D03*
X427074Y194275D02*
D03*
X430609Y197811D02*
D03*
X434144Y201347D02*
D03*
X437680Y204882D02*
D03*
X441216Y208418D02*
D03*
X444751Y211953D02*
D03*
X448286Y215489D02*
D03*
X451822Y219024D02*
D03*
X455358Y222560D02*
D03*
X458893Y226096D02*
D03*
X462429Y229631D02*
D03*
X465965Y233166D02*
D03*
D45*
X659130Y314800D02*
D03*
Y271620D02*
D03*
D46*
X576580Y294480D02*
D03*
Y319880D02*
D03*
Y269080D02*
D03*
X601980Y319626D02*
D03*
Y294480D02*
D03*
Y269080D02*
D03*
D47*
X821690Y310990D02*
D03*
Y285590D02*
D03*
X166370Y203040D02*
D03*
Y292240D02*
D03*
Y177640D02*
D03*
Y317640D02*
D03*
D48*
X40640Y49370D02*
D03*
D49*
X2540Y100170D02*
D03*
X66040D02*
D03*
D50*
X698500Y49370D02*
D03*
X673100D02*
D03*
X647700D02*
D03*
X797560Y50640D02*
D03*
X822960D02*
D03*
D51*
X622300Y49370D02*
D03*
X772160Y50640D02*
D03*
D52*
X546227Y71341D02*
D03*
X520827D02*
D03*
X495427D02*
D03*
X470027D02*
D03*
X393827D02*
D03*
X368427D02*
D03*
X495427Y45941D02*
D03*
X368300Y45560D02*
D03*
X266700Y46068D02*
D03*
X292100D02*
D03*
X317246D02*
D03*
X342900Y45560D02*
D03*
X470027Y45941D02*
D03*
X317627Y71341D02*
D03*
X266827D02*
D03*
X393700Y45560D02*
D03*
X546227Y45941D02*
D03*
X520827D02*
D03*
X292227Y71341D02*
D03*
X419100Y45560D02*
D03*
X444500D02*
D03*
X343027Y71341D02*
D03*
X419227D02*
D03*
X444627D02*
D03*
D53*
X63440Y557360D02*
D03*
D54*
X697640D02*
D03*
X145640Y397360D02*
D03*
D55*
X840000Y610000D02*
D03*
X0D02*
D03*
X840000Y0D02*
D03*
X0D02*
D03*
D56*
X402590Y233520D02*
D03*
X455930Y115410D02*
D03*
X398780Y105250D02*
D03*
X646174Y158590D02*
D03*
X360680Y200500D02*
D03*
X542290Y153510D02*
D03*
X693420Y156050D02*
D03*
X718820Y222090D02*
D03*
X568960Y162400D02*
D03*
X540370Y163670D02*
D03*
X447210Y124252D02*
D03*
X438162Y131924D02*
D03*
X384810Y208120D02*
D03*
X393700Y221645D02*
D03*
X386080Y303370D02*
D03*
X415290Y236060D02*
D03*
X430530Y250030D02*
D03*
X431803Y241120D02*
D03*
X680720Y253840D02*
D03*
X721052Y252878D02*
D03*
X571500Y178910D02*
D03*
X619760Y234790D02*
D03*
X403860Y157320D02*
D03*
X353060Y143350D02*
D03*
X622300Y98900D02*
D03*
X601980Y111600D02*
D03*
D57*
X660400Y124300D02*
D03*
X693420Y143350D02*
D03*
X646430Y230980D02*
D03*
X773430Y186530D02*
D03*
M02*
