G04*
G04 #@! TF.GenerationSoftware,Altium Limited,Altium Designer,24.1.2 (44)*
G04*
G04 Layer_Color=65535*
%FSLAX44Y44*%
%MOMM*%
G71*
G04*
G04 #@! TF.SameCoordinates,377F5F7B-3E2B-4101-8CAE-0EA41587A08D*
G04*
G04*
G04 #@! TF.FilePolarity,Positive*
G04*
G01*
G75*
%ADD10C,0.3000*%
%ADD11C,0.1778*%
%ADD12C,0.1270*%
%ADD13C,0.2540*%
G36*
X24257Y25781D02*
X17907Y19431D01*
X30607D01*
X24257Y25781D01*
D02*
G37*
D10*
X79510Y277645D02*
G03*
X79510Y277645I-1270J0D01*
G01*
D11*
X316257Y25781D02*
Y79121D01*
X11430D02*
X316257D01*
X11430Y52578D02*
Y79121D01*
Y25781D02*
Y52578D01*
Y25781D02*
X316257D01*
X36957D02*
Y52197D01*
D12*
X84830Y141645D02*
X242830D01*
Y388645D01*
X84830D02*
X242830D01*
X84830Y141645D02*
Y388645D01*
D13*
X23111Y102865D02*
X18032D01*
X20571D01*
Y90169D01*
X18032Y87630D01*
X15493D01*
X12954Y90169D01*
X28189Y87630D02*
Y102865D01*
X35807D01*
X38346Y100326D01*
Y95247D01*
X35807Y92708D01*
X28189D01*
X43424Y87630D02*
X48502D01*
X45963D01*
Y102865D01*
X43424Y100326D01*
X77978Y412237D02*
Y399541D01*
X80517Y397002D01*
X85596D01*
X88135Y399541D01*
Y412237D01*
X93213Y397002D02*
X98291D01*
X95752D01*
Y412237D01*
X93213Y409698D01*
M02*
