G04*
G04 #@! TF.GenerationSoftware,Altium Limited,Altium Designer,24.1.2 (44)*
G04*
G04 Layer_Color=32896*
%FSLAX44Y44*%
%MOMM*%
G71*
G04*
G04 #@! TF.SameCoordinates,377F5F7B-3E2B-4101-8CAE-0EA41587A08D*
G04*
G04*
G04 #@! TF.FilePolarity,Positive*
G04*
G01*
G75*
%ADD23C,0.1500*%
D23*
X33294Y14970D02*
Y19968D01*
X30794D01*
X29961Y19135D01*
Y17469D01*
X30794Y16636D01*
X33294D01*
X31628D02*
X29961Y14970D01*
X24963Y19135D02*
X25796Y19968D01*
X27462D01*
X28295Y19135D01*
Y18302D01*
X27462Y17469D01*
X25796D01*
X24963Y16636D01*
Y15803D01*
X25796Y14970D01*
X27462D01*
X28295Y15803D01*
X23297Y19968D02*
X19965D01*
X21631D01*
Y14970D01*
X18299D02*
Y18302D01*
X15799D01*
X14966Y17469D01*
Y14970D01*
X57861Y19968D02*
X61193D01*
Y14970D01*
X57861D01*
X61193Y17469D02*
X59527D01*
X56195Y19968D02*
X52862Y14970D01*
Y19968D02*
X56195Y14970D01*
X51196Y19968D02*
X47864D01*
X49530D01*
Y14970D01*
X43699Y19968D02*
X45365D01*
X46198Y19135D01*
Y15803D01*
X45365Y14970D01*
X43699D01*
X42866Y15803D01*
Y19135D01*
X43699Y19968D01*
X41199Y14970D02*
Y19968D01*
X37867Y14970D01*
Y19968D01*
X79095D02*
Y14970D01*
X77429Y16636D01*
X75763Y14970D01*
Y19968D01*
X74097D02*
Y14970D01*
Y16636D01*
X70765Y19968D01*
X73264Y17469D01*
X70765Y14970D01*
X113659Y19135D02*
X114492Y19968D01*
X116158D01*
X116991Y19135D01*
Y18302D01*
X116158Y17469D01*
X114492D01*
X113659Y16636D01*
Y15803D01*
X114492Y14970D01*
X116158D01*
X116991Y15803D01*
X111993Y19968D02*
Y19135D01*
X110327Y17469D01*
X108661Y19135D01*
Y19968D01*
X110327Y17469D02*
Y14970D01*
X106994D02*
Y19968D01*
X103662Y14970D01*
Y19968D01*
X98664Y19135D02*
X99497Y19968D01*
X101163D01*
X101996Y19135D01*
Y15803D01*
X101163Y14970D01*
X99497D01*
X98664Y15803D01*
X96998Y14970D02*
X93666Y18302D01*
X91999Y19968D02*
Y14970D01*
X89500D01*
X88667Y15803D01*
Y19135D01*
X89500Y19968D01*
X91999D01*
X87001D02*
X83669D01*
Y19135D01*
X87001Y15803D01*
Y14970D01*
X129895Y19968D02*
Y14970D01*
X127396D01*
X126563Y15803D01*
Y19135D01*
X127396Y19968D01*
X129895D01*
X121565D02*
X123231Y19135D01*
X124897Y17469D01*
Y15803D01*
X124064Y14970D01*
X122398D01*
X121565Y15803D01*
Y16636D01*
X122398Y17469D01*
X124897D01*
X155295Y19968D02*
Y14970D01*
X152796D01*
X151963Y15803D01*
Y19135D01*
X152796Y19968D01*
X155295D01*
X146965D02*
X150297D01*
Y17469D01*
X148631Y18302D01*
X147798D01*
X146965Y17469D01*
Y15803D01*
X147798Y14970D01*
X149464D01*
X150297Y15803D01*
X180695Y19968D02*
Y14970D01*
X178196D01*
X177363Y15803D01*
Y19135D01*
X178196Y19968D01*
X180695D01*
X173198Y14970D02*
Y19968D01*
X175697Y17469D01*
X172365D01*
X206095Y19968D02*
Y14970D01*
X203596D01*
X202763Y15803D01*
Y19135D01*
X203596Y19968D01*
X206095D01*
X201097Y19135D02*
X200264Y19968D01*
X198598D01*
X197765Y19135D01*
Y18302D01*
X198598Y17469D01*
X199431D01*
X198598D01*
X197765Y16636D01*
Y15803D01*
X198598Y14970D01*
X200264D01*
X201097Y15803D01*
X231495Y19968D02*
Y14970D01*
X228996D01*
X228163Y15803D01*
Y19135D01*
X228996Y19968D01*
X231495D01*
X223165Y14970D02*
X226497D01*
X223165Y18302D01*
Y19135D01*
X223998Y19968D01*
X225664D01*
X226497Y19135D01*
X256062Y19968D02*
Y14970D01*
X253563D01*
X252730Y15803D01*
Y19135D01*
X253563Y19968D01*
X256062D01*
X251064Y14970D02*
X249398D01*
X250231D01*
Y19968D01*
X251064Y19135D01*
X284378Y19968D02*
X282712D01*
X283545D01*
Y14970D01*
X284378D01*
X282712D01*
X280213D02*
Y19968D01*
X277714D01*
X276880Y19135D01*
Y17469D01*
X277714Y16636D01*
X280213D01*
X278547D02*
X276880Y14970D01*
X271882Y15803D02*
Y19135D01*
X272715Y19968D01*
X274381D01*
X275214Y19135D01*
Y15803D01*
X274381Y14970D01*
X272715D01*
X273548Y16636D02*
X271882Y14970D01*
X272715D02*
X271882Y15803D01*
X256062Y89335D02*
X256895Y90168D01*
X258561D01*
X259394Y89335D01*
Y86003D01*
X258561Y85170D01*
X256895D01*
X256062Y86003D01*
X254396Y90168D02*
Y85170D01*
X251064D01*
X249398Y90168D02*
Y85170D01*
Y86836D01*
X246066Y90168D01*
X248565Y87669D01*
X246066Y85170D01*
X236077D02*
Y90168D01*
X234411Y88502D01*
X232745Y90168D01*
Y85170D01*
X231079Y90168D02*
X229413D01*
X230246D01*
Y85170D01*
X231079D01*
X229413D01*
X223581Y89335D02*
X224414Y90168D01*
X226080D01*
X226914Y89335D01*
Y88502D01*
X226080Y87669D01*
X224414D01*
X223581Y86836D01*
Y86003D01*
X224414Y85170D01*
X226080D01*
X226914Y86003D01*
X219416Y90168D02*
X221082D01*
X221915Y89335D01*
Y86003D01*
X221082Y85170D01*
X219416D01*
X218583Y86003D01*
Y89335D01*
X219416Y90168D01*
X210261Y85170D02*
Y90168D01*
X208594Y88502D01*
X206928Y90168D01*
Y85170D01*
X202763Y90168D02*
X204429D01*
X205262Y89335D01*
Y86003D01*
X204429Y85170D01*
X202763D01*
X201930Y86003D01*
Y89335D01*
X202763Y90168D01*
X196932Y89335D02*
X197765Y90168D01*
X199431D01*
X200264Y89335D01*
Y88502D01*
X199431Y87669D01*
X197765D01*
X196932Y86836D01*
Y86003D01*
X197765Y85170D01*
X199431D01*
X200264Y86003D01*
X195266Y90168D02*
X193599D01*
X194432D01*
Y85170D01*
X195266D01*
X193599D01*
X177363Y89335D02*
X178196Y90168D01*
X179862D01*
X180695Y89335D01*
Y86003D01*
X179862Y85170D01*
X178196D01*
X177363Y86003D01*
X172365Y89335D02*
X173198Y90168D01*
X174864D01*
X175697Y89335D01*
Y88502D01*
X174864Y87669D01*
X173198D01*
X172365Y86836D01*
Y86003D01*
X173198Y85170D01*
X174864D01*
X175697Y86003D01*
X129062Y89335D02*
X129895Y90168D01*
X131561D01*
X132395Y89335D01*
Y86003D01*
X131561Y85170D01*
X129895D01*
X129062Y86003D01*
Y87669D01*
X130728D01*
X127396Y85170D02*
Y90168D01*
X124897D01*
X124064Y89335D01*
Y87669D01*
X124897Y86836D01*
X127396D01*
X122398Y89335D02*
X121565Y90168D01*
X119899D01*
X119066Y89335D01*
Y86003D01*
X119899Y85170D01*
X121565D01*
X122398Y86003D01*
Y89335D01*
X38292Y90168D02*
Y86836D01*
X36626Y85170D01*
X34960Y86836D01*
Y90168D01*
X33294D02*
Y85170D01*
X30794D01*
X29961Y86003D01*
Y89335D01*
X30794Y90168D01*
X33294D01*
X28295D02*
Y85170D01*
X25796D01*
X24963Y86003D01*
Y89335D01*
X25796Y90168D01*
X28295D01*
X23297Y85170D02*
Y88502D01*
X21631Y90168D01*
X19965Y88502D01*
Y85170D01*
Y87669D01*
X23297D01*
X15799Y90168D02*
X17465D01*
X18299Y89335D01*
Y86003D01*
X17465Y85170D01*
X15799D01*
X14966Y86003D01*
Y89335D01*
X15799Y90168D01*
X13300Y85170D02*
Y90168D01*
X9968Y85170D01*
Y90168D01*
X81594Y89335D02*
X80761Y90168D01*
X79095D01*
X78262Y89335D01*
Y88502D01*
X79095Y87669D01*
X79928D01*
X79095D01*
X78262Y86836D01*
Y86003D01*
X79095Y85170D01*
X80761D01*
X81594Y86003D01*
X76596Y88502D02*
X74930Y85170D01*
X73264Y88502D01*
X71598Y89335D02*
X70765Y90168D01*
X69099D01*
X68266Y89335D01*
Y88502D01*
X69099Y87669D01*
X69932D01*
X69099D01*
X68266Y86836D01*
Y86003D01*
X69099Y85170D01*
X70765D01*
X71598Y86003D01*
X56195Y89335D02*
X55361Y90168D01*
X53695D01*
X52862Y89335D01*
Y88502D01*
X53695Y87669D01*
X54528D01*
X53695D01*
X52862Y86836D01*
Y86003D01*
X53695Y85170D01*
X55361D01*
X56195Y86003D01*
X51196Y88502D02*
X49530Y85170D01*
X47864Y88502D01*
X46198Y89335D02*
X45365Y90168D01*
X43699D01*
X42866Y89335D01*
Y88502D01*
X43699Y87669D01*
X44532D01*
X43699D01*
X42866Y86836D01*
Y86003D01*
X43699Y85170D01*
X45365D01*
X46198Y86003D01*
X157795Y90168D02*
Y86836D01*
X156128Y85170D01*
X154462Y86836D01*
Y90168D01*
X149464Y89335D02*
X150297Y90168D01*
X151963D01*
X152796Y89335D01*
Y88502D01*
X151963Y87669D01*
X150297D01*
X149464Y86836D01*
Y86003D01*
X150297Y85170D01*
X151963D01*
X152796Y86003D01*
X144466Y89335D02*
X145299Y90168D01*
X146965D01*
X147798Y89335D01*
Y88502D01*
X146965Y87669D01*
X145299D01*
X144466Y86836D01*
Y86003D01*
X145299Y85170D01*
X146965D01*
X147798Y86003D01*
X106994Y90168D02*
Y86836D01*
X105328Y85170D01*
X103662Y86836D01*
Y90168D01*
X98664Y89335D02*
X99497Y90168D01*
X101163D01*
X101996Y89335D01*
Y88502D01*
X101163Y87669D01*
X99497D01*
X98664Y86836D01*
Y86003D01*
X99497Y85170D01*
X101163D01*
X101996Y86003D01*
X93666Y89335D02*
X94499Y90168D01*
X96165D01*
X96998Y89335D01*
Y88502D01*
X96165Y87669D01*
X94499D01*
X93666Y86836D01*
Y86003D01*
X94499Y85170D01*
X96165D01*
X96998Y86003D01*
X284795Y90168D02*
Y86836D01*
X283128Y85170D01*
X281462Y86836D01*
Y90168D01*
X276464Y89335D02*
X277297Y90168D01*
X278963D01*
X279796Y89335D01*
Y88502D01*
X278963Y87669D01*
X277297D01*
X276464Y86836D01*
Y86003D01*
X277297Y85170D01*
X278963D01*
X279796Y86003D01*
X271465Y89335D02*
X272299Y90168D01*
X273965D01*
X274798Y89335D01*
Y88502D01*
X273965Y87669D01*
X272299D01*
X271465Y86836D01*
Y86003D01*
X272299Y85170D01*
X273965D01*
X274798Y86003D01*
X310194Y90168D02*
Y86836D01*
X308528Y85170D01*
X306862Y86836D01*
Y90168D01*
X301864Y89335D02*
X302697Y90168D01*
X304363D01*
X305196Y89335D01*
Y88502D01*
X304363Y87669D01*
X302697D01*
X301864Y86836D01*
Y86003D01*
X302697Y85170D01*
X304363D01*
X305196Y86003D01*
X296866Y89335D02*
X297699Y90168D01*
X299365D01*
X300198Y89335D01*
Y88502D01*
X299365Y87669D01*
X297699D01*
X296866Y86836D01*
Y86003D01*
X297699Y85170D01*
X299365D01*
X300198Y86003D01*
X310194Y19968D02*
Y16636D01*
X308528Y14970D01*
X306862Y16636D01*
Y19968D01*
X301864Y19135D02*
X302697Y19968D01*
X304363D01*
X305196Y19135D01*
Y18302D01*
X304363Y17469D01*
X302697D01*
X301864Y16636D01*
Y15803D01*
X302697Y14970D01*
X304363D01*
X305196Y15803D01*
X296866Y19135D02*
X297699Y19968D01*
X299365D01*
X300198Y19135D01*
Y18302D01*
X299365Y17469D01*
X297699D01*
X296866Y16636D01*
Y15803D01*
X297699Y14970D01*
X299365D01*
X300198Y15803D01*
M02*
