G04*
G04 #@! TF.GenerationSoftware,Altium Limited,Altium Designer,24.1.2 (44)*
G04*
G04 Layer_Physical_Order=2*
G04 Layer_Color=16711680*
%FSLAX44Y44*%
%MOMM*%
G71*
G04*
G04 #@! TF.SameCoordinates,377F5F7B-3E2B-4101-8CAE-0EA41587A08D*
G04*
G04*
G04 #@! TF.FilePolarity,Positive*
G04*
G01*
G75*
%ADD10C,0.3000*%
%ADD21O,1.5240X2.1844*%
%ADD22C,0.8000*%
D10*
X50800Y136295D02*
Y234950D01*
X57150Y241300D01*
X50800Y136295D02*
X61777Y125318D01*
X62230Y133350D02*
Y212090D01*
X36830Y55880D02*
Y224790D01*
Y55880D02*
X49530Y43180D01*
Y39878D02*
Y43180D01*
X61777Y56079D02*
Y125318D01*
Y56079D02*
X74676Y43180D01*
Y39878D02*
Y43180D01*
X62230Y133350D02*
X87177Y108403D01*
Y55825D02*
Y108403D01*
Y55825D02*
X100330Y42672D01*
Y39370D02*
Y42672D01*
X114300Y127000D02*
X137977Y103323D01*
Y54919D02*
Y103323D01*
X143510Y117519D02*
Y118110D01*
Y117519D02*
X163377Y97652D01*
Y55825D02*
Y97652D01*
X176530Y39370D02*
Y42672D01*
X163377Y55825D02*
X176530Y42672D01*
X171450Y127000D02*
X214177Y84273D01*
Y56333D02*
Y84273D01*
X185420Y129540D02*
X240737Y74223D01*
X168512Y104538D02*
Y104538D01*
X178587Y94463D02*
X178787D01*
X168512Y104538D02*
X178587Y94463D01*
X161290Y111760D02*
X168512Y104538D01*
X178787Y94463D02*
X188777Y84473D01*
Y55825D02*
Y84473D01*
X125730Y42672D02*
X137977Y54919D01*
X125730Y39370D02*
Y42672D01*
X240737Y55173D02*
Y74223D01*
X252857Y39751D02*
Y43053D01*
X240737Y55173D02*
X252857Y43053D01*
X188777Y55825D02*
X201930Y42672D01*
Y39370D02*
Y42672D01*
X227457Y39751D02*
Y43053D01*
X214177Y56333D02*
X227457Y43053D01*
D21*
X151257Y65151D02*
D03*
X303657D02*
D03*
X278257D02*
D03*
X252857D02*
D03*
X227457D02*
D03*
X125857D02*
D03*
X252857Y39751D02*
D03*
X125730Y39370D02*
D03*
X24130Y39878D02*
D03*
X49530D02*
D03*
X74676D02*
D03*
X100330Y39370D02*
D03*
X227457Y39751D02*
D03*
X75057Y65151D02*
D03*
X24257D02*
D03*
X151130Y39370D02*
D03*
X303657Y39751D02*
D03*
X278257D02*
D03*
X49657Y65151D02*
D03*
X176530Y39370D02*
D03*
X201930D02*
D03*
X100457Y65151D02*
D03*
X176657D02*
D03*
X202057D02*
D03*
D22*
X57150Y241300D02*
D03*
X62230Y212090D02*
D03*
X36830Y224790D02*
D03*
X171450Y127000D02*
D03*
X185420Y129540D02*
D03*
X143510Y118110D02*
D03*
X161290Y111760D02*
D03*
X114300Y127000D02*
D03*
M02*
