G04*
G04 #@! TF.GenerationSoftware,Altium Limited,Altium Designer,24.1.2 (44)*
G04*
G04 Layer_Physical_Order=1*
G04 Layer_Color=255*
%FSLAX44Y44*%
%MOMM*%
G71*
G04*
G04 #@! TF.SameCoordinates,377F5F7B-3E2B-4101-8CAE-0EA41587A08D*
G04*
G04*
G04 #@! TF.FilePolarity,Positive*
G04*
G01*
G75*
%ADD10C,0.3000*%
%ADD14R,2.4500X1.0000*%
%ADD15R,1.0000X2.4500*%
%ADD20C,0.5000*%
%ADD21O,1.5240X2.1844*%
%ADD22C,0.8000*%
D10*
X79495Y263645D02*
X99830D01*
X57150Y241300D02*
X79495Y263645D01*
X62230Y212090D02*
X82285Y232145D01*
X36830Y240621D02*
X73854Y277645D01*
X36830Y224790D02*
Y240621D01*
X73854Y277645D02*
X99830D01*
X82285Y232145D02*
X96330D01*
X99830Y235645D01*
X171450Y127000D02*
Y156075D01*
X170830Y156695D02*
X171450Y156075D01*
X184830Y156695D02*
X185420Y156105D01*
Y129540D02*
Y156105D01*
X142830Y156695D02*
X143510Y156015D01*
Y118110D02*
Y156015D01*
X156830Y116017D02*
Y156695D01*
Y116017D02*
X161087Y111760D01*
X161290D01*
X198830Y128389D02*
Y156695D01*
X165691Y95250D02*
X198830Y128389D01*
X151130Y95250D02*
X165691D01*
X125857Y69977D02*
X151130Y95250D01*
X114300Y156165D02*
X114830Y156695D01*
X114300Y127000D02*
Y156165D01*
X113610Y112931D02*
X128830Y128151D01*
X113610Y31048D02*
Y112931D01*
X128830Y128151D02*
Y156695D01*
X151130Y36068D02*
Y39370D01*
X139010Y23948D02*
X151130Y36068D01*
X120710Y23948D02*
X139010D01*
X113610Y31048D02*
X120710Y23948D01*
X125857Y65151D02*
Y69977D01*
X227457Y65151D02*
Y68453D01*
X250580Y91576D01*
X202057Y68453D02*
X244580Y110976D01*
X202057Y65151D02*
Y68453D01*
X244580Y110976D02*
Y186509D01*
X176657Y68453D02*
X227830Y119626D01*
Y179645D01*
X176657Y65151D02*
Y68453D01*
X252857Y65151D02*
Y71765D01*
X256580Y75488D01*
Y202509D01*
X240944Y218145D02*
X256580Y202509D01*
X231330Y218145D02*
X240944D01*
X227830Y221645D02*
X231330Y218145D01*
X240944Y204145D02*
X250580Y194509D01*
Y91576D02*
Y194509D01*
X231330Y204145D02*
X240944D01*
X227830Y207645D02*
X231330Y204145D01*
Y190145D02*
X240944D01*
X227830Y193645D02*
X231330Y190145D01*
X240944D02*
X244580Y186509D01*
X12137Y55173D02*
X24130Y43180D01*
Y39878D02*
Y43180D01*
X12137Y55173D02*
Y175288D01*
X82994Y246145D01*
X96330D01*
X99830Y249645D01*
X278257Y39751D02*
Y43053D01*
X290377Y55173D01*
Y196712D01*
X240944Y246145D02*
X290377Y196712D01*
X231330Y246145D02*
X240944D01*
X227830Y249645D02*
X231330Y246145D01*
D14*
X99830Y207645D02*
D03*
Y277645D02*
D03*
Y263645D02*
D03*
Y249645D02*
D03*
Y235645D02*
D03*
Y221645D02*
D03*
Y193645D02*
D03*
Y179645D02*
D03*
X227830D02*
D03*
Y193645D02*
D03*
Y207645D02*
D03*
Y221645D02*
D03*
Y235645D02*
D03*
Y249645D02*
D03*
Y263645D02*
D03*
Y277645D02*
D03*
D15*
X114830Y156695D02*
D03*
X128830D02*
D03*
X142830D02*
D03*
X156830D02*
D03*
X170830D02*
D03*
X184830D02*
D03*
X198830D02*
D03*
X212830D02*
D03*
D20*
X49657Y65151D02*
Y168500D01*
X24257Y65151D02*
Y157100D01*
X49657Y168500D02*
X86302Y205145D01*
X24257Y157100D02*
X86302Y219145D01*
X97330D02*
X99830Y221645D01*
X86302Y219145D02*
X97330D01*
X86302Y205145D02*
X97330D01*
X99830Y207645D01*
X75057Y179900D02*
X86302Y191145D01*
X75057Y65151D02*
Y179900D01*
X97330Y191145D02*
X99830Y193645D01*
X86302Y191145D02*
X97330D01*
X99830Y179645D02*
X100457Y179018D01*
Y65151D02*
Y179018D01*
X151257Y68453D02*
X212830Y130026D01*
Y156695D01*
X151257Y65151D02*
Y68453D01*
X230330Y233145D02*
X241358D01*
X278257Y196246D01*
X227830Y235645D02*
X230330Y233145D01*
X278257Y65151D02*
Y196246D01*
X241358Y261145D02*
X303657Y198846D01*
Y65151D02*
Y198846D01*
X227830Y263645D02*
X230330Y261145D01*
X241358D01*
X303657Y39751D02*
Y43053D01*
X316777Y56173D01*
Y199726D01*
X241358Y275145D02*
X316777Y199726D01*
X230330Y275145D02*
X241358D01*
X227830Y277645D02*
X230330Y275145D01*
D21*
X151257Y65151D02*
D03*
X303657D02*
D03*
X278257D02*
D03*
X252857D02*
D03*
X227457D02*
D03*
X125857D02*
D03*
X252857Y39751D02*
D03*
X125730Y39370D02*
D03*
X24130Y39878D02*
D03*
X49530D02*
D03*
X74676D02*
D03*
X100330Y39370D02*
D03*
X227457Y39751D02*
D03*
X75057Y65151D02*
D03*
X24257D02*
D03*
X151130Y39370D02*
D03*
X303657Y39751D02*
D03*
X278257D02*
D03*
X49657Y65151D02*
D03*
X176530Y39370D02*
D03*
X201930D02*
D03*
X100457Y65151D02*
D03*
X176657D02*
D03*
X202057D02*
D03*
D22*
X57150Y241300D02*
D03*
X62230Y212090D02*
D03*
X36830Y224790D02*
D03*
X171450Y127000D02*
D03*
X185420Y129540D02*
D03*
X143510Y118110D02*
D03*
X161290Y111760D02*
D03*
X114300Y127000D02*
D03*
M02*
