M48
;Layer_Color=9474304
;FILE_FORMAT=4:4
METRIC,LZ
;TYPE=PLATED
T01F00S00C0.4000
T02F00S00C0.9144
%
T01
X0003683Y0022479
X0006223Y0021209
X001143Y00127
X0014351Y0011811
X0016129Y0011176
X0017145Y00127
X0018542Y0012954
X0005715Y002413
T02
X0002413Y00039878
X0004953
X00074676
X00075057Y00065151
X00049657
X00024257
X00100457
X0010033Y0003937
X0012573
X0015113
X0017653
X0020193
X00227457Y00039751
Y00065151
X00252857
X00278257
X00303657
Y00039751
X00278257
X00252857
X00202057Y00065151
X00176657
X00151257
X00125857
M30
