G04*
G04 #@! TF.GenerationSoftware,Altium Limited,Altium Designer,24.1.2 (44)*
G04*
G04 Layer_Color=65535*
%FSLAX44Y44*%
%MOMM*%
G71*
G04*
G04 #@! TF.SameCoordinates,84908A0F-CC4F-4C15-BE80-339605CD68EC*
G04*
G04*
G04 #@! TF.FilePolarity,Positive*
G04*
G01*
G75*
%ADD10C,0.2000*%
%ADD11C,0.2500*%
%ADD12C,0.6000*%
%ADD13C,0.1524*%
%ADD14C,0.3000*%
%ADD15C,0.1270*%
%ADD16C,0.1778*%
%ADD17C,0.2032*%
%ADD18C,0.2540*%
%ADD19C,0.1500*%
%ADD20C,0.0762*%
%ADD21R,0.6350X2.5400*%
%ADD22R,1.2700X2.5400*%
G36*
X637540Y528320D02*
X631190Y521970D01*
X643890D01*
X637540Y528320D01*
D02*
G37*
G36*
X943864Y947420D02*
X950214Y941070D01*
Y953770D01*
X943864Y947420D01*
D02*
G37*
D10*
X1168130Y744220D02*
G03*
X1168130Y744220I-1000J0D01*
G01*
X1129460Y573890D02*
G03*
X1129460Y573890I-1000J0D01*
G01*
X1038698Y664870D02*
G03*
X1038698Y664870I-1000J0D01*
G01*
X550910Y532130D02*
G03*
X550910Y532130I-1000J0D01*
G01*
X1043487Y738530D02*
G03*
X1043487Y738530I-1000J0D01*
G01*
X855218Y950240D02*
X873252D01*
Y964072D01*
X855218Y950240D02*
Y964072D01*
Y971822D02*
Y985240D01*
X873252D01*
Y971822D02*
Y985240D01*
X488850Y982556D02*
X506884D01*
Y996388D01*
X488850Y982556D02*
Y996388D01*
Y1004138D02*
Y1017556D01*
X506884D01*
Y1004138D02*
Y1017556D01*
X1048030Y732028D02*
Y750062D01*
Y732028D02*
X1061862D01*
X1048030Y750062D02*
X1061862D01*
X1069612D02*
X1083030D01*
Y732028D02*
Y750062D01*
X1069612Y732028D02*
X1083030D01*
X1078241Y665988D02*
Y684022D01*
X1064408D02*
X1078241D01*
X1064408Y665988D02*
X1078241D01*
X1043240D02*
X1056658D01*
X1043240D02*
Y684022D01*
X1056658D01*
X770610Y940308D02*
Y958342D01*
X756778D02*
X770610D01*
X756778Y940308D02*
X770610D01*
X735610D02*
X749028D01*
X735610D02*
Y958342D01*
X749028D01*
X754860Y832330D02*
Y892330D01*
X814860Y832330D02*
Y892330D01*
X754860D02*
X814860D01*
X754860Y832330D02*
X814860D01*
X732360Y809830D02*
X837360D01*
X732360Y914830D02*
X837360D01*
Y809830D02*
Y914830D01*
X732360Y809830D02*
Y914830D01*
X676486Y939646D02*
Y957680D01*
Y939646D02*
X690318D01*
X676486Y957680D02*
X690318D01*
X698068D02*
X711486D01*
Y939646D02*
Y957680D01*
X698068Y939646D02*
X711486D01*
X631190Y802640D02*
X670560D01*
X631190Y868680D02*
X670560D01*
Y802640D02*
Y823660D01*
X631190Y802640D02*
Y823660D01*
Y847660D02*
Y868680D01*
X670560Y847660D02*
Y868680D01*
X677418Y819430D02*
X695452D01*
Y833262D01*
X677418Y819430D02*
Y833262D01*
Y841012D02*
Y854430D01*
X695452D01*
Y841012D02*
Y854430D01*
X537304Y745210D02*
X555337D01*
X537304Y731378D02*
Y745210D01*
X555337Y731378D02*
Y745210D01*
Y710210D02*
Y723628D01*
X537304Y710210D02*
X555337D01*
X537304D02*
Y723628D01*
X455650Y622808D02*
Y640842D01*
X441818D02*
X455650D01*
X441818Y622808D02*
X455650D01*
X420650D02*
X434068D01*
X420650D02*
Y640842D01*
X434068D01*
X456920Y587248D02*
Y605282D01*
X443088D02*
X456920D01*
X443088Y587248D02*
X456920D01*
X421920D02*
X435338D01*
X421920D02*
Y605282D01*
X435338D01*
X455650Y546608D02*
Y564642D01*
X441818D02*
X455650D01*
X441818Y546608D02*
X455650D01*
X420650D02*
X434068D01*
X420650D02*
Y564642D01*
X434068D01*
X367310Y575818D02*
Y593852D01*
Y575818D02*
X381142D01*
X367310Y593852D02*
X381142D01*
X388892D02*
X402310D01*
Y575818D02*
Y593852D01*
X388892Y575818D02*
X402310D01*
X675920Y1018032D02*
X689338D01*
X675920Y999998D02*
Y1018032D01*
Y999998D02*
X689338D01*
X697088D02*
X710920D01*
X697088Y1018032D02*
X710920D01*
Y999998D02*
Y1018032D01*
X955548Y951510D02*
Y964928D01*
Y951510D02*
X973582D01*
Y964928D01*
Y972678D02*
Y986510D01*
X955548Y972678D02*
Y986510D01*
X973582D01*
D11*
X745860Y896580D02*
G03*
X745860Y896580I-1250J0D01*
G01*
D12*
X769360Y880830D02*
G03*
X769360Y880830I-3000J0D01*
G01*
D13*
X834009Y678561D02*
G03*
X834009Y678561I-1270J0D01*
G01*
X844169Y695325D02*
Y734695D01*
X913511D01*
Y695325D02*
Y734695D01*
X844169Y695325D02*
X913511D01*
D14*
X379560Y683590D02*
G03*
X379560Y683590I-1000J0D01*
G01*
D02*
G03*
X379560Y683590I-1000J0D01*
G01*
X443060D02*
G03*
X443060Y683590I-1000J0D01*
G01*
X518860Y726440D02*
G03*
X518860Y726440I-1000J0D01*
G01*
Y789940D02*
G03*
X518860Y789940I-1000J0D01*
G01*
X493860Y883590D02*
G03*
X493860Y883590I-1000J0D01*
G01*
X430360D02*
G03*
X430360Y883590I-1000J0D01*
G01*
X366860D02*
G03*
X366860Y883590I-1000J0D01*
G01*
X1136650Y731520D02*
Y782320D01*
X1162050D01*
Y731520D02*
Y782320D01*
X1136650Y731520D02*
X1162050D01*
X537210Y537210D02*
Y562610D01*
Y537210D02*
X588010D01*
Y562610D01*
X537210D02*
X588010D01*
X493878Y706590D02*
Y860590D01*
X316560D02*
X493878D01*
X316560Y722558D02*
Y860590D01*
Y722558D02*
X332528Y706590D01*
X493878D01*
D15*
X770890Y1003300D02*
Y1013460D01*
X735330Y1017270D02*
X768350D01*
X735330Y999490D02*
Y1017270D01*
Y999490D02*
X768350D01*
X1120840Y705970D02*
X1169100D01*
Y531980D02*
Y705970D01*
X1120840Y531980D02*
X1169100D01*
X1133540Y561190D02*
Y671680D01*
X1120840Y684380D02*
X1133540Y671680D01*
X1120840Y684380D02*
Y705970D01*
Y548490D02*
X1133540Y561190D01*
X1120840Y531980D02*
Y548490D01*
X1004508Y658870D02*
X1021508D01*
X1004508Y689870D02*
X1021508D01*
Y688870D02*
Y689870D01*
X1004508Y688870D02*
Y689870D01*
Y658870D02*
Y659870D01*
X1021508Y658870D02*
Y659870D01*
X735330Y972820D02*
Y982980D01*
X737870Y969010D02*
X770890D01*
Y986790D01*
X737870D02*
X770890D01*
X711200Y970280D02*
Y980440D01*
X675640Y984250D02*
X708660D01*
X675640Y966470D02*
Y984250D01*
Y966470D02*
X708660D01*
X500380Y627380D02*
Y637540D01*
X464820Y641350D02*
X497840D01*
X464820Y623570D02*
Y641350D01*
Y623570D02*
X497840D01*
X500380Y591820D02*
Y601980D01*
X464820Y605790D02*
X497840D01*
X464820Y588010D02*
Y605790D01*
Y588010D02*
X497840D01*
X500380Y551180D02*
Y561340D01*
X464820Y565150D02*
X497840D01*
X464820Y547370D02*
Y565150D01*
Y547370D02*
X497840D01*
X334500Y1213480D02*
Y1223480D01*
X329500Y1218480D02*
X339500D01*
X1184500Y1213480D02*
X1194500D01*
X376750Y1276730D02*
X1147250D01*
X376750Y1070230D02*
X1147250D01*
X376750D02*
Y1137980D01*
Y1208980D02*
Y1276730D01*
X1147250Y1070230D02*
Y1137980D01*
Y1208980D02*
Y1276730D01*
X1026297Y732530D02*
Y733530D01*
X1009297Y732530D02*
Y733530D01*
Y762530D02*
Y763530D01*
X1026297Y762530D02*
Y763530D01*
X1009297D02*
X1026297D01*
X1009297Y732530D02*
X1026297D01*
D16*
X914654Y959612D02*
X939800D01*
Y934720D02*
Y1011682D01*
X914400Y934720D02*
X939800D01*
X889000D02*
X914400D01*
X889000D02*
Y1011682D01*
X939800D01*
X857350Y965496D02*
Y970068D01*
X871066Y965496D02*
Y970068D01*
X490982Y997812D02*
Y1002384D01*
X504698Y997812D02*
Y1002384D01*
X1063286Y747930D02*
X1067858D01*
X1063286Y734214D02*
X1067858D01*
X1058412Y668120D02*
X1062984D01*
X1058412Y681836D02*
X1062984D01*
X750782Y942440D02*
X755354D01*
X750782Y956156D02*
X755354D01*
X691742Y955548D02*
X696314D01*
X691742Y941832D02*
X696314D01*
X679550Y834686D02*
Y839258D01*
X693266Y834686D02*
Y839258D01*
X553205Y725382D02*
Y729954D01*
X539489Y725382D02*
Y729954D01*
X435822Y624940D02*
X440394D01*
X435822Y638656D02*
X440394D01*
X437092Y589380D02*
X441664D01*
X437092Y603096D02*
X441664D01*
X435822Y548740D02*
X440394D01*
X435822Y562456D02*
X440394D01*
X382566Y591720D02*
X387138D01*
X382566Y578004D02*
X387138D01*
X650240Y528320D02*
Y554736D01*
X623570Y528320D02*
X930910D01*
X623570D02*
Y553974D01*
Y581660D01*
X930910D01*
Y528320D02*
Y581660D01*
X691092Y1015846D02*
X695664D01*
X691092Y1002130D02*
X695664D01*
X957734Y966682D02*
Y971254D01*
X971450Y966682D02*
Y971254D01*
X956310Y462280D02*
X1040130D01*
X956310Y600710D02*
X1040130D01*
X956310Y462280D02*
Y600710D01*
X1040130Y462280D02*
Y600710D01*
X956310Y480060D02*
X1040130D01*
D17*
X1172080Y812800D02*
Y914400D01*
X1113080D02*
X1172080D01*
X1113080Y812800D02*
Y914400D01*
Y812800D02*
X1172080D01*
X1113080Y925830D02*
X1172080D01*
X1113080D02*
Y1052830D01*
X1172080D01*
Y925830D02*
Y1052830D01*
X316360Y1008380D02*
X375360D01*
Y906780D02*
Y1008380D01*
X316360Y906780D02*
X375360D01*
X316360D02*
Y1008380D01*
D18*
X624440Y940010D02*
X650540D01*
Y896310D02*
Y940010D01*
X624440Y896310D02*
X650540D01*
X624440D02*
Y940010D01*
X591058Y696976D02*
X602488D01*
X616712D02*
X628142D01*
Y753364D01*
X591058Y696976D02*
Y753364D01*
X603250Y712470D02*
Y737870D01*
X615950D01*
Y712470D02*
Y737870D01*
X603250Y712470D02*
X615950D01*
X591058Y753364D02*
X602488D01*
X616712D02*
X628142D01*
X318008Y567436D02*
X329438D01*
X343662D02*
X355092D01*
Y623824D01*
X318008Y567436D02*
Y623824D01*
X330200Y582930D02*
Y608330D01*
X342900D01*
Y582930D02*
Y608330D01*
X330200Y582930D02*
X342900D01*
X318008Y623824D02*
X329438D01*
X343662D02*
X355092D01*
X464312Y1008634D02*
X475742D01*
X438658D02*
X450088D01*
X450850Y967740D02*
X463550D01*
Y993140D01*
X450850D02*
X463550D01*
X450850Y967740D02*
Y993140D01*
X438658Y952246D02*
Y1008634D01*
X475742Y952246D02*
Y1008634D01*
X464312Y952246D02*
X475742D01*
X438658D02*
X450088D01*
X774709Y1018538D02*
Y1003303D01*
X784866D01*
X800101Y1018538D02*
X789944D01*
Y1003303D01*
X800101D01*
X789944Y1010920D02*
X795023D01*
X805179Y1018538D02*
Y1003303D01*
X812797D01*
X815336Y1005842D01*
Y1015998D01*
X812797Y1018538D01*
X805179D01*
X820414Y1015998D02*
X822953Y1018538D01*
X828032D01*
X830571Y1015998D01*
Y1013459D01*
X828032Y1010920D01*
X825493D01*
X828032D01*
X830571Y1008381D01*
Y1005842D01*
X828032Y1003303D01*
X822953D01*
X820414Y1005842D01*
X906783Y1031237D02*
X901704D01*
X904243D01*
Y1018542D01*
X901704Y1016003D01*
X899165D01*
X896626Y1018542D01*
X911861Y1016003D02*
Y1031237D01*
X919478D01*
X922018Y1028698D01*
Y1023620D01*
X919478Y1021081D01*
X911861D01*
X927096Y1016003D02*
X932174D01*
X929635D01*
Y1031237D01*
X927096Y1028698D01*
X844554Y989333D02*
Y1004567D01*
X852172D01*
X854711Y1002028D01*
Y996950D01*
X852172Y994411D01*
X844554D01*
X849632D02*
X854711Y989333D01*
X869946Y1004567D02*
X859789D01*
Y996950D01*
X864867Y999489D01*
X867407D01*
X869946Y996950D01*
Y991872D01*
X867407Y989333D01*
X862328D01*
X859789Y991872D01*
X486414Y1017272D02*
Y1032507D01*
X494032D01*
X496571Y1029968D01*
Y1024890D01*
X494032Y1022351D01*
X486414D01*
X491493D02*
X496571Y1017272D01*
X511806D02*
X501649D01*
X511806Y1027429D01*
Y1029968D01*
X509267Y1032507D01*
X504188D01*
X501649Y1029968D01*
X635505Y605531D02*
X630426D01*
X632966D01*
Y592835D01*
X630426Y590296D01*
X627887D01*
X625348Y592835D01*
X640583Y590296D02*
Y605531D01*
X648201D01*
X650740Y602992D01*
Y597914D01*
X648201Y595374D01*
X640583D01*
X665975Y590296D02*
X655818D01*
X665975Y600453D01*
Y602992D01*
X663436Y605531D01*
X658357D01*
X655818Y602992D01*
X622303Y885188D02*
Y882648D01*
X627382Y877570D01*
X632460Y882648D01*
Y885188D01*
X627382Y877570D02*
Y869952D01*
X637538D02*
X642617D01*
X640078D01*
Y885188D01*
X637538Y882648D01*
X1002034Y711198D02*
Y698502D01*
X1004573Y695963D01*
X1009652D01*
X1012191Y698502D01*
Y711198D01*
X1024887Y695963D02*
Y711198D01*
X1017269Y703580D01*
X1027426D01*
X317500Y909061D02*
Y896365D01*
X320039Y893826D01*
X325117D01*
X327657Y896365D01*
Y909061D01*
X342892D02*
X332735D01*
Y901443D01*
X337813Y903983D01*
X340353D01*
X342892Y901443D01*
Y896365D01*
X340353Y893826D01*
X335274D01*
X332735Y896365D01*
X999001Y789173D02*
Y776477D01*
X1001541Y773938D01*
X1006619D01*
X1009158Y776477D01*
Y789173D01*
X1014236Y786634D02*
X1016776Y789173D01*
X1021854D01*
X1024393Y786634D01*
Y784095D01*
X1021854Y781555D01*
X1019315D01*
X1021854D01*
X1024393Y779016D01*
Y776477D01*
X1021854Y773938D01*
X1016776D01*
X1014236Y776477D01*
X703584Y918207D02*
Y905512D01*
X706123Y902972D01*
X711202D01*
X713741Y905512D01*
Y918207D01*
X728976Y902972D02*
X718819D01*
X728976Y913129D01*
Y915668D01*
X726437Y918207D01*
X721358D01*
X718819Y915668D01*
X1129033Y723897D02*
Y711202D01*
X1131572Y708662D01*
X1136651D01*
X1139190Y711202D01*
Y723897D01*
X1144268Y708662D02*
X1149347D01*
X1146808D01*
Y723897D01*
X1144268Y721358D01*
X596903Y783588D02*
X594364Y786127D01*
X589286D01*
X586747Y783588D01*
Y781049D01*
X589286Y778510D01*
X594364D01*
X596903Y775971D01*
Y773432D01*
X594364Y770892D01*
X589286D01*
X586747Y773432D01*
X601982Y786127D02*
Y770892D01*
X607060Y775971D01*
X612138Y770892D01*
Y786127D01*
X617217Y783588D02*
X619756Y786127D01*
X624834D01*
X627373Y783588D01*
Y781049D01*
X624834Y778510D01*
X622295D01*
X624834D01*
X627373Y775971D01*
Y773432D01*
X624834Y770892D01*
X619756D01*
X617217Y773432D01*
X322583Y651508D02*
X320044Y654047D01*
X314966D01*
X312427Y651508D01*
Y648969D01*
X314966Y646430D01*
X320044D01*
X322583Y643891D01*
Y641352D01*
X320044Y638812D01*
X314966D01*
X312427Y641352D01*
X327662Y654047D02*
Y638812D01*
X332740Y643891D01*
X337818Y638812D01*
Y654047D01*
X353053Y638812D02*
X342897D01*
X353053Y648969D01*
Y651508D01*
X350514Y654047D01*
X345436D01*
X342897Y651508D01*
X450085Y1042666D02*
X447546Y1045205D01*
X442467D01*
X439928Y1042666D01*
Y1040127D01*
X442467Y1037588D01*
X447546D01*
X450085Y1035048D01*
Y1032509D01*
X447546Y1029970D01*
X442467D01*
X439928Y1032509D01*
X455163Y1045205D02*
Y1029970D01*
X460241Y1035048D01*
X465320Y1029970D01*
Y1045205D01*
X470398Y1029970D02*
X475476D01*
X472937D01*
Y1045205D01*
X470398Y1042666D01*
X1083314Y668023D02*
Y683258D01*
X1090932D01*
X1093471Y680718D01*
Y675640D01*
X1090932Y673101D01*
X1083314D01*
X1088392D02*
X1093471Y668023D01*
X1098549Y670562D02*
X1101088Y668023D01*
X1106167D01*
X1108706Y670562D01*
Y680718D01*
X1106167Y683258D01*
X1101088D01*
X1098549Y680718D01*
Y678179D01*
X1101088Y675640D01*
X1108706D01*
X417836Y567692D02*
Y582928D01*
X425454D01*
X427993Y580388D01*
Y575310D01*
X425454Y572771D01*
X417836D01*
X422915D02*
X427993Y567692D01*
X433071D02*
X438150D01*
X435610D01*
Y582928D01*
X433071Y580388D01*
X453385Y567692D02*
Y582928D01*
X445767Y575310D01*
X455924D01*
X419106Y643893D02*
Y659128D01*
X426724D01*
X429263Y656588D01*
Y651510D01*
X426724Y648971D01*
X419106D01*
X424184D02*
X429263Y643893D01*
X434341D02*
X439420D01*
X436880D01*
Y659128D01*
X434341Y656588D01*
X447037D02*
X449576Y659128D01*
X454655D01*
X457194Y656588D01*
Y654049D01*
X454655Y651510D01*
X452116D01*
X454655D01*
X457194Y648971D01*
Y646432D01*
X454655Y643893D01*
X449576D01*
X447037Y646432D01*
X420376Y607062D02*
Y622298D01*
X427994D01*
X430533Y619758D01*
Y614680D01*
X427994Y612141D01*
X420376D01*
X425454D02*
X430533Y607062D01*
X435611D02*
X440690D01*
X438150D01*
Y622298D01*
X435611Y619758D01*
X458464Y607062D02*
X448307D01*
X458464Y617219D01*
Y619758D01*
X455925Y622298D01*
X450846D01*
X448307Y619758D01*
X525785Y690882D02*
Y706117D01*
X533403D01*
X535942Y703578D01*
Y698500D01*
X533403Y695961D01*
X525785D01*
X530864D02*
X535942Y690882D01*
X541020D02*
X546099D01*
X543560D01*
Y706117D01*
X541020Y703578D01*
X553716Y690882D02*
X558795D01*
X556255D01*
Y706117D01*
X553716Y703578D01*
X365766Y557533D02*
Y572767D01*
X373384D01*
X375923Y570228D01*
Y565150D01*
X373384Y562611D01*
X365766D01*
X370844D02*
X375923Y557533D01*
X381001D02*
X386080D01*
X383540D01*
Y572767D01*
X381001Y570228D01*
X393697D02*
X396236Y572767D01*
X401315D01*
X403854Y570228D01*
Y560072D01*
X401315Y557533D01*
X396236D01*
X393697Y560072D01*
Y570228D01*
X678184Y858522D02*
Y873757D01*
X685802D01*
X688341Y871218D01*
Y866140D01*
X685802Y863601D01*
X678184D01*
X683262D02*
X688341Y858522D01*
X693419Y871218D02*
X695958Y873757D01*
X701037D01*
X703576Y871218D01*
Y868679D01*
X701037Y866140D01*
X703576Y863601D01*
Y861062D01*
X701037Y858522D01*
X695958D01*
X693419Y861062D01*
Y863601D01*
X695958Y866140D01*
X693419Y868679D01*
Y871218D01*
X695958Y866140D02*
X701037D01*
X1085854Y734062D02*
Y749297D01*
X1093472D01*
X1096011Y746758D01*
Y741680D01*
X1093472Y739141D01*
X1085854D01*
X1090932D02*
X1096011Y734062D01*
X1101089Y749297D02*
X1111246D01*
Y746758D01*
X1101089Y736602D01*
Y734062D01*
X957072Y995172D02*
Y1010407D01*
X964689D01*
X967229Y1007868D01*
Y1002790D01*
X964689Y1000250D01*
X957072D01*
X962150D02*
X967229Y995172D01*
X982464Y1010407D02*
X977385Y1007868D01*
X972307Y1002790D01*
Y997711D01*
X974846Y995172D01*
X979925D01*
X982464Y997711D01*
Y1000250D01*
X979925Y1002790D01*
X972307D01*
X677418Y1026668D02*
Y1041903D01*
X685035D01*
X687575Y1039364D01*
Y1034286D01*
X685035Y1031746D01*
X677418D01*
X682496D02*
X687575Y1026668D01*
X700271D02*
Y1041903D01*
X692653Y1034286D01*
X702810D01*
X774704Y943613D02*
Y958848D01*
X782322D01*
X784861Y956308D01*
Y951230D01*
X782322Y948691D01*
X774704D01*
X779782D02*
X784861Y943613D01*
X789939Y956308D02*
X792478Y958848D01*
X797557D01*
X800096Y956308D01*
Y953769D01*
X797557Y951230D01*
X795017D01*
X797557D01*
X800096Y948691D01*
Y946152D01*
X797557Y943613D01*
X792478D01*
X789939Y946152D01*
X652783Y947422D02*
Y962657D01*
X660401D01*
X662940Y960118D01*
Y955040D01*
X660401Y952501D01*
X652783D01*
X657862D02*
X662940Y947422D01*
X668018D02*
X673097D01*
X670558D01*
Y962657D01*
X668018Y960118D01*
X318008Y1017016D02*
Y1032251D01*
X325625D01*
X328165Y1029712D01*
Y1024633D01*
X325625Y1022094D01*
X318008D01*
X333243Y1029712D02*
X335782Y1032251D01*
X340861D01*
X343400Y1029712D01*
Y1027173D01*
X340861Y1024633D01*
X338321D01*
X340861D01*
X343400Y1022094D01*
Y1019555D01*
X340861Y1017016D01*
X335782D01*
X333243Y1019555D01*
X1114552Y1061466D02*
Y1076701D01*
X1122169D01*
X1124709Y1074162D01*
Y1069083D01*
X1122169Y1066544D01*
X1114552D01*
X1139944Y1061466D02*
X1129787D01*
X1139944Y1071623D01*
Y1074162D01*
X1137405Y1076701D01*
X1132326D01*
X1129787Y1074162D01*
X1089663Y896622D02*
Y911858D01*
X1097281D01*
X1099820Y909318D01*
Y904240D01*
X1097281Y901701D01*
X1089663D01*
X1104898Y896622D02*
X1109977D01*
X1107438D01*
Y911858D01*
X1104898Y909318D01*
X461019Y584198D02*
Y568963D01*
X471176D01*
X486411Y584198D02*
X476254D01*
Y568963D01*
X486411D01*
X476254Y576580D02*
X481333D01*
X491489Y584198D02*
Y568963D01*
X499107D01*
X501646Y571502D01*
Y581658D01*
X499107Y584198D01*
X491489D01*
X516881D02*
X511803Y581658D01*
X506724Y576580D01*
Y571502D01*
X509263Y568963D01*
X514342D01*
X516881Y571502D01*
Y574041D01*
X514342Y576580D01*
X506724D01*
X463559Y657858D02*
Y642623D01*
X473716D01*
X488951Y657858D02*
X478794D01*
Y642623D01*
X488951D01*
X478794Y650240D02*
X483872D01*
X494029Y657858D02*
Y642623D01*
X501647D01*
X504186Y645162D01*
Y655318D01*
X501647Y657858D01*
X494029D01*
X519421D02*
X509264D01*
Y650240D01*
X514343Y652779D01*
X516882D01*
X519421Y650240D01*
Y645162D01*
X516882Y642623D01*
X511803D01*
X509264Y645162D01*
X466099Y623568D02*
Y608332D01*
X476256D01*
X491491Y623568D02*
X481334D01*
Y608332D01*
X491491D01*
X481334Y615950D02*
X486413D01*
X496569Y623568D02*
Y608332D01*
X504187D01*
X506726Y610872D01*
Y621028D01*
X504187Y623568D01*
X496569D01*
X519422Y608332D02*
Y623568D01*
X511804Y615950D01*
X521961D01*
X774709Y986787D02*
Y971553D01*
X784866D01*
X800101Y986787D02*
X789944D01*
Y971553D01*
X800101D01*
X789944Y979170D02*
X795023D01*
X805179Y986787D02*
Y971553D01*
X812797D01*
X815336Y974092D01*
Y984248D01*
X812797Y986787D01*
X805179D01*
X830571Y971553D02*
X820414D01*
X830571Y981709D01*
Y984248D01*
X828032Y986787D01*
X822953D01*
X820414Y984248D01*
X623578Y984248D02*
Y969013D01*
X633735D01*
X648970Y984248D02*
X638813D01*
Y969013D01*
X648970D01*
X638813Y976630D02*
X643892D01*
X654048Y984248D02*
Y969013D01*
X661666D01*
X664205Y971552D01*
Y981708D01*
X661666Y984248D01*
X654048D01*
X669283Y969013D02*
X674362D01*
X671823D01*
Y984248D01*
X669283Y981708D01*
X551189Y565153D02*
X553728D01*
X556267Y567692D01*
Y580388D01*
X566424Y565153D02*
Y580388D01*
X574042D01*
X576581Y577849D01*
Y572771D01*
X574042Y570232D01*
X566424D01*
X581659Y567692D02*
X591816D01*
X607051Y570232D02*
X596894D01*
X607051Y580388D01*
Y582928D01*
X604512Y585467D01*
X599433D01*
X596894Y582928D01*
X1126498Y789943D02*
X1129037D01*
X1131577Y792483D01*
Y805178D01*
X1141733Y789943D02*
Y805178D01*
X1149351D01*
X1151890Y802639D01*
Y797561D01*
X1149351Y795022D01*
X1141733D01*
X1156968Y792483D02*
X1167125D01*
X1172203Y795022D02*
X1177282D01*
X1174743D01*
Y810257D01*
X1172203Y807718D01*
X964181Y638551D02*
X959102D01*
X961641D01*
Y625855D01*
X959102Y623316D01*
X956563D01*
X954024Y625855D01*
X969259Y638551D02*
Y623316D01*
X976877D01*
X979416Y625855D01*
Y636012D01*
X976877Y638551D01*
X969259D01*
X994651Y636012D02*
X992112Y638551D01*
X987033D01*
X984494Y636012D01*
Y625855D01*
X987033Y623316D01*
X992112D01*
X994651Y625855D01*
X999729Y623316D02*
X1004808D01*
X1002268D01*
Y638551D01*
X999729Y636012D01*
X833120Y781299D02*
X838198D01*
X835659D01*
Y766064D01*
X833120D01*
X838198D01*
X855973Y778760D02*
X853433Y781299D01*
X848355D01*
X845816Y778760D01*
Y768603D01*
X848355Y766064D01*
X853433D01*
X855973Y768603D01*
X861051Y766064D02*
X866129D01*
X863590D01*
Y781299D01*
X861051Y778760D01*
X1050293Y628648D02*
X1047754Y631188D01*
X1042675D01*
X1040136Y628648D01*
Y618492D01*
X1042675Y615952D01*
X1047754D01*
X1050293Y618492D01*
X1055371Y615952D02*
X1060450D01*
X1057910D01*
Y631188D01*
X1055371Y628648D01*
X1068067Y631188D02*
X1078224D01*
Y628648D01*
X1068067Y618492D01*
Y615952D01*
X967743Y708658D02*
X965204Y711198D01*
X960125D01*
X957586Y708658D01*
Y698502D01*
X960125Y695963D01*
X965204D01*
X967743Y698502D01*
X972821Y695963D02*
X977900D01*
X975360D01*
Y711198D01*
X972821Y708658D01*
X995674Y711198D02*
X990595Y708658D01*
X985517Y703580D01*
Y698502D01*
X988056Y695963D01*
X993135D01*
X995674Y698502D01*
Y701041D01*
X993135Y703580D01*
X985517D01*
X935993Y657858D02*
X933454Y660397D01*
X928375D01*
X925836Y657858D01*
Y647702D01*
X928375Y645163D01*
X933454D01*
X935993Y647702D01*
X941071Y645163D02*
X946150D01*
X943610D01*
Y660397D01*
X941071Y657858D01*
X963924Y660397D02*
X953767D01*
Y652780D01*
X958846Y655319D01*
X961385D01*
X963924Y652780D01*
Y647702D01*
X961385Y645163D01*
X956306D01*
X953767Y647702D01*
X533403Y596898D02*
X530864Y599437D01*
X525786D01*
X523247Y596898D01*
Y586742D01*
X525786Y584202D01*
X530864D01*
X533403Y586742D01*
X548638Y584202D02*
X538482D01*
X548638Y594359D01*
Y596898D01*
X546099Y599437D01*
X541021D01*
X538482Y596898D01*
X561334Y584202D02*
Y599437D01*
X553717Y591820D01*
X563873D01*
X562613Y760728D02*
X560074Y763268D01*
X554996D01*
X552457Y760728D01*
Y750572D01*
X554996Y748033D01*
X560074D01*
X562613Y750572D01*
X577848Y748033D02*
X567692D01*
X577848Y758189D01*
Y760728D01*
X575309Y763268D01*
X570231D01*
X567692Y760728D01*
X582927D02*
X585466Y763268D01*
X590544D01*
X593083Y760728D01*
Y758189D01*
X590544Y755650D01*
X588005D01*
X590544D01*
X593083Y753111D01*
Y750572D01*
X590544Y748033D01*
X585466D01*
X582927Y750572D01*
X373383Y638808D02*
X370844Y641348D01*
X365766D01*
X363227Y638808D01*
Y628652D01*
X365766Y626113D01*
X370844D01*
X373383Y628652D01*
X388618Y626113D02*
X378462D01*
X388618Y636269D01*
Y638808D01*
X386079Y641348D01*
X381001D01*
X378462Y638808D01*
X403853Y626113D02*
X393697D01*
X403853Y636269D01*
Y638808D01*
X401314Y641348D01*
X396236D01*
X393697Y638808D01*
X572773Y636268D02*
X570234Y638807D01*
X565155D01*
X562616Y636268D01*
Y626112D01*
X565155Y623573D01*
X570234D01*
X572773Y626112D01*
X577851Y623573D02*
X582930D01*
X580390D01*
Y638807D01*
X577851Y636268D01*
X590547Y626112D02*
X593086Y623573D01*
X598165D01*
X600704Y626112D01*
Y636268D01*
X598165Y638807D01*
X593086D01*
X590547Y636268D01*
Y633729D01*
X593086Y631190D01*
X600704D01*
X572773Y659128D02*
X570234Y661667D01*
X565155D01*
X562616Y659128D01*
Y648972D01*
X565155Y646432D01*
X570234D01*
X572773Y648972D01*
X577851Y646432D02*
X582930D01*
X580390D01*
Y661667D01*
X577851Y659128D01*
X590547D02*
X593086Y661667D01*
X598165D01*
X600704Y659128D01*
Y656589D01*
X598165Y654050D01*
X600704Y651511D01*
Y648972D01*
X598165Y646432D01*
X593086D01*
X590547Y648972D01*
Y651511D01*
X593086Y654050D01*
X590547Y656589D01*
Y659128D01*
X593086Y654050D02*
X598165D01*
X809495Y744216D02*
X806955Y746755D01*
X801877D01*
X799338Y744216D01*
Y734059D01*
X801877Y731520D01*
X806955D01*
X809495Y734059D01*
X824730Y731520D02*
X814573D01*
X824730Y741677D01*
Y744216D01*
X822191Y746755D01*
X817112D01*
X814573Y744216D01*
X829808Y731520D02*
X834886D01*
X832347D01*
Y746755D01*
X829808Y744216D01*
X879091Y668016D02*
X876552Y670555D01*
X871473D01*
X868934Y668016D01*
Y657859D01*
X871473Y655320D01*
X876552D01*
X879091Y657859D01*
X894326Y655320D02*
X884169D01*
X894326Y665477D01*
Y668016D01*
X891787Y670555D01*
X886708D01*
X884169Y668016D01*
X899404D02*
X901943Y670555D01*
X907022D01*
X909561Y668016D01*
Y657859D01*
X907022Y655320D01*
X901943D01*
X899404Y657859D01*
Y668016D01*
X553723Y905508D02*
X551184Y908047D01*
X546105D01*
X543566Y905508D01*
Y895352D01*
X546105Y892812D01*
X551184D01*
X553723Y895352D01*
X558801Y892812D02*
X563880D01*
X561340D01*
Y908047D01*
X558801Y905508D01*
X579115Y892812D02*
Y908047D01*
X571497Y900430D01*
X581654D01*
X588013Y958848D02*
X585474Y961387D01*
X580395D01*
X577856Y958848D01*
Y948692D01*
X580395Y946152D01*
X585474D01*
X588013Y948692D01*
X593091Y946152D02*
X598170D01*
X595630D01*
Y961387D01*
X593091Y958848D01*
X605787D02*
X608326Y961387D01*
X613405D01*
X615944Y958848D01*
Y956309D01*
X613405Y953770D01*
X610866D01*
X613405D01*
X615944Y951231D01*
Y948692D01*
X613405Y946152D01*
X608326D01*
X605787Y948692D01*
X1089663Y722628D02*
X1087124Y725167D01*
X1082045D01*
X1079506Y722628D01*
Y712472D01*
X1082045Y709932D01*
X1087124D01*
X1089663Y712472D01*
X1094741Y709932D02*
X1099820D01*
X1097280D01*
Y725167D01*
X1094741Y722628D01*
X1117594Y709932D02*
X1107437D01*
X1117594Y720089D01*
Y722628D01*
X1115055Y725167D01*
X1109976D01*
X1107437Y722628D01*
X600712Y811528D02*
X598173Y814068D01*
X593094D01*
X590555Y811528D01*
Y801372D01*
X593094Y798832D01*
X598173D01*
X600712Y801372D01*
X605790Y798832D02*
X610869D01*
X608330D01*
Y814068D01*
X605790Y811528D01*
X618486Y798832D02*
X623565D01*
X621026D01*
Y814068D01*
X618486Y811528D01*
X943613Y751838D02*
X941074Y754378D01*
X935995D01*
X933456Y751838D01*
Y741682D01*
X935995Y739143D01*
X941074D01*
X943613Y741682D01*
X948691Y739143D02*
X953770D01*
X951230D01*
Y754378D01*
X948691Y751838D01*
X961387D02*
X963926Y754378D01*
X969005D01*
X971544Y751838D01*
Y741682D01*
X969005Y739143D01*
X963926D01*
X961387Y741682D01*
Y751838D01*
X951231Y772158D02*
X948692Y774697D01*
X943613D01*
X941074Y772158D01*
Y762002D01*
X943613Y759463D01*
X948692D01*
X951231Y762002D01*
X956309D02*
X958848Y759463D01*
X963927D01*
X966466Y762002D01*
Y772158D01*
X963927Y774697D01*
X958848D01*
X956309Y772158D01*
Y769619D01*
X958848Y767080D01*
X966466D01*
X600711Y872488D02*
X598172Y875027D01*
X593093D01*
X590554Y872488D01*
Y862332D01*
X593093Y859792D01*
X598172D01*
X600711Y862332D01*
X605789Y872488D02*
X608328Y875027D01*
X613407D01*
X615946Y872488D01*
Y869949D01*
X613407Y867410D01*
X615946Y864871D01*
Y862332D01*
X613407Y859792D01*
X608328D01*
X605789Y862332D01*
Y864871D01*
X608328Y867410D01*
X605789Y869949D01*
Y872488D01*
X608328Y867410D02*
X613407D01*
X1066801Y795018D02*
X1064262Y797558D01*
X1059183D01*
X1056644Y795018D01*
Y784862D01*
X1059183Y782322D01*
X1064262D01*
X1066801Y784862D01*
X1082036Y797558D02*
X1076957Y795018D01*
X1071879Y789940D01*
Y784862D01*
X1074418Y782322D01*
X1079497D01*
X1082036Y784862D01*
Y787401D01*
X1079497Y789940D01*
X1071879D01*
X514352Y955041D02*
X511813Y952502D01*
Y947423D01*
X514352Y944884D01*
X524508D01*
X527048Y947423D01*
Y952502D01*
X524508Y955041D01*
X511813Y960119D02*
Y970276D01*
X514352D01*
X524508Y960119D01*
X527048D01*
X984251Y855978D02*
X981712Y858518D01*
X976633D01*
X974094Y855978D01*
Y845822D01*
X976633Y843282D01*
X981712D01*
X984251Y845822D01*
X999486Y858518D02*
X989329D01*
Y850900D01*
X994408Y853439D01*
X996947D01*
X999486Y850900D01*
Y845822D01*
X996947Y843282D01*
X991868D01*
X989329Y845822D01*
X906781Y854708D02*
X904242Y857247D01*
X899163D01*
X896624Y854708D01*
Y844552D01*
X899163Y842012D01*
X904242D01*
X906781Y844552D01*
X919477Y842012D02*
Y857247D01*
X911859Y849630D01*
X922016D01*
X929641Y798828D02*
X927102Y801367D01*
X922023D01*
X919484Y798828D01*
Y788672D01*
X922023Y786133D01*
X927102D01*
X929641Y788672D01*
X934719Y798828D02*
X937258Y801367D01*
X942337D01*
X944876Y798828D01*
Y796289D01*
X942337Y793750D01*
X939798D01*
X942337D01*
X944876Y791211D01*
Y788672D01*
X942337Y786133D01*
X937258D01*
X934719Y788672D01*
X953771Y855978D02*
X951232Y858518D01*
X946153D01*
X943614Y855978D01*
Y845822D01*
X946153Y843282D01*
X951232D01*
X953771Y845822D01*
X969006Y843282D02*
X958849D01*
X969006Y853439D01*
Y855978D01*
X966467Y858518D01*
X961388D01*
X958849Y855978D01*
X1076960Y1028698D02*
X1074421Y1031237D01*
X1069342D01*
X1066803Y1028698D01*
Y1018542D01*
X1069342Y1016003D01*
X1074421D01*
X1076960Y1018542D01*
X1082038Y1016003D02*
X1087117D01*
X1084578D01*
Y1031237D01*
X1082038Y1028698D01*
X327914Y1302253D02*
Y1287018D01*
X335532D01*
X338071Y1289557D01*
Y1292096D01*
X335532Y1294635D01*
X327914D01*
X335532D01*
X338071Y1297175D01*
Y1299714D01*
X335532Y1302253D01*
X327914D01*
X343149D02*
X353306D01*
X348227D01*
Y1287018D01*
X358384D02*
X363462D01*
X360923D01*
Y1302253D01*
X358384Y1299714D01*
X656591Y924563D02*
X661669D01*
X659130D01*
Y939798D01*
X656591Y937258D01*
D19*
X1181429Y736449D02*
X1179763Y734783D01*
Y731450D01*
X1181429Y729784D01*
X1183095D01*
X1184762Y731450D01*
Y734783D01*
X1186428Y736449D01*
X1188094D01*
X1189760Y734783D01*
Y731450D01*
X1188094Y729784D01*
X1179763Y739781D02*
X1189760D01*
X1186428Y743113D01*
X1189760Y746445D01*
X1179763D01*
X1181429Y756442D02*
X1179763Y754776D01*
Y751444D01*
X1181429Y749778D01*
X1183095D01*
X1184762Y751444D01*
Y754776D01*
X1186428Y756442D01*
X1188094D01*
X1189760Y754776D01*
Y751444D01*
X1188094Y749778D01*
X1179763Y759775D02*
Y766439D01*
Y763107D01*
X1189760D01*
Y769771D02*
X1179763D01*
X1183095Y773104D01*
X1179763Y776436D01*
X1189760D01*
X1200313Y1078460D02*
X1220307D01*
X306233Y1078297D02*
X326227D01*
X316230Y1088294D02*
Y1068300D01*
X724786Y1032973D02*
Y1022976D01*
X731450D01*
X741447Y1032973D02*
X734783D01*
Y1022976D01*
X741447D01*
X734783Y1027974D02*
X738115D01*
X744779Y1032973D02*
Y1022976D01*
X749778D01*
X751444Y1024642D01*
Y1031307D01*
X749778Y1032973D01*
X744779D01*
X754776Y1021310D02*
X761441D01*
X764773Y1022976D02*
Y1032973D01*
X769771D01*
X771437Y1031307D01*
Y1027974D01*
X769771Y1026308D01*
X764773D01*
X774770Y1032973D02*
Y1022976D01*
X778102Y1026308D01*
X781434Y1022976D01*
Y1032973D01*
X739781Y988290D02*
Y998287D01*
X744779D01*
X746445Y996621D01*
Y993288D01*
X744779Y991622D01*
X739781D01*
X749778Y998287D02*
Y988290D01*
X754776D01*
X756442Y989956D01*
Y991622D01*
X754776Y993288D01*
X749778D01*
X754776D01*
X756442Y994955D01*
Y996621D01*
X754776Y998287D01*
X749778D01*
X759774Y989956D02*
X761441Y988290D01*
X764773D01*
X766439Y989956D01*
Y996621D01*
X764773Y998287D01*
X761441D01*
X759774Y996621D01*
Y994955D01*
X761441Y993288D01*
X766439D01*
X677196Y987020D02*
Y997017D01*
X682194D01*
X683860Y995351D01*
Y992018D01*
X682194Y990352D01*
X677196D01*
X693857Y995351D02*
X692191Y997017D01*
X688859D01*
X687192Y995351D01*
Y988686D01*
X688859Y987020D01*
X692191D01*
X693857Y988686D01*
X697189Y987020D02*
X700521D01*
X698855D01*
Y997017D01*
X697189Y995351D01*
X705520D02*
X707186Y997017D01*
X710518D01*
X712184Y995351D01*
Y993684D01*
X710518Y992018D01*
X708852D01*
X710518D01*
X712184Y990352D01*
Y988686D01*
X710518Y987020D01*
X707186D01*
X705520Y988686D01*
X427606Y523703D02*
Y513706D01*
X434270D01*
X444267Y523703D02*
X437603D01*
Y513706D01*
X444267D01*
X437603Y518704D02*
X440935D01*
X447599Y523703D02*
Y513706D01*
X452598D01*
X454264Y515372D01*
Y522037D01*
X452598Y523703D01*
X447599D01*
X457596Y512040D02*
X464261D01*
X467593Y522037D02*
X469259Y523703D01*
X472591D01*
X474257Y522037D01*
Y520371D01*
X472591Y518704D01*
X470925D01*
X472591D01*
X474257Y517038D01*
Y515372D01*
X472591Y513706D01*
X469259D01*
X467593Y515372D01*
X484254Y523703D02*
X477590D01*
Y518704D01*
X480922Y520371D01*
X482588D01*
X484254Y518704D01*
Y515372D01*
X482588Y513706D01*
X479256D01*
X477590Y515372D01*
X427606Y508463D02*
Y498466D01*
X434270D01*
X444267Y508463D02*
X437603D01*
Y498466D01*
X444267D01*
X437603Y503465D02*
X440935D01*
X447599Y508463D02*
Y498466D01*
X452598D01*
X454264Y500132D01*
Y506797D01*
X452598Y508463D01*
X447599D01*
X457596Y496800D02*
X464261D01*
X467593Y506797D02*
X469259Y508463D01*
X472591D01*
X474257Y506797D01*
Y505131D01*
X472591Y503465D01*
X470925D01*
X472591D01*
X474257Y501798D01*
Y500132D01*
X472591Y498466D01*
X469259D01*
X467593Y500132D01*
X482588Y498466D02*
Y508463D01*
X477590Y503465D01*
X484254D01*
X427606Y491953D02*
Y481956D01*
X434270D01*
X444267Y491953D02*
X437603D01*
Y481956D01*
X444267D01*
X437603Y486954D02*
X440935D01*
X447599Y491953D02*
Y481956D01*
X452598D01*
X454264Y483622D01*
Y490287D01*
X452598Y491953D01*
X447599D01*
X457596Y480290D02*
X464261D01*
X467593Y481956D02*
Y491953D01*
X472591D01*
X474257Y490287D01*
Y486954D01*
X472591Y485288D01*
X467593D01*
X477590Y491953D02*
Y481956D01*
X480922Y485288D01*
X484254Y481956D01*
Y491953D01*
X543490Y522037D02*
X541824Y523703D01*
X538492D01*
X536826Y522037D01*
Y520371D01*
X538492Y518704D01*
X541824D01*
X543490Y517038D01*
Y515372D01*
X541824Y513706D01*
X538492D01*
X536826Y515372D01*
X546823Y523703D02*
Y513706D01*
X550155Y517038D01*
X553487Y513706D01*
Y523703D01*
X556819Y512040D02*
X563484D01*
X573481Y523703D02*
X566816D01*
Y513706D01*
X573481D01*
X566816Y518704D02*
X570148D01*
X583477Y522037D02*
X581811Y523703D01*
X578479D01*
X576813Y522037D01*
Y520371D01*
X578479Y518704D01*
X581811D01*
X583477Y517038D01*
Y515372D01*
X581811Y513706D01*
X578479D01*
X576813Y515372D01*
X586810Y513706D02*
Y523703D01*
X591808D01*
X593474Y522037D01*
Y518704D01*
X591808Y517038D01*
X586810D01*
X1183573Y823519D02*
Y830184D01*
Y826852D01*
X1193570D01*
X1183573Y833516D02*
X1193570Y840181D01*
X1183573D02*
X1193570Y833516D01*
Y853999D02*
X1183573D01*
Y858998D01*
X1185239Y860664D01*
X1188572D01*
X1190238Y858998D01*
Y853999D01*
Y857332D02*
X1193570Y860664D01*
X1183573Y863996D02*
X1193570Y870661D01*
X1183573D02*
X1193570Y863996D01*
X1185239Y889956D02*
X1183573Y888289D01*
Y884957D01*
X1185239Y883291D01*
X1191904D01*
X1193570Y884957D01*
Y888289D01*
X1191904Y889956D01*
X1188572D01*
Y886623D01*
X1193570Y893288D02*
X1183573D01*
X1193570Y899952D01*
X1183573D01*
Y903285D02*
X1193570D01*
Y908283D01*
X1191904Y909949D01*
X1185239D01*
X1183573Y908283D01*
Y903285D01*
X1178889Y1029656D02*
X1177223Y1027989D01*
Y1024657D01*
X1178889Y1022991D01*
X1185554D01*
X1187220Y1024657D01*
Y1027989D01*
X1185554Y1029656D01*
X1182222D01*
Y1026323D01*
X1187220Y1032988D02*
X1177223D01*
X1187220Y1039652D01*
X1177223D01*
Y1042985D02*
X1187220D01*
Y1047983D01*
X1185554Y1049649D01*
X1178889D01*
X1177223Y1047983D01*
Y1042985D01*
X1200479Y994259D02*
X1198813Y992593D01*
Y989260D01*
X1200479Y987594D01*
X1202145D01*
X1203812Y989260D01*
Y992593D01*
X1205478Y994259D01*
X1207144D01*
X1208810Y992593D01*
Y989260D01*
X1207144Y987594D01*
X1198813Y997591D02*
X1208810D01*
X1205478Y1000923D01*
X1208810Y1004256D01*
X1198813D01*
X1200479Y1014252D02*
X1198813Y1012586D01*
Y1009254D01*
X1200479Y1007588D01*
X1207144D01*
X1208810Y1009254D01*
Y1012586D01*
X1207144Y1014252D01*
X1198813Y1017585D02*
X1208810D01*
Y1024249D01*
X1198813Y1027581D02*
X1208810D01*
X1205478D01*
X1198813Y1034246D01*
X1203812Y1029248D01*
X1208810Y1034246D01*
X1181429Y960720D02*
X1179763Y959054D01*
Y955722D01*
X1181429Y954056D01*
X1183095D01*
X1184762Y955722D01*
Y959054D01*
X1186428Y960720D01*
X1188094D01*
X1189760Y959054D01*
Y955722D01*
X1188094Y954056D01*
X1179763Y964052D02*
X1189760D01*
X1186428Y967385D01*
X1189760Y970717D01*
X1179763D01*
Y974049D02*
Y977382D01*
Y975715D01*
X1189760D01*
Y974049D01*
Y977382D01*
X1179763Y987378D02*
Y984046D01*
X1181429Y982380D01*
X1188094D01*
X1189760Y984046D01*
Y987378D01*
X1188094Y989044D01*
X1181429D01*
X1179763Y987378D01*
X1201749Y934091D02*
X1200083Y935757D01*
Y939089D01*
X1201749Y940755D01*
X1203416D01*
X1205082Y939089D01*
Y937423D01*
Y939089D01*
X1206748Y940755D01*
X1208414D01*
X1210080Y939089D01*
Y935757D01*
X1208414Y934091D01*
X1200083Y944088D02*
X1206748D01*
X1210080Y947420D01*
X1206748Y950752D01*
X1200083D01*
X1201749Y954085D02*
X1200083Y955751D01*
Y959083D01*
X1201749Y960749D01*
X1203416D01*
X1205082Y959083D01*
Y957417D01*
Y959083D01*
X1206748Y960749D01*
X1208414D01*
X1210080Y959083D01*
Y955751D01*
X1208414Y954085D01*
X952270Y1007984D02*
Y1011316D01*
Y1009650D01*
X942273D01*
X943939Y1007984D01*
X885675Y1006714D02*
Y1010046D01*
Y1008380D01*
X875678D01*
X877345Y1006714D01*
X943939Y932658D02*
X942273Y934324D01*
Y937656D01*
X943939Y939322D01*
X950604D01*
X952270Y937656D01*
Y934324D01*
X950604Y932658D01*
X943939D01*
X877899D02*
X876233Y934324D01*
Y937656D01*
X877899Y939322D01*
X884564D01*
X886230Y937656D01*
Y934324D01*
X884564Y932658D01*
X877899D01*
X942273Y953700D02*
X952270D01*
Y958699D01*
X950604Y960365D01*
X948938D01*
X947272Y958699D01*
Y953700D01*
Y958699D01*
X945605Y960365D01*
X943939D01*
X942273Y958699D01*
Y953700D01*
Y968696D02*
Y965363D01*
X943939Y963697D01*
X950604D01*
X952270Y965363D01*
Y968696D01*
X950604Y970362D01*
X943939D01*
X942273Y968696D01*
Y978692D02*
Y975360D01*
X943939Y973694D01*
X950604D01*
X952270Y975360D01*
Y978692D01*
X950604Y980358D01*
X943939D01*
X942273Y978692D01*
Y983691D02*
Y990355D01*
Y987023D01*
X952270D01*
Y993687D02*
Y997020D01*
Y995354D01*
X942273D01*
X943939Y993687D01*
X876233Y952034D02*
X886230D01*
Y957033D01*
X884564Y958699D01*
X882898D01*
X881232Y957033D01*
Y952034D01*
Y957033D01*
X879566Y958699D01*
X877899D01*
X876233Y957033D01*
Y952034D01*
Y967029D02*
Y963697D01*
X877899Y962031D01*
X884564D01*
X886230Y963697D01*
Y967029D01*
X884564Y968696D01*
X877899D01*
X876233Y967029D01*
Y977026D02*
Y973694D01*
X877899Y972028D01*
X884564D01*
X886230Y973694D01*
Y977026D01*
X884564Y978692D01*
X877899D01*
X876233Y977026D01*
Y982025D02*
Y988689D01*
Y985357D01*
X886230D01*
X877899Y992021D02*
X876233Y993688D01*
Y997020D01*
X877899Y998686D01*
X884564D01*
X886230Y997020D01*
Y993688D01*
X884564Y992021D01*
X877899D01*
X907421Y515850D02*
Y525847D01*
X912419D01*
X914085Y524181D01*
Y520848D01*
X912419Y519182D01*
X907421D01*
X910753D02*
X914085Y515850D01*
X924082Y524181D02*
X922416Y525847D01*
X919084D01*
X917418Y524181D01*
Y522514D01*
X919084Y520848D01*
X922416D01*
X924082Y519182D01*
Y517516D01*
X922416Y515850D01*
X919084D01*
X917418Y517516D01*
X927414Y525847D02*
X934079D01*
X930747D01*
Y515850D01*
X427687Y927726D02*
Y937723D01*
X432686D01*
X434352Y936057D01*
Y932725D01*
X432686Y931058D01*
X427687D01*
X431020D02*
X434352Y927726D01*
X444349Y936057D02*
X442683Y937723D01*
X439350D01*
X437684Y936057D01*
Y934391D01*
X439350Y932725D01*
X442683D01*
X444349Y931058D01*
Y929392D01*
X442683Y927726D01*
X439350D01*
X437684Y929392D01*
X447681Y937723D02*
X454346D01*
X451013D01*
Y927726D01*
X457678Y926060D02*
X464342D01*
X474339Y936057D02*
X472673Y937723D01*
X469341D01*
X467674Y936057D01*
Y934391D01*
X469341Y932725D01*
X472673D01*
X474339Y931058D01*
Y929392D01*
X472673Y927726D01*
X469341D01*
X467674Y929392D01*
X477671Y937723D02*
X484336D01*
X481004D01*
Y927726D01*
X487668D02*
Y937723D01*
X491000Y934391D01*
X494333Y937723D01*
Y927726D01*
X388291Y927414D02*
X389957Y929081D01*
Y932413D01*
X388291Y934079D01*
X381626D01*
X379960Y932413D01*
Y929081D01*
X381626Y927414D01*
X384958D01*
Y930747D01*
X379960Y924082D02*
X389957D01*
X379960Y917418D01*
X389957D01*
Y914085D02*
X379960D01*
Y909087D01*
X381626Y907421D01*
X388291D01*
X389957Y909087D01*
Y914085D01*
Y970909D02*
Y964245D01*
Y967577D01*
X379960D01*
X389957Y960912D02*
X379960Y954248D01*
X389957D02*
X379960Y960912D01*
X388291Y950915D02*
X389957Y949249D01*
Y945917D01*
X388291Y944251D01*
X381626D01*
X379960Y945917D01*
Y949249D01*
X381626Y950915D01*
X388291D01*
X379960Y1010279D02*
X389957D01*
Y1005281D01*
X388291Y1003615D01*
X384958D01*
X383292Y1005281D01*
Y1010279D01*
Y1006947D02*
X379960Y1003615D01*
X389957Y1000282D02*
X379960Y993618D01*
X389957D02*
X379960Y1000282D01*
X388291Y990285D02*
X389957Y988619D01*
Y985287D01*
X388291Y983621D01*
X381626D01*
X379960Y985287D01*
Y988619D01*
X381626Y990285D01*
X388291D01*
X303197Y914261D02*
X311528D01*
X313194Y915927D01*
Y919259D01*
X311528Y920925D01*
X303197D01*
X313194Y924257D02*
X306529D01*
X303197Y927590D01*
X306529Y930922D01*
X313194D01*
X308195D01*
Y924257D01*
X313194Y934254D02*
X303197D01*
Y939253D01*
X304863Y940919D01*
X308195D01*
X309862Y939253D01*
Y934254D01*
Y937587D02*
X313194Y940919D01*
X303197Y944251D02*
Y950916D01*
Y947583D01*
X313194D01*
X304863Y954248D02*
X303197Y955914D01*
Y959246D01*
X304863Y960912D01*
X311528D01*
X313194Y959246D01*
Y955914D01*
X311528Y954248D01*
X304863D01*
X314860Y964245D02*
Y970909D01*
X303197Y980906D02*
Y974241D01*
X313194D01*
Y980906D01*
X308195Y974241D02*
Y977574D01*
X304863Y990903D02*
X303197Y989237D01*
Y985904D01*
X304863Y984238D01*
X306529D01*
X308195Y985904D01*
Y989237D01*
X309862Y990903D01*
X311528D01*
X313194Y989237D01*
Y985904D01*
X311528Y984238D01*
X313194Y994235D02*
X303197D01*
Y999233D01*
X304863Y1000899D01*
X308195D01*
X309862Y999233D01*
Y994235D01*
X575089Y681183D02*
Y671186D01*
X580087D01*
X581754Y672852D01*
Y674518D01*
X580087Y676184D01*
X575089D01*
X580087D01*
X581754Y677851D01*
Y679517D01*
X580087Y681183D01*
X575089D01*
X590084D02*
X586752D01*
X585086Y679517D01*
Y672852D01*
X586752Y671186D01*
X590084D01*
X591750Y672852D01*
Y679517D01*
X590084Y681183D01*
X600081D02*
X596749D01*
X595083Y679517D01*
Y672852D01*
X596749Y671186D01*
X600081D01*
X601747Y672852D01*
Y679517D01*
X600081Y681183D01*
X605079D02*
X611744D01*
X608412D01*
Y671186D01*
X615076Y669520D02*
X621741D01*
X631737Y681183D02*
X625073D01*
Y671186D01*
X631737D01*
X625073Y676184D02*
X628405D01*
X641734Y679517D02*
X640068Y681183D01*
X636736D01*
X635070Y679517D01*
Y677851D01*
X636736Y676184D01*
X640068D01*
X641734Y674518D01*
Y672852D01*
X640068Y671186D01*
X636736D01*
X635070Y672852D01*
X645067Y671186D02*
Y681183D01*
X650065D01*
X651731Y679517D01*
Y676184D01*
X650065Y674518D01*
X645067D01*
X316160Y555453D02*
X309496D01*
Y545456D01*
X316160D01*
X309496Y550454D02*
X312828D01*
X319493Y545456D02*
Y555453D01*
X326157Y545456D01*
Y555453D01*
X329489Y543790D02*
X336154D01*
X346151Y555453D02*
X339486D01*
Y545456D01*
X346151D01*
X339486Y550454D02*
X342818D01*
X356147Y553787D02*
X354481Y555453D01*
X351149D01*
X349483Y553787D01*
Y552121D01*
X351149Y550454D01*
X354481D01*
X356147Y548788D01*
Y547122D01*
X354481Y545456D01*
X351149D01*
X349483Y547122D01*
X359480Y545456D02*
Y555453D01*
X364478D01*
X366144Y553787D01*
Y550454D01*
X364478Y548788D01*
X359480D01*
D20*
X859790Y708660D02*
Y721356D01*
X866138D01*
X868254Y719240D01*
Y715008D01*
X866138Y712892D01*
X859790D01*
X864022D02*
X868254Y708660D01*
X878834D02*
X874602D01*
X872486Y710776D01*
Y715008D01*
X874602Y717124D01*
X878834D01*
X880950Y715008D01*
Y712892D01*
X872486D01*
X887298Y708660D02*
Y719240D01*
Y715008D01*
X885182D01*
X889414D01*
X887298D01*
Y719240D01*
X889414Y721356D01*
X895762D02*
Y708660D01*
X902110D01*
X904226Y710776D01*
Y719240D01*
X902110Y721356D01*
X895762D01*
X914806Y708660D02*
X910574D01*
X908458Y710776D01*
Y715008D01*
X910574Y717124D01*
X914806D01*
X916921Y715008D01*
Y712892D01*
X908458D01*
X921153Y708660D02*
X927501D01*
X929617Y710776D01*
X927501Y712892D01*
X923269D01*
X921153Y715008D01*
X923269Y717124D01*
X929617D01*
X856615Y708660D02*
Y721356D01*
X862963D01*
X865079Y719240D01*
Y715008D01*
X862963Y712892D01*
X856615D01*
X860847D02*
X865079Y708660D01*
X877775Y721356D02*
X869311D01*
Y708660D01*
X877775D01*
X869311Y715008D02*
X873543D01*
X890471Y721356D02*
X882007D01*
Y715008D01*
X886239D01*
X882007D01*
Y708660D01*
X894703Y721356D02*
Y708660D01*
X901051D01*
X903167Y710776D01*
Y719240D01*
X901051Y721356D01*
X894703D01*
X915863D02*
X907399D01*
Y708660D01*
X915863D01*
X907399Y715008D02*
X911630D01*
X928558Y719240D02*
X926442Y721356D01*
X922210D01*
X920094Y719240D01*
Y717124D01*
X922210Y715008D01*
X926442D01*
X928558Y712892D01*
Y710776D01*
X926442Y708660D01*
X922210D01*
X920094Y710776D01*
D21*
X1169035Y838200D02*
D03*
Y889000D02*
D03*
Y1014730D02*
D03*
Y963930D02*
D03*
X319405Y932180D02*
D03*
Y982980D02*
D03*
D22*
X609600Y725192D02*
D03*
X336550Y595644D02*
D03*
X457200Y980410D02*
D03*
M02*
