G04*
G04 #@! TF.GenerationSoftware,Altium Limited,Altium Designer,24.1.2 (44)*
G04*
G04 Layer_Color=65535*
%FSLAX44Y44*%
%MOMM*%
G71*
G04*
G04 #@! TF.SameCoordinates,F76812B4-4960-4A8F-8B2A-70901E51660E*
G04*
G04*
G04 #@! TF.FilePolarity,Positive*
G04*
G01*
G75*
%ADD10C,0.2000*%
%ADD11C,0.1524*%
%ADD12C,0.6000*%
%ADD13C,0.2500*%
%ADD14C,0.2540*%
%ADD15C,0.1778*%
%ADD16C,0.1270*%
%ADD17C,0.3000*%
%ADD18C,0.2032*%
%ADD19C,0.1500*%
%ADD20C,0.0762*%
%ADD21R,1.2700X2.5400*%
%ADD22R,2.5400X0.6350*%
G36*
X266827Y31971D02*
X260477Y25621D01*
X273177D01*
X266827Y31971D01*
D02*
G37*
G36*
X618744Y269080D02*
X625094Y262730D01*
Y275430D01*
X618744Y269080D01*
D02*
G37*
D10*
X840470Y285590D02*
G03*
X840470Y285590I-1000J0D01*
G01*
X260690Y263290D02*
G03*
X260690Y263290I-1000J0D01*
G01*
X195880Y292090D02*
G03*
X195880Y292090I-1000J0D01*
G01*
X726720Y176878D02*
Y194912D01*
Y176878D02*
X740552D01*
X726720Y194912D02*
X740552D01*
X748302D02*
X761720D01*
Y176878D02*
Y194912D01*
X748302Y176878D02*
X761720D01*
X715282Y259428D02*
X728700D01*
Y277462D01*
X715282D02*
X728700D01*
X693700D02*
X707532D01*
X693700Y259428D02*
X707532D01*
X693700D02*
Y277462D01*
X570510Y190848D02*
Y208882D01*
Y190848D02*
X584342D01*
X570510Y208882D02*
X584342D01*
X592092D02*
X605510D01*
Y190848D02*
Y208882D01*
X592092Y190848D02*
X605510D01*
X590822Y227678D02*
X604240D01*
Y245712D01*
X590822D02*
X604240D01*
X569240D02*
X583072D01*
X569240Y227678D02*
X583072D01*
X569240D02*
Y245712D01*
X312134Y295904D02*
X325552D01*
X312134Y277870D02*
Y295904D01*
Y277870D02*
X325552D01*
X333302D02*
X347134D01*
X333302Y295904D02*
X347134D01*
Y277870D02*
Y295904D01*
X310864Y228594D02*
X324282D01*
X310864Y210560D02*
Y228594D01*
Y210560D02*
X324282D01*
X332032D02*
X345864D01*
X332032Y228594D02*
X345864D01*
Y210560D02*
Y228594D01*
X251732Y303878D02*
X265150D01*
Y321912D01*
X251732D02*
X265150D01*
X230150D02*
X243982D01*
X230150Y303878D02*
X243982D01*
X230150D02*
Y321912D01*
X400734Y185260D02*
X474980Y259506D01*
Y111014D02*
X549226Y185260D01*
X474980Y259506D02*
X549226Y185260D01*
X400734D02*
X474980Y111014D01*
X432554Y185260D02*
X474980Y142834D01*
Y227686D02*
X517406Y185260D01*
X474980Y142834D02*
X517406Y185260D01*
X432554D02*
X474980Y227686D01*
X678180Y305210D02*
Y326230D01*
X638810Y305210D02*
Y326230D01*
Y260190D02*
Y281210D01*
X678180Y260190D02*
Y281210D01*
X638810Y326230D02*
X678180D01*
X638810Y260190D02*
X678180D01*
X575392Y349008D02*
X572059D01*
X573726D01*
Y340678D01*
X572059Y339012D01*
X570393D01*
X568727Y340678D01*
X578724Y339012D02*
Y349008D01*
X583722D01*
X585388Y347342D01*
Y344010D01*
X583722Y342344D01*
X578724D01*
X588721Y339012D02*
X592053D01*
X590387D01*
Y349008D01*
X588721Y347342D01*
X532771Y17080D02*
Y27077D01*
X537769D01*
X539436Y25411D01*
Y22078D01*
X537769Y20412D01*
X532771D01*
X536103D02*
X539436Y17080D01*
X549432Y25411D02*
X547766Y27077D01*
X544434D01*
X542768Y25411D01*
Y23744D01*
X544434Y22078D01*
X547766D01*
X549432Y20412D01*
Y18746D01*
X547766Y17080D01*
X544434D01*
X542768Y18746D01*
X552765Y27077D02*
X559429D01*
X556097D01*
Y17080D01*
D11*
X127381Y136111D02*
G03*
X127381Y136111I-1270J0D01*
G01*
X142875Y55339D02*
Y124681D01*
Y55339D02*
X182245D01*
Y124681D01*
X142875D02*
X182245D01*
D12*
X477980Y211423D02*
G03*
X477980Y211423I-3000J0D01*
G01*
D13*
X471987Y237939D02*
G03*
X471987Y237939I-1250J0D01*
G01*
D14*
X801878Y155796D02*
X813308D01*
X827532D02*
X838962D01*
Y212184D01*
X801878Y155796D02*
Y212184D01*
X814070Y171290D02*
Y196690D01*
X826770D01*
Y171290D02*
Y196690D01*
X814070Y171290D02*
X826770D01*
X801878Y212184D02*
X813308D01*
X827532D02*
X838962D01*
X611740Y184200D02*
X637840D01*
Y140500D02*
Y184200D01*
X611740Y140500D02*
X637840D01*
X611740D02*
Y184200D01*
X811533Y241138D02*
X808993Y243678D01*
X803915D01*
X801376Y241138D01*
Y238599D01*
X803915Y236060D01*
X808993D01*
X811533Y233521D01*
Y230982D01*
X808993Y228442D01*
X803915D01*
X801376Y230982D01*
X816611Y243678D02*
Y228442D01*
X821689Y233521D01*
X826768Y228442D01*
Y243678D01*
X831846Y228442D02*
X836924D01*
X834385D01*
Y243678D01*
X831846Y241138D01*
X734064Y200502D02*
Y215737D01*
X741682D01*
X744221Y213198D01*
Y208120D01*
X741682Y205581D01*
X734064D01*
X739143D02*
X744221Y200502D01*
X759456D02*
X749299D01*
X759456Y210659D01*
Y213198D01*
X756917Y215737D01*
X751838D01*
X749299Y213198D01*
X744221Y133188D02*
X741682Y135728D01*
X736603D01*
X734064Y133188D01*
Y123032D01*
X736603Y120492D01*
X741682D01*
X744221Y123032D01*
X759456Y120492D02*
X749299D01*
X759456Y130649D01*
Y133188D01*
X756917Y135728D01*
X751838D01*
X749299Y133188D01*
X685800Y129378D02*
X683261Y131917D01*
X678183D01*
X675643Y129378D01*
Y119222D01*
X678183Y116683D01*
X683261D01*
X685800Y119222D01*
X690878Y116683D02*
X695957D01*
X693418D01*
Y131917D01*
X690878Y129378D01*
X756921Y253838D02*
X754382Y256378D01*
X749303D01*
X746764Y253838D01*
Y243682D01*
X749303Y241143D01*
X754382D01*
X756921Y243682D01*
X761999Y253838D02*
X764538Y256378D01*
X769617D01*
X772156Y253838D01*
Y251299D01*
X769617Y248760D01*
X767077D01*
X769617D01*
X772156Y246221D01*
Y243682D01*
X769617Y241143D01*
X764538D01*
X761999Y243682D01*
X701043Y341468D02*
X698504Y344007D01*
X693425D01*
X690886Y341468D01*
Y331312D01*
X693425Y328773D01*
X698504D01*
X701043Y331312D01*
X706121Y328773D02*
X711200D01*
X708660D01*
Y344007D01*
X706121Y341468D01*
X726435Y328773D02*
Y344007D01*
X718817Y336390D01*
X728974D01*
X721879Y311782D02*
X720212Y313448D01*
X716880D01*
X715214Y311782D01*
Y305118D01*
X716880Y303452D01*
X720212D01*
X721879Y305118D01*
X725211Y303452D02*
X728543D01*
X726877D01*
Y313448D01*
X725211Y311782D01*
X733541D02*
X735208Y313448D01*
X738540D01*
X740206Y311782D01*
Y310116D01*
X738540Y308450D01*
X736874D01*
X738540D01*
X740206Y306784D01*
Y305118D01*
X738540Y303452D01*
X735208D01*
X733541Y305118D01*
X689614Y239872D02*
Y255107D01*
X697232D01*
X699771Y252568D01*
Y247490D01*
X697232Y244951D01*
X689614D01*
X694693D02*
X699771Y239872D01*
X715006Y255107D02*
X704849D01*
Y247490D01*
X709928Y250029D01*
X712467D01*
X715006Y247490D01*
Y242412D01*
X712467Y239872D01*
X707388D01*
X704849Y242412D01*
X588013Y180177D02*
Y177638D01*
X593092Y172560D01*
X598170Y177638D01*
Y180177D01*
X593092Y172560D02*
Y164942D01*
X603248D02*
X608327D01*
X605788D01*
Y180177D01*
X603248Y177638D01*
X454661Y328768D02*
X452122Y331307D01*
X447043D01*
X444504Y328768D01*
Y318612D01*
X447043Y316073D01*
X452122D01*
X454661Y318612D01*
X459739Y331307D02*
X469896D01*
Y328768D01*
X459739Y318612D01*
Y316073D01*
X454661Y307178D02*
X452122Y309718D01*
X447043D01*
X444504Y307178D01*
Y297022D01*
X447043Y294482D01*
X452122D01*
X454661Y297022D01*
X459739Y307178D02*
X462278Y309718D01*
X467357D01*
X469896Y307178D01*
Y304639D01*
X467357Y302100D01*
X469896Y299561D01*
Y297022D01*
X467357Y294482D01*
X462278D01*
X459739Y297022D01*
Y299561D01*
X462278Y302100D01*
X459739Y304639D01*
Y307178D01*
X462278Y302100D02*
X467357D01*
X351639Y321068D02*
Y311072D01*
X358303D01*
X368300Y321068D02*
X361636D01*
Y311072D01*
X368300D01*
X361636Y316070D02*
X364968D01*
X371632Y321068D02*
Y311072D01*
X376631D01*
X378297Y312738D01*
Y319402D01*
X376631Y321068D01*
X371632D01*
X381629Y311072D02*
X384961D01*
X383295D01*
Y321068D01*
X381629Y319402D01*
X817881Y352898D02*
X815342Y355438D01*
X810263D01*
X807724Y352898D01*
Y350359D01*
X810263Y347820D01*
X815342D01*
X817881Y345281D01*
Y342742D01*
X815342Y340202D01*
X810263D01*
X807724Y342742D01*
X822959Y355438D02*
Y340202D01*
X828037Y345281D01*
X833116Y340202D01*
Y355438D01*
X177805Y48098D02*
X182884D01*
X180345D01*
Y32863D01*
X177805D01*
X182884D01*
X200658Y45558D02*
X198119Y48098D01*
X193040D01*
X190501Y45558D01*
Y35402D01*
X193040Y32863D01*
X198119D01*
X200658Y35402D01*
X205736Y32863D02*
X210815D01*
X208276D01*
Y48098D01*
X205736Y45558D01*
X88903Y147158D02*
X86364Y149698D01*
X81285D01*
X78746Y147158D01*
Y137002D01*
X81285Y134462D01*
X86364D01*
X88903Y137002D01*
X93981Y134462D02*
X99060D01*
X96520D01*
Y149698D01*
X93981Y147158D01*
X116834Y134462D02*
X106677D01*
X116834Y144619D01*
Y147158D01*
X114295Y149698D01*
X109216D01*
X106677Y147158D01*
X93982Y41748D02*
X91443Y44288D01*
X86364D01*
X83825Y41748D01*
Y31592D01*
X86364Y29053D01*
X91443D01*
X93982Y31592D01*
X99060Y29053D02*
X104139D01*
X101600D01*
Y44288D01*
X99060Y41748D01*
X111756Y29053D02*
X116835D01*
X114296D01*
Y44288D01*
X111756Y41748D01*
X33025Y31588D02*
X27947D01*
X30486D01*
Y18892D01*
X27947Y16352D01*
X25407D01*
X22868Y18892D01*
X38103Y31588D02*
Y16352D01*
X45721D01*
X48260Y18892D01*
Y29048D01*
X45721Y31588D01*
X38103D01*
X63495Y29048D02*
X60956Y31588D01*
X55878D01*
X53338Y29048D01*
Y18892D01*
X55878Y16352D01*
X60956D01*
X63495Y18892D01*
X68573Y16352D02*
X73652D01*
X71113D01*
Y31588D01*
X68573Y29048D01*
X539754Y228442D02*
Y243678D01*
X547372D01*
X549911Y241138D01*
Y236060D01*
X547372Y233521D01*
X539754D01*
X544832D02*
X549911Y228442D01*
X554989Y243678D02*
X565146D01*
Y241138D01*
X554989Y230982D01*
Y228442D01*
X254508Y109055D02*
Y96359D01*
X257047Y93820D01*
X262125D01*
X264665Y96359D01*
Y109055D01*
X269743D02*
Y93820D01*
X274821Y98898D01*
X279900Y93820D01*
Y109055D01*
X284978D02*
Y93820D01*
X292596D01*
X295135Y96359D01*
Y98898D01*
X292596Y101438D01*
X284978D01*
X292596D01*
X295135Y103977D01*
Y106516D01*
X292596Y109055D01*
X284978D01*
X640334Y350101D02*
Y347562D01*
X645412Y342483D01*
X650491Y347562D01*
Y350101D01*
X645412Y342483D02*
Y334866D01*
X665726D02*
X655569D01*
X665726Y345023D01*
Y347562D01*
X663187Y350101D01*
X658108D01*
X655569Y347562D01*
X207014Y244947D02*
Y232252D01*
X209553Y229713D01*
X214632D01*
X217171Y232252D01*
Y244947D01*
X232406Y229713D02*
X222249D01*
X232406Y239869D01*
Y242408D01*
X229867Y244947D01*
X224788D01*
X222249Y242408D01*
X609604Y192882D02*
Y208118D01*
X617222D01*
X619761Y205578D01*
Y200500D01*
X617222Y197961D01*
X609604D01*
X614683D02*
X619761Y192882D01*
X634996Y208118D02*
X629917Y205578D01*
X624839Y200500D01*
Y195422D01*
X627378Y192882D01*
X632457D01*
X634996Y195422D01*
Y197961D01*
X632457Y200500D01*
X624839D01*
X267974Y304643D02*
Y319877D01*
X275592D01*
X278131Y317338D01*
Y312260D01*
X275592Y309721D01*
X267974D01*
X273053D02*
X278131Y304643D01*
X290827D02*
Y319877D01*
X283209Y312260D01*
X293366D01*
X348688Y212595D02*
Y227829D01*
X356306D01*
X358845Y225290D01*
Y220212D01*
X356306Y217673D01*
X348688D01*
X353767D02*
X358845Y212595D01*
X363923Y225290D02*
X366462Y227829D01*
X371541D01*
X374080Y225290D01*
Y222751D01*
X371541Y220212D01*
X369002D01*
X371541D01*
X374080Y217673D01*
Y215134D01*
X371541Y212595D01*
X366462D01*
X363923Y215134D01*
X351793Y279242D02*
Y294478D01*
X359411D01*
X361950Y291938D01*
Y286860D01*
X359411Y284321D01*
X351793D01*
X356872D02*
X361950Y279242D01*
X367028D02*
X372107D01*
X369568D01*
Y294478D01*
X367028Y291938D01*
X351243Y257568D02*
Y247572D01*
X357907D01*
X367904Y257568D02*
X361239D01*
Y247572D01*
X367904D01*
X361239Y252570D02*
X364572D01*
X371236Y257568D02*
Y247572D01*
X376235D01*
X377901Y249238D01*
Y255902D01*
X376235Y257568D01*
X371236D01*
X387897Y247572D02*
X381233D01*
X387897Y254236D01*
Y255902D01*
X386231Y257568D01*
X382899D01*
X381233Y255902D01*
X681993Y220818D02*
X679454Y223358D01*
X674375D01*
X671836Y220818D01*
Y210662D01*
X674375Y208123D01*
X679454D01*
X681993Y210662D01*
X687071Y208123D02*
X692150D01*
X689610D01*
Y223358D01*
X687071Y220818D01*
X709924Y223358D02*
X704846Y220818D01*
X699767Y215740D01*
Y210662D01*
X702306Y208123D01*
X707385D01*
X709924Y210662D01*
Y213201D01*
X707385Y215740D01*
X699767D01*
X697233Y175098D02*
X694694Y177638D01*
X689615D01*
X687076Y175098D01*
Y164942D01*
X689615Y162402D01*
X694694D01*
X697233Y164942D01*
X702311Y162402D02*
X707390D01*
X704850D01*
Y177638D01*
X702311Y175098D01*
X725164Y177638D02*
X715007D01*
Y170020D01*
X720086Y172559D01*
X722625D01*
X725164Y170020D01*
Y164942D01*
X722625Y162402D01*
X717546D01*
X715007Y164942D01*
X515623Y289398D02*
X513084Y291938D01*
X508005D01*
X505466Y289398D01*
Y279242D01*
X508005Y276702D01*
X513084D01*
X515623Y279242D01*
X520701Y276702D02*
X525780D01*
X523240D01*
Y291938D01*
X520701Y289398D01*
X533397D02*
X535936Y291938D01*
X541015D01*
X543554Y289398D01*
Y279242D01*
X541015Y276702D01*
X535936D01*
X533397Y279242D01*
Y289398D01*
X521713Y356198D02*
X519174Y358737D01*
X514095D01*
X511556Y356198D01*
Y346041D01*
X514095Y343502D01*
X519174D01*
X521713Y346041D01*
X526791D02*
X529330Y343502D01*
X534409D01*
X536948Y346041D01*
Y356198D01*
X534409Y358737D01*
X529330D01*
X526791Y356198D01*
Y353659D01*
X529330Y351119D01*
X536948D01*
X276861Y284318D02*
X274322Y286857D01*
X269243D01*
X266704Y284318D01*
Y274162D01*
X269243Y271623D01*
X274322D01*
X276861Y274162D01*
X292096Y286857D02*
X287017Y284318D01*
X281939Y279240D01*
Y274162D01*
X284478Y271623D01*
X289557D01*
X292096Y274162D01*
Y276701D01*
X289557Y279240D01*
X281939D01*
X281941Y173828D02*
X279402Y176367D01*
X274323D01*
X271784Y173828D01*
Y163672D01*
X274323Y161133D01*
X279402D01*
X281941Y163672D01*
X297176Y176367D02*
X287019D01*
Y168750D01*
X292097Y171289D01*
X294637D01*
X297176Y168750D01*
Y163672D01*
X294637Y161133D01*
X289558D01*
X287019Y163672D01*
X280671Y199228D02*
X278132Y201768D01*
X273053D01*
X270514Y199228D01*
Y189072D01*
X273053Y186532D01*
X278132D01*
X280671Y189072D01*
X293367Y186532D02*
Y201768D01*
X285749Y194150D01*
X295906D01*
X-87884Y354928D02*
X-77727Y344771D01*
X-87884D02*
X-77727Y354928D01*
X-87884Y349850D02*
X-77727D01*
X-82806Y344771D02*
Y354928D01*
X-72649Y342232D02*
X-67571D01*
X-70110D01*
Y357467D01*
X-72649Y354928D01*
D15*
X741976Y192780D02*
X746548D01*
X741976Y179064D02*
X746548D01*
X589534Y281272D02*
X614680D01*
Y256380D02*
Y333342D01*
X589280Y256380D02*
X614680D01*
X563880D02*
X589280D01*
X563880D02*
Y333342D01*
X614680D01*
X708956Y261614D02*
X713528D01*
X708956Y275330D02*
X713528D01*
X-55880Y54450D02*
Y138270D01*
X-73660Y54450D02*
X64770D01*
X-73660Y138270D02*
X64770D01*
Y54450D02*
Y138270D01*
X-73660Y54450D02*
Y138270D01*
X585766Y206750D02*
X590338D01*
X585766Y193034D02*
X590338D01*
X584496Y229864D02*
X589068D01*
X584496Y243580D02*
X589068D01*
X560197Y31971D02*
Y85311D01*
X252857D02*
X560197D01*
X252857Y57625D02*
Y85311D01*
Y31971D02*
Y57625D01*
Y31971D02*
X560197D01*
X279527D02*
Y58387D01*
X327306Y293718D02*
X331878D01*
X327306Y280002D02*
X331878D01*
X326036Y226408D02*
X330608D01*
X326036Y212692D02*
X330608D01*
X245406Y306064D02*
X249978D01*
X245406Y319780D02*
X249978D01*
D16*
X311560Y308450D02*
Y318610D01*
X314100Y304640D02*
X347120D01*
Y322420D01*
X314100D02*
X347120D01*
X312830Y261460D02*
X345850D01*
Y243680D02*
Y261460D01*
X312830Y243680D02*
X345850D01*
X310290Y247490D02*
Y257650D01*
X264690Y247100D02*
X265690D01*
X264690Y230100D02*
X265690D01*
X234690D02*
X235690D01*
X234690Y247100D02*
X235690D01*
X234690Y230100D02*
Y247100D01*
X265690Y230100D02*
Y247100D01*
X-5860Y517360D02*
Y527360D01*
X-10860Y522360D02*
X-860D01*
X844140Y517360D02*
X854140D01*
X36390Y580610D02*
X806890D01*
X36390Y374110D02*
X806890D01*
X36390D02*
Y441860D01*
Y512860D02*
Y580610D01*
X806890Y374110D02*
Y441860D01*
Y512860D02*
Y580610D01*
X202500Y317490D02*
Y334000D01*
X189800Y304790D02*
X202500Y317490D01*
Y160010D02*
Y181600D01*
X189800Y194300D02*
X202500Y181600D01*
X189800Y194300D02*
Y304790D01*
X154240Y334000D02*
X202500D01*
X154240Y160010D02*
Y334000D01*
Y160010D02*
X202500D01*
D17*
X808990Y272890D02*
Y323690D01*
X834390D01*
Y272890D02*
Y323690D01*
X808990Y272890D02*
X834390D01*
D18*
X596900Y25370D02*
X723900D01*
Y84370D01*
X596900D02*
X723900D01*
X596900Y25370D02*
Y84370D01*
X746760Y26640D02*
Y85640D01*
X848360D01*
Y26640D02*
Y85640D01*
X746760Y26640D02*
X848360D01*
D19*
X609204Y337890D02*
X612536D01*
X610870D01*
Y347887D01*
X609204Y346221D01*
X607538Y250971D02*
X609204Y252637D01*
X612536D01*
X614202Y250971D01*
Y244306D01*
X612536Y242640D01*
X609204D01*
X607538Y244306D01*
Y250971D01*
X628717Y319950D02*
X618720D01*
Y314951D01*
X620386Y313285D01*
X622052D01*
X623718Y314951D01*
Y319950D01*
Y314951D01*
X625384Y313285D01*
X627051D01*
X628717Y314951D01*
Y319950D01*
Y304954D02*
Y308287D01*
X627051Y309953D01*
X620386D01*
X618720Y308287D01*
Y304954D01*
X620386Y303288D01*
X627051D01*
X628717Y304954D01*
Y294958D02*
Y298290D01*
X627051Y299956D01*
X620386D01*
X618720Y298290D01*
Y294958D01*
X620386Y293292D01*
X627051D01*
X628717Y294958D01*
Y289959D02*
Y283295D01*
Y286627D01*
X618720D01*
Y279963D02*
Y276630D01*
Y278296D01*
X628717D01*
X627051Y279963D01*
X628717Y319950D02*
X618720D01*
Y314951D01*
X620386Y313285D01*
X622052D01*
X623718Y314951D01*
Y319950D01*
Y314951D01*
X625384Y313285D01*
X627051D01*
X628717Y314951D01*
Y319950D01*
Y304954D02*
Y308287D01*
X627051Y309953D01*
X620386D01*
X618720Y308287D01*
Y304954D01*
X620386Y303288D01*
X627051D01*
X628717Y304954D01*
Y294958D02*
Y298290D01*
X627051Y299956D01*
X620386D01*
X618720Y298290D01*
Y294958D01*
X620386Y293292D01*
X627051D01*
X628717Y294958D01*
Y289959D02*
Y283295D01*
Y286627D01*
X618720D01*
Y279963D02*
Y276630D01*
Y278296D01*
X628717D01*
X627051Y279963D01*
X560137Y319076D02*
X550140D01*
Y314077D01*
X551806Y312411D01*
X553472D01*
X555138Y314077D01*
Y319076D01*
Y314077D01*
X556804Y312411D01*
X558471D01*
X560137Y314077D01*
Y319076D01*
Y304081D02*
Y307413D01*
X558471Y309079D01*
X551806D01*
X550140Y307413D01*
Y304081D01*
X551806Y302414D01*
X558471D01*
X560137Y304081D01*
Y294084D02*
Y297416D01*
X558471Y299082D01*
X551806D01*
X550140Y297416D01*
Y294084D01*
X551806Y292418D01*
X558471D01*
X560137Y294084D01*
Y289086D02*
Y282421D01*
Y285753D01*
X550140D01*
X558471Y279089D02*
X560137Y277423D01*
Y274090D01*
X558471Y272424D01*
X551806D01*
X550140Y274090D01*
Y277423D01*
X551806Y279089D01*
X558471D01*
X823790Y23578D02*
Y16580D01*
X827289D01*
X828455Y17746D01*
Y22411D01*
X827289Y23578D01*
X823790D01*
X834286Y16580D02*
X831954D01*
X830787Y17746D01*
Y20079D01*
X831954Y21245D01*
X834286D01*
X835453Y20079D01*
Y18913D01*
X830787D01*
X837785Y16580D02*
Y21245D01*
X841284D01*
X842450Y20079D01*
Y16580D01*
X783772Y23370D02*
X788437D01*
X786105D01*
Y16373D01*
X790770Y21038D02*
Y16373D01*
Y18705D01*
X791936Y19871D01*
X793102Y21038D01*
X794268D01*
X798934D02*
X801266D01*
X802433Y19871D01*
Y16373D01*
X798934D01*
X797767Y17539D01*
X798934Y18705D01*
X802433D01*
X804765Y16373D02*
Y21038D01*
X808264D01*
X809430Y19871D01*
Y16373D01*
X814096Y14040D02*
X815262D01*
X816428Y15206D01*
Y21038D01*
X812929D01*
X811763Y19871D01*
Y17539D01*
X812929Y16373D01*
X816428D01*
X754251Y23578D02*
X758916Y16580D01*
Y23578D02*
X754251Y16580D01*
X762415Y21245D02*
X764747D01*
X765914Y20079D01*
Y16580D01*
X762415D01*
X761248Y17746D01*
X762415Y18913D01*
X765914D01*
X768246Y16580D02*
Y21245D01*
X771745D01*
X772912Y20079D01*
Y16580D01*
X775244Y23578D02*
Y16580D01*
Y20079D01*
X776410Y21245D01*
X778743D01*
X779909Y20079D01*
Y16580D01*
X822105Y96071D02*
X820938Y97238D01*
X818606D01*
X817440Y96071D01*
Y91406D01*
X818606Y90240D01*
X820938D01*
X822105Y91406D01*
Y93739D01*
X819772D01*
X824437Y90240D02*
Y97238D01*
X829103Y90240D01*
Y97238D01*
X831435D02*
Y90240D01*
X834934D01*
X836100Y91406D01*
Y96071D01*
X834934Y97238D01*
X831435D01*
X790459D02*
X795124D01*
X792791D01*
Y90240D01*
X797456Y97238D02*
X802122Y90240D01*
Y97238D02*
X797456Y90240D01*
X761248D02*
Y97238D01*
X764747D01*
X765914Y96071D01*
Y93739D01*
X764747Y92573D01*
X761248D01*
X763581D02*
X765914Y90240D01*
X768246Y97238D02*
X772912Y90240D01*
Y97238D02*
X768246Y90240D01*
X703140Y94801D02*
X704306Y95968D01*
X706638D01*
X707805Y94801D01*
Y93635D01*
X706638Y92469D01*
X705472D01*
X706638D01*
X707805Y91303D01*
Y90136D01*
X706638Y88970D01*
X704306D01*
X703140Y90136D01*
X710137Y95968D02*
Y91303D01*
X712470Y88970D01*
X714803Y91303D01*
Y95968D01*
X717135Y94801D02*
X718301Y95968D01*
X720634D01*
X721800Y94801D01*
Y93635D01*
X720634Y92469D01*
X719468D01*
X720634D01*
X721800Y91303D01*
Y90136D01*
X720634Y88970D01*
X718301D01*
X717135Y90136D01*
X671869Y94801D02*
X670703Y95968D01*
X668370D01*
X667204Y94801D01*
Y93635D01*
X668370Y92469D01*
X670703D01*
X671869Y91303D01*
Y90136D01*
X670703Y88970D01*
X668370D01*
X667204Y90136D01*
X674202Y95968D02*
Y88970D01*
X676534Y91303D01*
X678867Y88970D01*
Y95968D01*
X681199D02*
X683532D01*
X682366D01*
Y88970D01*
X681199D01*
X683532D01*
X690530Y95968D02*
X688197D01*
X687031Y94801D01*
Y90136D01*
X688197Y88970D01*
X690530D01*
X691696Y90136D01*
Y94801D01*
X690530Y95968D01*
X632227Y94801D02*
X631061Y95968D01*
X628728D01*
X627562Y94801D01*
Y93635D01*
X628728Y92469D01*
X631061D01*
X632227Y91303D01*
Y90136D01*
X631061Y88970D01*
X628728D01*
X627562Y90136D01*
X634560Y95968D02*
Y88970D01*
X636892Y91303D01*
X639225Y88970D01*
Y95968D01*
X646223Y94801D02*
X645056Y95968D01*
X642724D01*
X641557Y94801D01*
Y90136D01*
X642724Y88970D01*
X645056D01*
X646223Y90136D01*
X648555Y95968D02*
Y88970D01*
X653220D01*
X655553Y95968D02*
Y88970D01*
Y91303D01*
X660218Y95968D01*
X656719Y92469D01*
X660218Y88970D01*
X604935Y94801D02*
X603769Y95968D01*
X601436D01*
X600270Y94801D01*
Y90136D01*
X601436Y88970D01*
X603769D01*
X604935Y90136D01*
Y92469D01*
X602602D01*
X607267Y88970D02*
Y95968D01*
X611933Y88970D01*
Y95968D01*
X614265D02*
Y88970D01*
X617764D01*
X618930Y90136D01*
Y94801D01*
X617764Y95968D01*
X614265D01*
D20*
X156210Y112235D02*
X168906D01*
Y105887D01*
X166790Y103771D01*
X162558D01*
X160442Y105887D01*
Y112235D01*
Y108003D02*
X156210Y103771D01*
X168906Y91075D02*
Y99539D01*
X156210D01*
Y91075D01*
X162558Y99539D02*
Y95307D01*
X168906Y78379D02*
Y86843D01*
X162558D01*
Y82611D01*
Y86843D01*
X156210D01*
X168906Y74147D02*
X156210D01*
Y67799D01*
X158326Y65683D01*
X166790D01*
X168906Y67799D01*
Y74147D01*
Y52987D02*
Y61452D01*
X156210D01*
Y52987D01*
X162558Y61452D02*
Y57220D01*
X166790Y40292D02*
X168906Y42408D01*
Y46640D01*
X166790Y48756D01*
X164674D01*
X162558Y46640D01*
Y42408D01*
X160442Y40292D01*
X158326D01*
X156210Y42408D01*
Y46640D01*
X158326Y48756D01*
X156210Y109060D02*
X168906D01*
Y102712D01*
X166790Y100596D01*
X162558D01*
X160442Y102712D01*
Y109060D01*
Y104828D02*
X156210Y100596D01*
Y90016D02*
Y94248D01*
X158326Y96364D01*
X162558D01*
X164674Y94248D01*
Y90016D01*
X162558Y87900D01*
X160442D01*
Y96364D01*
X156210Y81552D02*
X166790D01*
X162558D01*
Y83668D01*
Y79436D01*
Y81552D01*
X166790D01*
X168906Y79436D01*
Y73088D02*
X156210D01*
Y66740D01*
X158326Y64624D01*
X166790D01*
X168906Y66740D01*
Y73088D01*
X156210Y54044D02*
Y58277D01*
X158326Y60392D01*
X162558D01*
X164674Y58277D01*
Y54044D01*
X162558Y51929D01*
X160442D01*
Y60392D01*
X156210Y47697D02*
Y41349D01*
X158326Y39233D01*
X160442Y41349D01*
Y45581D01*
X162558Y47697D01*
X164674Y45581D01*
Y39233D01*
D21*
X820420Y183990D02*
D03*
D22*
X635000Y28415D02*
D03*
X685800D02*
D03*
X822960Y29685D02*
D03*
X772160D02*
D03*
M02*
