G04*
G04 #@! TF.GenerationSoftware,Altium Limited,Altium Designer,24.1.2 (44)*
G04*
G04 Layer_Physical_Order=2*
G04 Layer_Color=16711680*
%FSLAX44Y44*%
%MOMM*%
G71*
G04*
G04 #@! TF.SameCoordinates,84908A0F-CC4F-4C15-BE80-339605CD68EC*
G04*
G04*
G04 #@! TF.FilePolarity,Positive*
G04*
G01*
G75*
%ADD10C,0.2000*%
%ADD65C,0.5000*%
%ADD66C,1.0000*%
%ADD67O,2.1844X1.5240*%
%ADD68O,1.8000X1.6000*%
G04:AMPARAMS|DCode=69|XSize=1.8mm|YSize=1.6mm|CornerRadius=0.4mm|HoleSize=0mm|Usage=FLASHONLY|Rotation=180.000|XOffset=0mm|YOffset=0mm|HoleType=Round|Shape=RoundedRectangle|*
%AMROUNDEDRECTD69*
21,1,1.8000,0.8000,0,0,180.0*
21,1,1.0000,1.6000,0,0,180.0*
1,1,0.8000,-0.5000,0.4000*
1,1,0.8000,0.5000,0.4000*
1,1,0.8000,0.5000,-0.4000*
1,1,0.8000,-0.5000,-0.4000*
%
%ADD69ROUNDEDRECTD69*%
%ADD70C,1.6000*%
%ADD71O,1.5240X2.1844*%
%ADD72C,2.3900*%
%ADD73C,3.4500*%
%ADD74R,4.0640X2.5400*%
%ADD75R,2.5400X4.0640*%
%ADD76C,0.3500*%
%ADD77C,0.6000*%
%ADD78C,1.1000*%
D10*
X742950Y928370D02*
X762000Y947420D01*
X901700D01*
X886460Y922020D02*
X906780Y901700D01*
X1046480D01*
X812800Y922020D02*
X886460D01*
X777240Y927100D02*
X785164Y935024D01*
X863904D01*
X824230Y797560D02*
X864870Y838200D01*
Y890270D01*
X797560Y797560D02*
X824230D01*
X668020Y694690D02*
Y783590D01*
X581660Y608330D02*
X668020Y694690D01*
X736950Y797560D02*
X744220Y804830D01*
X509270Y892810D02*
X604520Y797560D01*
X736950D01*
X469900Y892810D02*
X509270D01*
X662813Y541147D02*
X679450Y524510D01*
X662813Y541147D02*
Y542417D01*
X679450Y524510D02*
X769620D01*
X777240Y532130D02*
Y582930D01*
X769620Y524510D02*
X777240Y532130D01*
X798830Y604520D02*
Y627380D01*
X777240Y582930D02*
X798830Y604520D01*
X764540Y567690D02*
Y572302D01*
X756920Y579922D02*
X764540Y572302D01*
X756920Y579922D02*
Y788670D01*
X840740Y564388D02*
Y567690D01*
D65*
X1149080Y889000D02*
X1167130Y907050D01*
X1148080Y889000D02*
X1149080D01*
X1167130Y907050D02*
Y1009380D01*
X1149080Y1027430D02*
X1167130Y1009380D01*
X1148080Y1027430D02*
X1149080D01*
X1147080D02*
X1148080D01*
X1036590Y916940D02*
X1147080Y1027430D01*
X922020Y916940D02*
X1036590D01*
X901930Y947420D02*
X906660Y942690D01*
X901700Y947420D02*
X901930D01*
X906660Y932300D02*
Y942690D01*
Y932300D02*
X922020Y916940D01*
X1117600Y801370D02*
Y920750D01*
X1147892Y951230D02*
X1148080D01*
X1117600Y920750D02*
X1142506Y945656D01*
Y945844D02*
X1147892Y951230D01*
X1117600Y801370D02*
X1149350Y769620D01*
X1142506Y945656D02*
Y945844D01*
X340360Y932180D02*
X340899D01*
X349789Y923290D02*
X565150D01*
X340899Y932180D02*
X349789Y923290D01*
X519430Y527050D02*
X549910Y496570D01*
X975360D02*
X993140Y514350D01*
X549910Y496570D02*
X975360D01*
X549910Y549910D02*
X589280Y510540D01*
X947420D01*
X951230Y514350D01*
Y615950D01*
X993140Y537210D02*
X994410Y538480D01*
X993140Y514350D02*
Y537210D01*
X519430Y565150D02*
X534670Y580390D01*
X519430Y527050D02*
Y565150D01*
X553720Y580390D02*
X581660Y608330D01*
X534670Y580390D02*
X553720D01*
X928630Y693514D02*
X933450Y688694D01*
Y687070D02*
Y688694D01*
X928630Y702570D02*
X958850Y732790D01*
X928630Y693514D02*
Y702570D01*
X908050Y638302D02*
Y777240D01*
X840740Y567690D02*
Y570992D01*
X908050Y638302D01*
X1033780Y655320D02*
X1148080Y769620D01*
X947420Y655320D02*
X1033780D01*
X1045210Y640080D02*
X1149350Y744220D01*
X1148080Y769620D02*
X1149350D01*
X975360Y640080D02*
X1045210D01*
X1170940Y702310D02*
Y867140D01*
X1156970Y688340D02*
X1170940Y702310D01*
X349128Y591698D02*
Y601858D01*
X347980Y590550D02*
X349128Y591698D01*
Y601858D02*
X392430Y645160D01*
X544830D02*
X581660Y608330D01*
X392430Y645160D02*
X544830D01*
X870307Y577930D02*
Y578207D01*
X907760Y615660D01*
Y615660D01*
X866140Y567690D02*
Y573763D01*
X870307Y577930D01*
X907760Y615660D02*
X947420Y655320D01*
X951230Y615950D02*
X975360Y640080D01*
X1149080Y889000D02*
X1170940Y867140D01*
D66*
X1002110Y546180D02*
X1022430D01*
X994410Y538480D02*
X1002110Y546180D01*
X1045210Y568960D02*
Y576580D01*
X1022430Y546180D02*
X1045210Y568960D01*
X1060530Y591900D02*
X1156970Y688340D01*
X1052910Y591900D02*
X1060530D01*
X1045210Y584200D02*
X1052910Y591900D01*
X1045210Y576580D02*
Y584200D01*
D67*
X901700Y972820D02*
D03*
Y998220D02*
D03*
Y947420D02*
D03*
X927100Y997966D02*
D03*
Y972820D02*
D03*
Y947420D02*
D03*
D68*
X1148080Y889000D02*
D03*
Y863600D02*
D03*
Y976630D02*
D03*
Y1002030D02*
D03*
Y1027430D02*
D03*
X340360Y957580D02*
D03*
Y932180D02*
D03*
D69*
X1148080Y838200D02*
D03*
Y951230D02*
D03*
X340360Y982980D02*
D03*
D70*
X1149350Y769620D02*
D03*
Y744220D02*
D03*
X1156970Y548340D02*
D03*
Y688340D02*
D03*
Y573740D02*
D03*
Y662940D02*
D03*
X549910Y549910D02*
D03*
X575310D02*
D03*
D71*
X815340Y567690D02*
D03*
X789940D02*
D03*
X713740D02*
D03*
X815213Y541909D02*
D03*
X789813D02*
D03*
X662940Y567690D02*
D03*
X891540Y542290D02*
D03*
X916940D02*
D03*
X764413Y541909D02*
D03*
X637540Y567690D02*
D03*
X688340D02*
D03*
X840740Y542290D02*
D03*
X713613Y541909D02*
D03*
X687959Y542417D02*
D03*
X662813D02*
D03*
X637413D02*
D03*
X739013Y541909D02*
D03*
X866140Y542290D02*
D03*
X739140Y567690D02*
D03*
X764540D02*
D03*
X840740D02*
D03*
X866140D02*
D03*
X891540D02*
D03*
X916940D02*
D03*
D72*
X403800Y1253480D02*
D03*
D73*
X1038000D02*
D03*
X486000Y1093480D02*
D03*
D74*
X994410Y601980D02*
D03*
Y538480D02*
D03*
D75*
X1045210Y576580D02*
D03*
D76*
X411960Y768590D02*
D03*
X397960D02*
D03*
X404960Y761590D02*
D03*
Y775590D02*
D03*
X397960Y754590D02*
D03*
Y782590D02*
D03*
X411960Y754590D02*
D03*
Y782590D02*
D03*
X390960Y761590D02*
D03*
Y775590D02*
D03*
X418960Y761590D02*
D03*
Y775590D02*
D03*
D77*
X742950Y928370D02*
D03*
X1046480Y901700D02*
D03*
X812800Y922020D02*
D03*
X777240Y927100D02*
D03*
X863904Y935024D02*
D03*
X864870Y890270D02*
D03*
X797560Y797560D02*
D03*
X668020Y783590D02*
D03*
X469900Y892810D02*
D03*
X744220Y804830D02*
D03*
X798830Y627380D02*
D03*
X756920Y788670D02*
D03*
D78*
X565150Y923290D02*
D03*
X933450Y687070D02*
D03*
X908050Y777240D02*
D03*
X958850Y732790D02*
D03*
X347980Y590550D02*
D03*
X392430Y645160D02*
D03*
X581660Y608330D02*
D03*
M02*
