M48
;Layer_Color=9474304
;FILE_FORMAT=4:4
METRIC,LZ
;TYPE=PLATED
T01F00S00C0.2500
T02F00S00C0.3000
T03F00S00C0.5000
T04F00S00C0.5500
T05F00S00C0.9144
T06F00S00C1.0000
T07F00S00C1.0200
;TYPE=NON_PLATED
T09F00S00C2.3900
T10F00S00C3.4500
%
T01
X0039796Y0075459
X0040496Y0076159
X0039796Y0076859
X0040496Y0077559
X0041196Y0076859
Y0075459
X0041896Y0076159
Y0077559
X0041196Y0078259
X0039796
X0039096Y0077559
Y0076159
T02
X0079883Y0062738
X0075692Y0078867
X0066802Y0078359
X0074422Y0080483
X0074295Y0092837
X0077724Y009271
X004699Y0089281
X008128Y0092202
X00863904Y00935024
X0086487Y0089027
X0079756Y0079756
X0104648Y009017
T03
X0093345Y0068707
X0095885Y0073279
X0058166Y0060833
X0039243Y0064516
X0034798Y0059055
T04
X0090805Y0077724
X0056515Y0092329
T05
X00815213Y00541909
X0081534Y0056769
X0084074
Y0054229
X0086614
X0089154
X0091694
Y0056769
X0089154
X0086614
X0078994
X0076454
X0073914
X0071374
X0068834
X0066294
X0063754
X00637413Y00542417
X00662813
X00687959
X00713613Y00541909
X00739013
X00764413
X00789813
X009017Y0094742
Y0097282
Y0099822
X009271Y00997966
Y0097282
Y0094742
T06
X0034036Y0093218
Y0095758
Y0098298
X0114808Y0097663
Y0095123
Y0100203
Y0102743
Y00889
Y008636
Y008382
T07
X0115697Y0054834
Y0057374
Y0066294
Y0068834
X0114935Y0074422
Y0076962
X0057531Y0054991
X0054991
T09
X004038Y0125348
T10
X00486Y0109348
X01038Y0125348
M30
