M48
;Layer_Color=9474304
;FILE_FORMAT=4:4
METRIC,LZ
;TYPE=PLATED
T01F00S00C0.2000
T02F00S00C0.3000
T03F00S00C0.5000
T04F00S00C0.9144
T05F00S00C1.0000
T06F00S00C1.0200
T08F00S00C3.2000
;TYPE=NON_PLATED
T09F00S00C2.3900
T10F00S00C3.4500
%
T01
X0040386Y0015732
X0060198Y001116
X006223Y000989
T02
X0035306Y0014335
X0039878Y0010525
X00438162Y00131924
X0044721Y00124252
X0045593Y0011541
X0054229Y0015351
X0054037Y0016367
X0056896Y001624
X005715Y0017891
X00646174Y0015859
X0069342Y0015605
X0071882Y0022209
X00721052Y00252878
X0068072Y0025384
X0061976Y0023479
X00431803Y0024112
X0043053Y0025003
X0041529Y0023606
X0040259Y0023352
X003937Y00221645
X0038481Y0020812
X0036068Y002005
X0038608Y0030337
T03
X006604Y001243
X0069342Y0014335
X0064643Y0023098
X0077343Y0018653
T04
X003683Y0004556
X003937
X004191
X004445
X00470027Y00045941
Y00071341
X00495427
X00520827
X00546227
Y00045941
X00520827
X00495427
X00444627Y00071341
X00419227
X00393827
X00368427
X00343027
X00317627
X00292227
X002921Y00046068
X00317246
X003429Y0004556
X002667Y00046068
X00266827Y00071341
X0057658Y0026908
Y0029448
Y0031988
X0060198Y00319626
Y0029448
Y0026908
T05
X0077216Y0005064
X0079756
X0082296
X006985Y0004937
X006731
X006477
X006223
T06
X0016637Y0017764
Y0020304
Y0029224
Y0031764
X0082169Y0031099
Y0028559
T08
X0084Y0
X0
X0084Y0061
X0
T09
X0006344Y0055736
T10
X0014564Y0039736
X0069764Y0055736
M30
