G04*
G04 #@! TF.GenerationSoftware,Altium Limited,Altium Designer,24.1.2 (44)*
G04*
G04 Layer_Color=16711935*
%FSLAX44Y44*%
%MOMM*%
G71*
G04*
G04 #@! TF.SameCoordinates,F76812B4-4960-4A8F-8B2A-70901E51660E*
G04*
G04*
G04 #@! TF.FilePolarity,Negative*
G04*
G01*
G75*
%ADD11C,0.1524*%
%ADD14C,0.2540*%
%ADD46O,2.3876X1.7272*%
%ADD47C,1.8000*%
%ADD48R,4.2672X2.7432*%
%ADD49R,2.7432X4.2672*%
%ADD50O,1.8032X2.0032*%
G04:AMPARAMS|DCode=51|XSize=2.0032mm|YSize=1.8032mm|CornerRadius=0.5016mm|HoleSize=0mm|Usage=FLASHONLY|Rotation=90.000|XOffset=0mm|YOffset=0mm|HoleType=Round|Shape=RoundedRectangle|*
%AMROUNDEDRECTD51*
21,1,2.0032,0.8000,0,0,90.0*
21,1,1.0000,1.8032,0,0,90.0*
1,1,1.0032,0.4000,0.5000*
1,1,1.0032,0.4000,-0.5000*
1,1,1.0032,-0.4000,-0.5000*
1,1,1.0032,-0.4000,0.5000*
%
%ADD51ROUNDEDRECTD51*%
%ADD52O,1.7272X2.3876*%
%ADD53C,2.5932*%
%ADD54C,3.6532*%
%ADD55C,3.4032*%
%ADD56C,0.8032*%
%ADD57C,1.2032*%
D11*
X-146094Y278083D02*
X-143554Y273005D01*
X-138476Y267927D01*
X-133398D01*
X-130858Y270466D01*
Y275544D01*
X-133398Y278083D01*
X-135937D01*
X-138476Y275544D01*
Y267927D01*
X-130858Y283162D02*
Y288240D01*
Y285701D01*
X-146094D01*
X-143554Y283162D01*
X-130858Y295858D02*
X-133398D01*
Y298397D01*
X-130858D01*
Y295858D01*
X-143554Y308554D02*
X-146094Y311093D01*
Y316171D01*
X-143554Y318710D01*
X-133398D01*
X-130858Y316171D01*
Y311093D01*
X-133398Y308554D01*
X-143554D01*
Y323789D02*
X-146094Y326328D01*
Y331406D01*
X-143554Y333945D01*
X-133398D01*
X-130858Y331406D01*
Y326328D01*
X-133398Y323789D01*
X-143554D01*
X381657Y-63077D02*
X384196Y-60538D01*
X389275D01*
X391814Y-63077D01*
Y-65616D01*
X389275Y-68155D01*
X391814Y-70695D01*
Y-73234D01*
X389275Y-75773D01*
X384196D01*
X381657Y-73234D01*
Y-70695D01*
X384196Y-68155D01*
X381657Y-65616D01*
Y-63077D01*
X384196Y-68155D02*
X389275D01*
X404510Y-75773D02*
Y-60538D01*
X396892Y-68155D01*
X407049D01*
X412127Y-75773D02*
Y-73234D01*
X414666D01*
Y-75773D01*
X412127D01*
X424823Y-63077D02*
X427362Y-60538D01*
X432441D01*
X434980Y-63077D01*
Y-73234D01*
X432441Y-75773D01*
X427362D01*
X424823Y-73234D01*
Y-63077D01*
X440058D02*
X442597Y-60538D01*
X447676D01*
X450215Y-63077D01*
Y-73234D01*
X447676Y-75773D01*
X442597D01*
X440058Y-73234D01*
Y-63077D01*
D14*
X-142540Y610000D02*
X-18540D01*
X-142540Y0D02*
X-18540D01*
X-140000Y338009D02*
Y610000D01*
Y0D02*
Y263863D01*
X-145080Y594760D02*
X-140000Y610000D01*
X-134920Y594760D01*
X-140000Y0D02*
X-134920Y15240D01*
X-145080D02*
X-140000Y0D01*
X840000Y-69172D02*
Y-18540D01*
X0Y-69172D02*
Y-18540D01*
X454279Y-66631D02*
X840000D01*
X0D02*
X377593D01*
X824760Y-61551D02*
X840000Y-66631D01*
X824760Y-71712D02*
X840000Y-66631D01*
X0D02*
X15240Y-71712D01*
X0Y-66631D02*
X15240Y-61551D01*
D46*
X576580Y294480D02*
D03*
Y319880D02*
D03*
Y269080D02*
D03*
X601980Y319626D02*
D03*
Y294480D02*
D03*
Y269080D02*
D03*
D47*
X821690Y310990D02*
D03*
Y285590D02*
D03*
X166370Y203040D02*
D03*
Y292240D02*
D03*
Y177640D02*
D03*
Y317640D02*
D03*
D48*
X40640Y49370D02*
D03*
D49*
X2540Y100170D02*
D03*
X66040D02*
D03*
D50*
X698500Y49370D02*
D03*
X673100D02*
D03*
X647700D02*
D03*
X797560Y50640D02*
D03*
X822960D02*
D03*
D51*
X622300Y49370D02*
D03*
X772160Y50640D02*
D03*
D52*
X546227Y71341D02*
D03*
X520827D02*
D03*
X495427D02*
D03*
X470027D02*
D03*
X393827D02*
D03*
X368427D02*
D03*
X495427Y45941D02*
D03*
X368300Y45560D02*
D03*
X266700Y46068D02*
D03*
X292100D02*
D03*
X317246D02*
D03*
X342900Y45560D02*
D03*
X470027Y45941D02*
D03*
X317627Y71341D02*
D03*
X266827D02*
D03*
X393700Y45560D02*
D03*
X546227Y45941D02*
D03*
X520827D02*
D03*
X292227Y71341D02*
D03*
X419100Y45560D02*
D03*
X444500D02*
D03*
X343027Y71341D02*
D03*
X419227D02*
D03*
X444627D02*
D03*
D53*
X63440Y557360D02*
D03*
D54*
X697640D02*
D03*
X145640Y397360D02*
D03*
D55*
X840000Y610000D02*
D03*
X0D02*
D03*
X840000Y0D02*
D03*
X0D02*
D03*
D56*
X402590Y233520D02*
D03*
X455930Y115410D02*
D03*
X398780Y105250D02*
D03*
X646174Y158590D02*
D03*
X360680Y200500D02*
D03*
X542290Y153510D02*
D03*
X693420Y156050D02*
D03*
X718820Y222090D02*
D03*
X568960Y162400D02*
D03*
X540370Y163670D02*
D03*
X447210Y124252D02*
D03*
X438162Y131924D02*
D03*
X384810Y208120D02*
D03*
X393700Y221645D02*
D03*
X386080Y303370D02*
D03*
X415290Y236060D02*
D03*
X430530Y250030D02*
D03*
X431803Y241120D02*
D03*
X680720Y253840D02*
D03*
X721052Y252878D02*
D03*
X571500Y178910D02*
D03*
X619760Y234790D02*
D03*
X403860Y157320D02*
D03*
X353060Y143350D02*
D03*
X622300Y98900D02*
D03*
X601980Y111600D02*
D03*
D57*
X660400Y124300D02*
D03*
X693420Y143350D02*
D03*
X646430Y230980D02*
D03*
X773430Y186530D02*
D03*
M02*
