G04*
G04 #@! TF.GenerationSoftware,Altium Limited,Altium Designer,24.1.2 (44)*
G04*
G04 Layer_Physical_Order=1*
G04 Layer_Color=255*
%FSLAX44Y44*%
%MOMM*%
G71*
G04*
G04 #@! TF.SameCoordinates,84908A0F-CC4F-4C15-BE80-339605CD68EC*
G04*
G04*
G04 #@! TF.FilePolarity,Positive*
G04*
G01*
G75*
%ADD10C,0.2000*%
%ADD14C,0.3000*%
%ADD23R,1.2000X1.3000*%
%ADD24R,1.4000X1.2000*%
%ADD25R,1.4700X1.1600*%
%ADD26R,1.2000X1.4000*%
%ADD27R,1.1600X1.4700*%
G04:AMPARAMS|DCode=28|XSize=0.6mm|YSize=1.35mm|CornerRadius=0.045mm|HoleSize=0mm|Usage=FLASHONLY|Rotation=90.000|XOffset=0mm|YOffset=0mm|HoleType=Round|Shape=RoundedRectangle|*
%AMROUNDEDRECTD28*
21,1,0.6000,1.2600,0,0,90.0*
21,1,0.5100,1.3500,0,0,90.0*
1,1,0.0900,0.6300,0.2550*
1,1,0.0900,0.6300,-0.2550*
1,1,0.0900,-0.6300,-0.2550*
1,1,0.0900,-0.6300,0.2550*
%
%ADD28ROUNDEDRECTD28*%
%ADD29O,1.5500X0.2500*%
%ADD30O,0.2500X1.5500*%
%ADD31R,1.9000X1.1000*%
%ADD32R,2.5400X1.7780*%
%ADD33R,0.8000X1.2000*%
%ADD34R,7.4600X6.4700*%
%ADD35R,0.6096X1.5494*%
%ADD36R,0.9000X1.5000*%
%ADD37R,1.5000X0.9000*%
%ADD38R,0.9000X0.9000*%
%ADD65C,0.5000*%
%ADD66C,1.0000*%
%ADD67O,2.1844X1.5240*%
%ADD68O,1.8000X1.6000*%
G04:AMPARAMS|DCode=69|XSize=1.8mm|YSize=1.6mm|CornerRadius=0.4mm|HoleSize=0mm|Usage=FLASHONLY|Rotation=180.000|XOffset=0mm|YOffset=0mm|HoleType=Round|Shape=RoundedRectangle|*
%AMROUNDEDRECTD69*
21,1,1.8000,0.8000,0,0,180.0*
21,1,1.0000,1.6000,0,0,180.0*
1,1,0.8000,-0.5000,0.4000*
1,1,0.8000,0.5000,0.4000*
1,1,0.8000,0.5000,-0.4000*
1,1,0.8000,-0.5000,-0.4000*
%
%ADD69ROUNDEDRECTD69*%
%ADD70C,1.6000*%
%ADD71O,1.5240X2.1844*%
%ADD72C,2.3900*%
%ADD73C,3.4500*%
%ADD74R,4.0640X2.5400*%
%ADD75R,2.5400X4.0640*%
%ADD76C,0.3500*%
%ADD77C,0.6000*%
%ADD78C,1.1000*%
G36*
X895096Y739521D02*
Y755015D01*
X862584D01*
Y739521D01*
X895096D01*
D02*
G37*
D10*
X742950Y928370D02*
X754380Y916940D01*
X759460D01*
X762360Y914040D01*
Y902580D02*
Y914040D01*
X812360Y902580D02*
Y919390D01*
X812800Y919830D01*
X863904Y935024D02*
X864208Y935328D01*
X863600Y934720D02*
X863904Y935024D01*
X777300Y902640D02*
X777360Y902580D01*
X777300Y902640D02*
Y927040D01*
X777240Y927100D02*
X777300Y927040D01*
X843280Y895350D02*
Y989330D01*
X824230Y890270D02*
X824670Y889830D01*
X825110D01*
X837760D01*
X843280Y895350D01*
Y989330D02*
X852170Y998220D01*
X864208Y935328D02*
Y958284D01*
X897335Y998220D02*
X901700D01*
X852170D02*
X897335D01*
X864870Y890270D02*
X916940D01*
X964592Y937922D01*
Y959466D01*
X792360Y802760D02*
Y822080D01*
Y802760D02*
X797560Y797560D01*
X564070Y821402D02*
Y901650D01*
X499390Y966330D02*
X564070Y901650D01*
X497840Y966330D02*
X499390D01*
X1147080Y1002030D02*
X1148080D01*
X1047630Y902580D02*
X1147080Y1002030D01*
X1050280Y879830D02*
X1147080Y976630D01*
X1148080D01*
X825110Y879830D02*
X1050280D01*
X1146946Y864734D02*
X1148080Y863600D01*
X825110Y864830D02*
X825206Y864734D01*
X1146946D01*
X1125450Y859830D02*
X1147080Y838200D01*
X825110Y859830D02*
X1125450D01*
X1147080Y838200D02*
X1148080D01*
X793626Y884830D02*
X825110D01*
X762360Y891180D02*
X768792Y884748D01*
X793544D02*
X793626Y884830D01*
X768792Y884748D02*
X793544D01*
X762360Y891180D02*
Y902580D01*
X668020Y783590D02*
X680720D01*
X723395Y826265D01*
X738503Y834830D02*
X744610D01*
X738272Y834599D02*
X738503Y834830D01*
X676855Y771240D02*
X738272Y832657D01*
Y834599D01*
X723395Y826265D02*
Y842390D01*
X560070Y810260D02*
X599090Y771240D01*
X676855D01*
X757360Y902580D02*
Y907849D01*
X744610Y849830D02*
X744706Y849925D01*
X735740Y854734D02*
X744514D01*
X757360Y855069D02*
Y902580D01*
X723395Y842390D02*
X735740Y854734D01*
X752216Y849925D02*
X757360Y855069D01*
X744706Y849925D02*
X752216D01*
X744514Y854734D02*
X744610Y854830D01*
X590550Y796290D02*
X685800D01*
X706120Y816610D02*
Y833120D01*
X685800Y796290D02*
X706120Y816610D01*
X577850Y808990D02*
X590550Y796290D01*
X706120Y833120D02*
X732830Y859830D01*
X744610D01*
X762566Y949298D02*
Y978876D01*
X762860Y979170D01*
X743566Y939184D02*
Y949298D01*
X767360Y902580D02*
Y915390D01*
X743566Y939184D02*
X767360Y915390D01*
X708170Y969860D02*
X718068D01*
X721360Y966568D01*
Y939800D02*
Y966568D01*
X703170Y974860D02*
Y975360D01*
Y974860D02*
X708170Y969860D01*
X721360Y939800D02*
X753080Y908080D01*
X757129D02*
X757360Y907849D01*
X753080Y908080D02*
X757129D01*
X703530Y896670D02*
Y948690D01*
Y896670D02*
X715370Y884830D01*
X744610D01*
X612000Y930910D02*
X612200Y931110D01*
X637540D01*
X612000Y905510D02*
X612200Y905310D01*
X637540D01*
Y931110D02*
X641540D01*
X692820Y879830D02*
X744610D01*
X641540Y931110D02*
X692820Y879830D01*
X637540Y905310D02*
X641540D01*
X672020Y874830D02*
X744610D01*
X641540Y905310D02*
X672020Y874830D01*
X691408Y832474D02*
X697854D01*
X686408Y827474D02*
X691408Y832474D01*
X697854D02*
X730210Y864830D01*
X744610D01*
X564070Y821402D02*
X576482Y808990D01*
X577850D01*
X560070Y810260D02*
Y840740D01*
X515620Y885190D02*
X560070Y840740D01*
X478017Y885190D02*
X515620D01*
X710764Y869830D02*
X744610D01*
X687408Y846474D02*
X710764Y869830D01*
X686408Y846474D02*
X687408D01*
X458260Y877590D02*
Y881170D01*
X454760Y871090D02*
X458260Y877590D01*
Y881170D02*
X469900Y892810D01*
X746610Y804830D02*
X757360Y815580D01*
Y822080D01*
X744220Y804830D02*
X746610D01*
X467460Y874090D02*
X472660Y879290D01*
X467460Y871090D02*
Y874090D01*
X472660Y879290D02*
Y879833D01*
X478017Y885190D01*
X782360Y624800D02*
X828040Y579120D01*
Y532130D02*
Y579120D01*
X787360Y638850D02*
X798830Y627380D01*
X787360Y638850D02*
Y822080D01*
X782360Y624800D02*
Y822080D01*
X838200Y521970D02*
X901798D01*
X916940Y537112D02*
Y542290D01*
X901798Y521970D02*
X916940Y537112D01*
X828040Y532130D02*
X838200Y521970D01*
X739140Y570992D02*
X777360Y609212D01*
Y822080D01*
X662813Y539115D02*
Y542417D01*
X762360Y794110D02*
Y822080D01*
X756920Y788670D02*
X762360Y794110D01*
X739140Y567690D02*
Y570992D01*
X772360Y629612D02*
Y822080D01*
X713740Y570992D02*
X772360Y629612D01*
X713740Y567690D02*
Y570992D01*
X688340Y567690D02*
Y570992D01*
X737870Y620522D01*
Y708660D01*
X767360Y738150D01*
Y822080D01*
X901700Y800002D02*
Y808140D01*
X906500Y812940D02*
X908050D01*
X901700Y808140D02*
X906500Y812940D01*
X895448Y793750D02*
X901700Y800002D01*
X807360Y803000D02*
X816610Y793750D01*
X895448D01*
X807360Y803000D02*
Y822080D01*
X884310D02*
X892670Y830440D01*
X908050D01*
X812360Y822080D02*
X884310D01*
X840740Y564388D02*
Y567690D01*
X984390Y748030D02*
X1018540D01*
X980440Y744080D02*
X984390Y748030D01*
X1012190Y691515D02*
X1017270Y696595D01*
X1012190Y674370D02*
Y691515D01*
X1017270Y696595D02*
Y746760D01*
X1018540Y748030D01*
X1029647D01*
X1012190Y655320D02*
Y674370D01*
Y655320D02*
X1028700Y638810D01*
X1050430D01*
D14*
X341360Y982980D02*
X378560Y945780D01*
Y871090D02*
Y945780D01*
X340360Y982980D02*
X341360D01*
X684530Y948690D02*
Y976180D01*
X682810Y977900D02*
X684530Y976180D01*
X655320Y857250D02*
X666096Y846474D01*
X686408D01*
X651510Y857250D02*
X655320D01*
X668724Y827474D02*
X686408D01*
X655320Y814070D02*
X668724Y827474D01*
X651510Y814070D02*
X655320D01*
X618350Y824230D02*
X637540D01*
X647700Y814070D01*
X651510D01*
X618210Y848483D02*
X622510Y852783D01*
X624060D01*
X628527Y857250D01*
X651510D01*
X618210Y846933D02*
Y848483D01*
X600710Y824370D02*
X600850Y824230D01*
X600710Y824370D02*
Y846933D01*
X497840Y966330D02*
Y990600D01*
X458303Y1014337D02*
X463943D01*
X487680Y990600D02*
X497840D01*
X457200Y1015440D02*
X458303Y1014337D01*
X463943D02*
X487680Y990600D01*
X340360Y957580D02*
X341360D01*
X365860Y933080D01*
Y871090D02*
Y933080D01*
X411480Y615634D02*
Y657860D01*
X391260Y678080D02*
X411480Y657860D01*
Y615634D02*
X429876Y597238D01*
X336550Y632630D02*
X353160Y649240D01*
X359970Y630630D02*
X368800Y621800D01*
X336550Y630630D02*
X359970D01*
X336550D02*
Y632630D01*
X353160Y649240D02*
Y696090D01*
X368800Y621800D02*
X370350D01*
X374650Y615950D02*
Y617500D01*
X370350Y621800D02*
X374650Y617500D01*
X375354Y584862D02*
Y615246D01*
X374650Y615950D02*
X375354Y615246D01*
X429876Y596238D02*
Y597238D01*
X391260Y678080D02*
Y696090D01*
X403960Y683160D02*
X428606Y658514D01*
Y631798D02*
Y658514D01*
X403960Y683160D02*
Y696090D01*
X1148080Y889000D02*
X1149080D01*
X1012190Y674370D02*
X1024858D01*
X993140D02*
X1012190D01*
X986795Y678180D02*
X989330D01*
X979035Y684390D02*
X980585D01*
X986795Y678180D01*
X989330D02*
X993140Y674370D01*
D23*
X743360Y1008380D02*
D03*
X762860D02*
D03*
X762860Y977900D02*
D03*
X743360D02*
D03*
X683670Y975360D02*
D03*
X703170D02*
D03*
X472850Y632460D02*
D03*
X492350D02*
D03*
X472850Y596900D02*
D03*
X492350D02*
D03*
X472850Y556260D02*
D03*
X492350D02*
D03*
D24*
X864208Y958284D02*
D03*
Y977284D02*
D03*
X497840Y990600D02*
D03*
Y1009600D02*
D03*
X686408Y827474D02*
D03*
Y846474D02*
D03*
X546347Y737166D02*
D03*
Y718166D02*
D03*
X964592Y959466D02*
D03*
Y978466D02*
D03*
D25*
X1099441Y1025030D02*
D03*
Y1042530D02*
D03*
X1094740Y797420D02*
D03*
Y779920D02*
D03*
X979035Y666890D02*
D03*
Y684390D02*
D03*
X956333Y666890D02*
D03*
Y684390D02*
D03*
X980440Y726580D02*
D03*
Y744080D02*
D03*
Y782040D02*
D03*
Y764540D02*
D03*
X978855Y830440D02*
D03*
Y812940D02*
D03*
X956152Y830580D02*
D03*
Y813080D02*
D03*
X932180Y830440D02*
D03*
Y812940D02*
D03*
X908050Y830440D02*
D03*
Y812940D02*
D03*
X568960Y735190D02*
D03*
Y717690D02*
D03*
X497840Y966330D02*
D03*
Y948830D02*
D03*
D26*
X1056074Y741072D02*
D03*
X1075074D02*
D03*
X1070196Y674978D02*
D03*
X1051196D02*
D03*
X762566Y949298D02*
D03*
X743566D02*
D03*
X684530Y948690D02*
D03*
X703530D02*
D03*
X447606Y631798D02*
D03*
X428606D02*
D03*
X448876Y596238D02*
D03*
X429876D02*
D03*
X447606Y555598D02*
D03*
X428606D02*
D03*
X375354Y584862D02*
D03*
X394354D02*
D03*
X683876Y1008988D02*
D03*
X702876D02*
D03*
D27*
X1055510Y716280D02*
D03*
X1073010D02*
D03*
X1067930Y638810D02*
D03*
X1050430D02*
D03*
X594500Y930910D02*
D03*
X612000D02*
D03*
X594500Y905510D02*
D03*
X612000D02*
D03*
X600710Y846933D02*
D03*
X618210D02*
D03*
X618350Y824230D02*
D03*
X600850D02*
D03*
X536080Y653893D02*
D03*
X553580D02*
D03*
X536080Y631190D02*
D03*
X553580D02*
D03*
X536080Y608330D02*
D03*
X553580D02*
D03*
X374650Y615950D02*
D03*
X392150D02*
D03*
X822820Y713740D02*
D03*
X805320D02*
D03*
X875030Y637540D02*
D03*
X892530D02*
D03*
D28*
X1024858Y664870D02*
D03*
Y674370D02*
D03*
Y683870D02*
D03*
X1001158D02*
D03*
Y664870D02*
D03*
X1005947Y738530D02*
D03*
Y757530D02*
D03*
X1029647D02*
D03*
Y748030D02*
D03*
Y738530D02*
D03*
D29*
X744610Y889830D02*
D03*
Y884830D02*
D03*
X744610Y879830D02*
D03*
X744610Y874830D02*
D03*
Y869830D02*
D03*
X744610Y864830D02*
D03*
X744610Y859830D02*
D03*
Y854830D02*
D03*
Y849830D02*
D03*
X744610Y844830D02*
D03*
X744610Y839830D02*
D03*
Y834830D02*
D03*
X825110D02*
D03*
Y839830D02*
D03*
X825110Y844830D02*
D03*
X825110Y849830D02*
D03*
Y854830D02*
D03*
X825110Y859830D02*
D03*
Y864830D02*
D03*
X825110Y869830D02*
D03*
Y874830D02*
D03*
X825110Y879830D02*
D03*
X825110Y884830D02*
D03*
Y889830D02*
D03*
D30*
X757360Y822080D02*
D03*
X762360D02*
D03*
X767360Y822080D02*
D03*
X772360Y822080D02*
D03*
X777360D02*
D03*
X782360D02*
D03*
X787360Y822080D02*
D03*
X792360Y822080D02*
D03*
X797360D02*
D03*
X802360Y822080D02*
D03*
X807360Y822080D02*
D03*
X812360D02*
D03*
Y902580D02*
D03*
X807360D02*
D03*
X802360Y902580D02*
D03*
X797360Y902580D02*
D03*
X792360D02*
D03*
X787360Y902580D02*
D03*
X782360D02*
D03*
X777360Y902580D02*
D03*
X772360D02*
D03*
X767360Y902580D02*
D03*
X762360Y902580D02*
D03*
X757360D02*
D03*
D31*
X637540Y931110D02*
D03*
Y905310D02*
D03*
D32*
X651510Y814070D02*
D03*
Y857250D02*
D03*
D33*
X609600Y690170D02*
D03*
Y760170D02*
D03*
X336550Y560630D02*
D03*
Y630630D02*
D03*
X457200Y1015440D02*
D03*
Y945440D02*
D03*
D34*
X1158700Y1173480D02*
D03*
X365300D02*
D03*
D35*
X901827Y682752D02*
D03*
X878840D02*
D03*
X855853D02*
D03*
D36*
X492860Y696090D02*
D03*
X480160D02*
D03*
X467460D02*
D03*
X454760D02*
D03*
X442060D02*
D03*
X429360D02*
D03*
X416660D02*
D03*
X403960D02*
D03*
X391260D02*
D03*
X378560D02*
D03*
X365860D02*
D03*
X353160D02*
D03*
X340460D02*
D03*
X327760D02*
D03*
X492860Y871090D02*
D03*
X480160D02*
D03*
X467460D02*
D03*
X454760D02*
D03*
X442060D02*
D03*
X429360D02*
D03*
X416660D02*
D03*
X403960D02*
D03*
X391260D02*
D03*
X378560D02*
D03*
X365860D02*
D03*
X353160D02*
D03*
X340460D02*
D03*
X327760D02*
D03*
D37*
X505360Y789940D02*
D03*
Y802640D02*
D03*
Y815340D02*
D03*
Y828040D02*
D03*
Y840740D02*
D03*
Y777240D02*
D03*
Y764540D02*
D03*
Y751840D02*
D03*
Y739140D02*
D03*
Y726440D02*
D03*
D38*
X404960Y768590D02*
D03*
Y754590D02*
D03*
Y782590D02*
D03*
X390960Y768590D02*
D03*
Y754590D02*
D03*
Y782590D02*
D03*
X418960Y768590D02*
D03*
Y754590D02*
D03*
Y782590D02*
D03*
D65*
X701900Y976630D02*
X703170Y975360D01*
X743360Y979170D02*
X746860Y982670D01*
X742090Y977900D02*
X743360Y979170D01*
X703170Y977900D02*
X742090D01*
X746860Y989041D02*
X750959Y993140D01*
X755650D01*
X746860Y982670D02*
Y989041D01*
X759360Y1004880D02*
X762860Y1008380D01*
X759360Y996850D02*
Y1004880D01*
X755650Y993140D02*
X759360Y996850D01*
X927100Y997966D02*
X930402D01*
X974966Y1042530D02*
X1099441D01*
X930402Y997966D02*
X974966Y1042530D01*
X1146880Y1026230D02*
X1148080Y1027430D01*
X1100641Y1026230D02*
X1146880D01*
X1099441Y1025030D02*
X1100641Y1026230D01*
X1102121Y1045210D02*
X1164590D01*
X1099441Y1042530D02*
X1102121Y1045210D01*
X1164590D02*
X1168400Y1041400D01*
Y970550D02*
Y1041400D01*
X1148080Y951230D02*
X1149080D01*
X1168400Y970550D01*
X927100Y972820D02*
X932805D01*
X938451Y978466D02*
X964592D01*
X932805Y972820D02*
X938451Y978466D01*
X864208Y977284D02*
X891163D01*
X895627Y972820D01*
X901700D01*
Y947420D02*
X927100D01*
X901700Y998220D02*
X901827Y998093D01*
X926973D01*
X927100Y997966D01*
X762860Y1008380D02*
X887175D01*
X897335Y998220D01*
X702876Y1008988D02*
X703180Y1008684D01*
X743056D01*
X743360Y1008380D01*
X645160Y1036320D02*
X672492Y1008988D01*
X683876D01*
X358140Y1000760D02*
X393700Y1036320D01*
X645160D01*
X574394Y930910D02*
X594500D01*
X566774Y923290D02*
X574394Y930910D01*
X565150Y923290D02*
X566774D01*
X492900Y945440D02*
X496290Y948830D01*
X414020Y944880D02*
X457200D01*
X699670Y978860D02*
Y984350D01*
X693420Y990600D02*
X699670Y984350D01*
Y978860D02*
X701900Y976630D01*
X580390Y990600D02*
X693420D01*
X561390Y1009600D02*
X580390Y990600D01*
X497840Y1009600D02*
X561390D01*
X594500Y905510D02*
Y930910D01*
X457200Y945440D02*
X492900D01*
X358140Y1000760D02*
X414020Y944880D01*
X322580Y948960D02*
Y997831D01*
X325509Y1000760D01*
X358140D01*
X339360Y932180D02*
X340360D01*
X322580Y948960D02*
X339360Y932180D01*
X327760Y920580D02*
X339360Y932180D01*
X327760Y871090D02*
Y920580D01*
Y713840D02*
Y871090D01*
Y696090D02*
Y713840D01*
X494860Y868680D02*
X516890D01*
X546347Y839223D01*
X492860Y870680D02*
Y871090D01*
Y870680D02*
X494860Y868680D01*
X546347Y737166D02*
Y839223D01*
X570510Y735190D02*
X595490Y760170D01*
X568960Y735190D02*
X570510D01*
X595490Y760170D02*
X609600D01*
X570510Y717690D02*
X598030Y690170D01*
X568960Y717690D02*
X570510D01*
X598030Y690170D02*
X609600D01*
X568960Y670823D02*
Y717690D01*
X553580Y655443D02*
X568960Y670823D01*
X553580Y653893D02*
Y655443D01*
X546347Y737166D02*
X547335Y736178D01*
X567972D01*
X568960Y735190D01*
X327760Y713840D02*
X340360Y726440D01*
X505360D01*
X545347Y718166D02*
X546347D01*
X536080Y653893D02*
Y708898D01*
X545347Y718166D01*
X598170Y535144D02*
Y591820D01*
X581660Y608330D02*
X598170Y591820D01*
X578647Y515620D02*
X598170Y535144D01*
X309880Y539750D02*
X334010Y515620D01*
X578647D01*
X840740Y570992D02*
X875030Y605282D01*
X840740Y567690D02*
Y570992D01*
X847090Y657860D02*
X868291D01*
X805320Y699630D02*
Y713740D01*
Y727850D01*
Y699630D02*
X847090Y657860D01*
X1035010Y586780D02*
Y610910D01*
X1014730Y631190D02*
X1035010Y610910D01*
Y586780D02*
X1045210Y576580D01*
X914400Y665480D02*
X948690Y631190D01*
X1014730D01*
X910590Y697230D02*
X914400Y693420D01*
Y665480D02*
Y693420D01*
X905510Y697230D02*
X910590D01*
X899160Y703580D02*
X905510Y697230D01*
X876681Y703580D02*
X899160D01*
X856401Y687999D02*
X861100D01*
X876681Y703580D01*
X855853Y682752D02*
Y687451D01*
X856401Y687999D01*
X933450Y687070D02*
X946430Y674090D01*
X954783Y666890D02*
X979035D01*
X947583Y674090D02*
X954783Y666890D01*
X946430Y674090D02*
X947583D01*
X933450Y687070D02*
Y688340D01*
X906780Y715010D02*
X933450Y688340D01*
X908050Y779780D02*
Y812940D01*
X336550Y560630D02*
Y576408D01*
X348066Y587924D01*
X392150Y615950D02*
Y642340D01*
X321310Y647700D02*
X339090Y665480D01*
X321310Y547370D02*
Y647700D01*
X339090Y665480D02*
Y694720D01*
X340460Y696090D01*
X327760Y693090D02*
Y696090D01*
X309880Y675210D02*
X327760Y693090D01*
X309880Y539750D02*
Y675210D01*
X321310Y547370D02*
X332740Y535940D01*
X482600D01*
X488920Y542260D02*
Y552830D01*
X482600Y535940D02*
X488920Y542260D01*
Y552830D02*
X492350Y556260D01*
X339582Y555598D02*
X428606D01*
X336550Y558630D02*
X339582Y555598D01*
X336550Y558630D02*
Y560630D01*
X492350Y577850D02*
Y596900D01*
Y558800D02*
Y577850D01*
X412750Y576580D02*
X491080D01*
X492350Y577850D01*
X407854Y581476D02*
X412750Y576580D01*
X394354Y584862D02*
X397741Y581476D01*
X407854D01*
X449704Y558800D02*
X472850D01*
X472519Y596569D02*
X472850Y596900D01*
X449207Y596569D02*
X472519D01*
X448876Y596238D02*
X449207Y596569D01*
X472519Y632129D02*
X472850Y632460D01*
X447937Y632129D02*
X472519D01*
X447606Y631798D02*
X447937Y632129D01*
X492350Y596900D02*
Y632460D01*
Y632960D02*
X513283Y653893D01*
X492350Y632460D02*
Y632960D01*
X513283Y653893D02*
X536080D01*
X553580Y631190D02*
Y653893D01*
X536080Y631190D02*
Y653893D01*
Y608330D02*
Y631190D01*
X553580Y608330D02*
Y631190D01*
X536080Y589140D02*
Y608330D01*
Y589140D02*
X575310Y549910D01*
X553580Y608330D02*
X581660D01*
X875030Y622300D02*
Y637540D01*
Y605282D02*
Y622300D01*
X549910Y549910D02*
X552015Y547805D01*
X854710Y715010D02*
X906780D01*
X814070Y736600D02*
X833120D01*
X854710Y715010D01*
X805320Y727850D02*
X814070Y736600D01*
X904240Y593090D02*
X932180D01*
X986790Y538480D02*
X994410D01*
X932180Y593090D02*
X986790Y538480D01*
X875030Y622300D02*
X904240Y593090D01*
X878292Y682204D02*
X878840Y682752D01*
X878292Y667861D02*
Y682204D01*
X868291Y657860D02*
X878292Y667861D01*
X893270Y652390D02*
X901700Y660820D01*
X892530Y637540D02*
X893270Y638280D01*
Y652390D01*
X918210Y637540D02*
X953770Y601980D01*
X892530Y637540D02*
X918210D01*
X847011Y687999D02*
X855305D01*
X855853Y687451D01*
X822820Y712190D02*
Y713740D01*
Y712190D02*
X847011Y687999D01*
X901700Y660820D02*
Y682625D01*
X901827Y682752D01*
X953770Y601980D02*
X994410D01*
X980555Y665370D02*
X1000658D01*
X979035Y666890D02*
X980555Y665370D01*
X1000658D02*
X1001158Y664870D01*
X956333Y684390D02*
X979035D01*
X939800Y700923D02*
X951483Y689240D01*
X939800Y700923D02*
Y779780D01*
X954783Y684390D02*
X956333D01*
X951483Y687690D02*
X954783Y684390D01*
X951483Y687690D02*
Y689240D01*
X956152Y796133D02*
Y813080D01*
X939800Y779780D02*
X956152Y796133D01*
X1081140Y783220D02*
X1091440D01*
X1094740Y779920D01*
X1078230Y786130D02*
X1081140Y783220D01*
X1078230Y786130D02*
Y789940D01*
X1068070Y800100D02*
X1078230Y789940D01*
X1010920Y800100D02*
X1068070D01*
X998080Y812940D02*
X1010920Y800100D01*
X978855Y812940D02*
X998080D01*
X1010920Y828040D02*
X1023620Y815340D01*
X1076820D02*
X1094740Y797420D01*
X1023620Y815340D02*
X1076820D01*
X1094740Y797420D02*
X1096898Y795262D01*
X908050Y812940D02*
X932180D01*
X932250Y813010D02*
X956083D01*
X956152Y813080D01*
X932180Y812940D02*
X932250Y813010D01*
X978785D02*
X978855Y812940D01*
X956223Y813010D02*
X978785D01*
X956152Y813080D02*
X956223Y813010D01*
X908050Y830440D02*
X932180D01*
X932250Y830510D02*
X956083D01*
X932180Y830440D02*
X932250Y830510D01*
X956083D02*
X956152Y830580D01*
X956223Y830510D01*
X978785D02*
X978855Y830440D01*
X956223Y830510D02*
X978785D01*
X981255Y828040D02*
X1010920D01*
X978855Y830440D02*
X981255Y828040D01*
X1147968Y771002D02*
X1149350Y769620D01*
X1133850Y771002D02*
X1147968D01*
X1109590Y795262D02*
X1133850Y771002D01*
X1096898Y795262D02*
X1109590D01*
X1099820Y744220D02*
X1149350D01*
X1062000Y782040D02*
X1099820Y744220D01*
X980440Y782040D02*
X1062000D01*
X980160Y782320D02*
X980440Y782040D01*
X965200Y782320D02*
X980160D01*
X958850Y775970D02*
X965200Y782320D01*
X958850Y732790D02*
Y775970D01*
X965060Y726580D02*
X980440D01*
X958850Y732790D02*
X965060Y726580D01*
X1001697Y734280D02*
Y738030D01*
X1002197Y738530D01*
X980440Y726580D02*
X993997D01*
X1001697Y734280D01*
X1002197Y738530D02*
X1005947D01*
X980440Y744080D02*
Y764540D01*
X1075074Y741072D02*
Y753726D01*
X1071270Y757530D02*
X1075074Y753726D01*
X1029647Y757530D02*
X1071270D01*
X1055792Y741748D02*
Y743600D01*
X1052574Y738530D02*
X1055792Y741748D01*
X1029647Y738530D02*
X1052574D01*
X1076310Y711430D02*
X1077860D01*
X1100950Y688340D01*
X1073010Y714730D02*
Y716280D01*
Y714730D02*
X1076310Y711430D01*
X1100950Y688340D02*
X1156970D01*
X1055510Y716280D02*
X1058810Y712980D01*
Y702680D02*
Y712980D01*
X1070196Y674978D02*
Y691294D01*
X1058810Y702680D02*
X1070196Y691294D01*
X1055792Y716562D02*
Y743600D01*
X1055510Y716280D02*
X1055792Y716562D01*
X1069698Y656645D02*
Y674480D01*
Y638810D02*
Y656645D01*
X1024858Y664870D02*
X1028608D01*
X1036833Y656645D01*
X1069698D01*
X1067930Y637260D02*
Y638810D01*
X1156850Y548340D02*
X1156970D01*
X1067930Y637260D02*
X1156850Y548340D01*
X1045210Y633590D02*
X1050430Y638810D01*
X1024858Y683870D02*
X1025358Y683370D01*
X1038750D01*
X1038860Y683260D01*
X1051196Y674978D02*
Y675978D01*
X1043914Y683260D02*
X1051196Y675978D01*
X1038860Y683260D02*
X1043914D01*
X1069698Y674480D02*
X1070196Y674978D01*
X1045210Y576580D02*
Y633590D01*
D66*
X1156970Y662940D02*
X1188720Y694690D01*
Y1043940D01*
X1158700Y1073960D02*
X1188720Y1043940D01*
X1156970Y573740D02*
X1212850Y629620D01*
Y1230630D01*
X1192530Y1250950D02*
X1212850Y1230630D01*
X1158700Y1073960D02*
Y1173480D01*
X1118870Y1250950D02*
X1192530D01*
X1041400Y1173480D02*
X1118870Y1250950D01*
X365300Y1173480D02*
X1041400D01*
D67*
X901700Y972820D02*
D03*
Y998220D02*
D03*
Y947420D02*
D03*
X927100Y997966D02*
D03*
Y972820D02*
D03*
Y947420D02*
D03*
D68*
X1148080Y889000D02*
D03*
Y863600D02*
D03*
Y976630D02*
D03*
Y1002030D02*
D03*
Y1027430D02*
D03*
X340360Y957580D02*
D03*
Y932180D02*
D03*
D69*
X1148080Y838200D02*
D03*
Y951230D02*
D03*
X340360Y982980D02*
D03*
D70*
X1149350Y769620D02*
D03*
Y744220D02*
D03*
X1156970Y548340D02*
D03*
Y688340D02*
D03*
Y573740D02*
D03*
Y662940D02*
D03*
X549910Y549910D02*
D03*
X575310D02*
D03*
D71*
X815340Y567690D02*
D03*
X789940D02*
D03*
X713740D02*
D03*
X815213Y541909D02*
D03*
X789813D02*
D03*
X662940Y567690D02*
D03*
X891540Y542290D02*
D03*
X916940D02*
D03*
X764413Y541909D02*
D03*
X637540Y567690D02*
D03*
X688340D02*
D03*
X840740Y542290D02*
D03*
X713613Y541909D02*
D03*
X687959Y542417D02*
D03*
X662813D02*
D03*
X637413D02*
D03*
X739013Y541909D02*
D03*
X866140Y542290D02*
D03*
X739140Y567690D02*
D03*
X764540D02*
D03*
X840740D02*
D03*
X866140D02*
D03*
X891540D02*
D03*
X916940D02*
D03*
D72*
X403800Y1253480D02*
D03*
D73*
X1038000D02*
D03*
X486000Y1093480D02*
D03*
D74*
X994410Y601980D02*
D03*
Y538480D02*
D03*
D75*
X1045210Y576580D02*
D03*
D76*
X411960Y768590D02*
D03*
X397960D02*
D03*
X404960Y761590D02*
D03*
Y775590D02*
D03*
X397960Y754590D02*
D03*
Y782590D02*
D03*
X411960Y754590D02*
D03*
Y782590D02*
D03*
X390960Y761590D02*
D03*
Y775590D02*
D03*
X418960Y761590D02*
D03*
Y775590D02*
D03*
D77*
X742950Y928370D02*
D03*
X1046480Y901700D02*
D03*
X812800Y922020D02*
D03*
X777240Y927100D02*
D03*
X863904Y935024D02*
D03*
X864870Y890270D02*
D03*
X797560Y797560D02*
D03*
X668020Y783590D02*
D03*
X469900Y892810D02*
D03*
X744220Y804830D02*
D03*
X798830Y627380D02*
D03*
X756920Y788670D02*
D03*
D78*
X565150Y923290D02*
D03*
X933450Y687070D02*
D03*
X908050Y777240D02*
D03*
X958850Y732790D02*
D03*
X347980Y590550D02*
D03*
X392430Y645160D02*
D03*
X581660Y608330D02*
D03*
M02*
