G04*
G04 #@! TF.GenerationSoftware,Altium Limited,Altium Designer,24.1.2 (44)*
G04*
G04 Layer_Color=8421504*
%FSLAX44Y44*%
%MOMM*%
G71*
G04*
G04 #@! TF.SameCoordinates,84908A0F-CC4F-4C15-BE80-339605CD68EC*
G04*
G04*
G04 #@! TF.FilePolarity,Positive*
G04*
G01*
G75*
%ADD23R,1.2000X1.3000*%
%ADD24R,1.4000X1.2000*%
%ADD25R,1.4700X1.1600*%
%ADD26R,1.2000X1.4000*%
%ADD27R,1.1600X1.4700*%
G04:AMPARAMS|DCode=28|XSize=0.6mm|YSize=1.35mm|CornerRadius=0.045mm|HoleSize=0mm|Usage=FLASHONLY|Rotation=90.000|XOffset=0mm|YOffset=0mm|HoleType=Round|Shape=RoundedRectangle|*
%AMROUNDEDRECTD28*
21,1,0.6000,1.2600,0,0,90.0*
21,1,0.5100,1.3500,0,0,90.0*
1,1,0.0900,0.6300,0.2550*
1,1,0.0900,0.6300,-0.2550*
1,1,0.0900,-0.6300,-0.2550*
1,1,0.0900,-0.6300,0.2550*
%
%ADD28ROUNDEDRECTD28*%
%ADD29O,1.5500X0.2500*%
%ADD30O,0.2500X1.5500*%
%ADD31R,1.9000X1.1000*%
%ADD32R,2.5400X1.7780*%
%ADD33R,0.8000X1.2000*%
%ADD34R,7.4600X6.4700*%
%ADD35R,0.6096X1.5494*%
%ADD36R,0.9000X1.5000*%
%ADD37R,1.5000X0.9000*%
%ADD38R,0.9000X0.9000*%
G36*
X895096Y739521D02*
Y755015D01*
X862584D01*
Y739521D01*
X895096D01*
D02*
G37*
D23*
X743360Y1008380D02*
D03*
X762860D02*
D03*
X762860Y977900D02*
D03*
X743360D02*
D03*
X683670Y975360D02*
D03*
X703170D02*
D03*
X472850Y632460D02*
D03*
X492350D02*
D03*
X472850Y596900D02*
D03*
X492350D02*
D03*
X472850Y556260D02*
D03*
X492350D02*
D03*
D24*
X864208Y958284D02*
D03*
Y977284D02*
D03*
X497840Y990600D02*
D03*
Y1009600D02*
D03*
X686408Y827474D02*
D03*
Y846474D02*
D03*
X546347Y737166D02*
D03*
Y718166D02*
D03*
X964592Y959466D02*
D03*
Y978466D02*
D03*
D25*
X1099441Y1025030D02*
D03*
Y1042530D02*
D03*
X1094740Y797420D02*
D03*
Y779920D02*
D03*
X979035Y666890D02*
D03*
Y684390D02*
D03*
X956333Y666890D02*
D03*
Y684390D02*
D03*
X980440Y726580D02*
D03*
Y744080D02*
D03*
Y782040D02*
D03*
Y764540D02*
D03*
X978855Y830440D02*
D03*
Y812940D02*
D03*
X956152Y830580D02*
D03*
Y813080D02*
D03*
X932180Y830440D02*
D03*
Y812940D02*
D03*
X908050Y830440D02*
D03*
Y812940D02*
D03*
X568960Y735190D02*
D03*
Y717690D02*
D03*
X497840Y966330D02*
D03*
Y948830D02*
D03*
D26*
X1056074Y741072D02*
D03*
X1075074D02*
D03*
X1070196Y674978D02*
D03*
X1051196D02*
D03*
X762566Y949298D02*
D03*
X743566D02*
D03*
X684530Y948690D02*
D03*
X703530D02*
D03*
X447606Y631798D02*
D03*
X428606D02*
D03*
X448876Y596238D02*
D03*
X429876D02*
D03*
X447606Y555598D02*
D03*
X428606D02*
D03*
X375354Y584862D02*
D03*
X394354D02*
D03*
X683876Y1008988D02*
D03*
X702876D02*
D03*
D27*
X1055510Y716280D02*
D03*
X1073010D02*
D03*
X1067930Y638810D02*
D03*
X1050430D02*
D03*
X594500Y930910D02*
D03*
X612000D02*
D03*
X594500Y905510D02*
D03*
X612000D02*
D03*
X600710Y846933D02*
D03*
X618210D02*
D03*
X618350Y824230D02*
D03*
X600850D02*
D03*
X536080Y653893D02*
D03*
X553580D02*
D03*
X536080Y631190D02*
D03*
X553580D02*
D03*
X536080Y608330D02*
D03*
X553580D02*
D03*
X374650Y615950D02*
D03*
X392150D02*
D03*
X822820Y713740D02*
D03*
X805320D02*
D03*
X875030Y637540D02*
D03*
X892530D02*
D03*
D28*
X1024858Y664870D02*
D03*
Y674370D02*
D03*
Y683870D02*
D03*
X1001158D02*
D03*
Y664870D02*
D03*
X1005947Y738530D02*
D03*
Y757530D02*
D03*
X1029647D02*
D03*
Y748030D02*
D03*
Y738530D02*
D03*
D29*
X744610Y889830D02*
D03*
Y884830D02*
D03*
X744610Y879830D02*
D03*
X744610Y874830D02*
D03*
Y869830D02*
D03*
X744610Y864830D02*
D03*
X744610Y859830D02*
D03*
Y854830D02*
D03*
Y849830D02*
D03*
X744610Y844830D02*
D03*
X744610Y839830D02*
D03*
Y834830D02*
D03*
X825110D02*
D03*
Y839830D02*
D03*
X825110Y844830D02*
D03*
X825110Y849830D02*
D03*
Y854830D02*
D03*
X825110Y859830D02*
D03*
Y864830D02*
D03*
X825110Y869830D02*
D03*
Y874830D02*
D03*
X825110Y879830D02*
D03*
X825110Y884830D02*
D03*
Y889830D02*
D03*
D30*
X757360Y822080D02*
D03*
X762360D02*
D03*
X767360Y822080D02*
D03*
X772360Y822080D02*
D03*
X777360D02*
D03*
X782360D02*
D03*
X787360Y822080D02*
D03*
X792360Y822080D02*
D03*
X797360D02*
D03*
X802360Y822080D02*
D03*
X807360Y822080D02*
D03*
X812360D02*
D03*
Y902580D02*
D03*
X807360D02*
D03*
X802360Y902580D02*
D03*
X797360Y902580D02*
D03*
X792360D02*
D03*
X787360Y902580D02*
D03*
X782360D02*
D03*
X777360Y902580D02*
D03*
X772360D02*
D03*
X767360Y902580D02*
D03*
X762360Y902580D02*
D03*
X757360D02*
D03*
D31*
X637540Y931110D02*
D03*
Y905310D02*
D03*
D32*
X651510Y814070D02*
D03*
Y857250D02*
D03*
D33*
X609600Y690170D02*
D03*
Y760170D02*
D03*
X336550Y560630D02*
D03*
Y630630D02*
D03*
X457200Y1015440D02*
D03*
Y945440D02*
D03*
D34*
X1158700Y1173480D02*
D03*
X365300D02*
D03*
D35*
X901827Y682752D02*
D03*
X878840D02*
D03*
X855853D02*
D03*
D36*
X492860Y696090D02*
D03*
X480160D02*
D03*
X467460D02*
D03*
X454760D02*
D03*
X442060D02*
D03*
X429360D02*
D03*
X416660D02*
D03*
X403960D02*
D03*
X391260D02*
D03*
X378560D02*
D03*
X365860D02*
D03*
X353160D02*
D03*
X340460D02*
D03*
X327760D02*
D03*
X492860Y871090D02*
D03*
X480160D02*
D03*
X467460D02*
D03*
X454760D02*
D03*
X442060D02*
D03*
X429360D02*
D03*
X416660D02*
D03*
X403960D02*
D03*
X391260D02*
D03*
X378560D02*
D03*
X365860D02*
D03*
X353160D02*
D03*
X340460D02*
D03*
X327760D02*
D03*
D37*
X505360Y789940D02*
D03*
Y802640D02*
D03*
Y815340D02*
D03*
Y828040D02*
D03*
Y840740D02*
D03*
Y777240D02*
D03*
Y764540D02*
D03*
Y751840D02*
D03*
Y739140D02*
D03*
Y726440D02*
D03*
D38*
X404960Y768590D02*
D03*
Y754590D02*
D03*
Y782590D02*
D03*
X390960Y768590D02*
D03*
Y754590D02*
D03*
Y782590D02*
D03*
X418960Y768590D02*
D03*
Y754590D02*
D03*
Y782590D02*
D03*
M02*
